<?xml version="1.0" standalone="no"?>
<!DOCTYPE svg PUBLIC "-//W3C//DTD SVG 20010904//EN"
 "http://www.w3.org/TR/2001/REC-SVG-20010904/DTD/svg10.dtd">
<svg version="1.0" xmlns="http://www.w3.org/2000/svg"
 width="493.000000pt" height="581.000000pt" viewBox="0 0 493.000000 581.000000"
 preserveAspectRatio="xMidYMid meet">

<g transform="translate(0.000000,581.000000) scale(0.100000,-0.100000)"
fill="#000000" stroke="none">
<path d="M3725 5626 c-117 -38 -204 -82 -214 -108 -12 -34 -20 -108 -11 -108
4 0 11 25 15 55 5 44 12 59 31 72 14 8 26 14 27 12 2 -2 1 -68 -1 -146 l-4
-143 -28 15 c-20 11 -29 24 -34 54 -3 22 -3 48 0 58 5 13 4 15 -4 8 -6 -5 -12
-27 -14 -49 l-3 -38 -60 45 c-71 53 -108 88 -153 142 -31 37 -33 39 -45 21
-67 -104 -90 -135 -96 -131 -11 6 -63 118 -86 183 -22 62 -19 62 -145 -5 -132
-71 -237 -144 -328 -230 l-84 -78 16 -37 c10 -22 12 -39 6 -43 -5 -3 -40 -7
-79 -8 l-69 -2 -12 -54 c-20 -89 4 -273 57 -434 14 -43 24 -79 22 -80 -2 -2
-33 -22 -70 -45 -102 -65 -139 -128 -173 -292 -3 -14 -1 -32 4 -39 7 -12 15
-9 45 15 78 61 199 144 211 144 16 0 34 -31 34 -60 0 -12 3 -20 8 -18 4 2 33
16 63 31 69 35 150 57 207 57 28 0 45 5 48 14 11 30 -18 126 -56 185 l-39 59
40 16 c44 18 47 26 20 70 -21 33 -55 130 -65 185 -6 31 -1 38 67 108 72 75
207 174 266 194 30 11 34 9 103 -56 84 -77 156 -129 246 -174 59 -30 62 -33
62 -68 l0 -36 -79 6 c-43 3 -84 7 -91 9 -8 2 -22 -21 -35 -57 -42 -117 -115
-237 -198 -322 -28 -29 -48 -55 -44 -59 3 -3 57 -10 119 -15 90 -6 115 -11
126 -26 22 -28 82 -159 89 -193 3 -17 9 -33 14 -36 5 -3 42 11 81 30 121 59
143 54 40 -7 -114 -69 -152 -96 -152 -108 0 -5 39 -9 88 -9 112 0 125 -9 141
-92 7 -35 14 -70 17 -79 3 -12 -16 -28 -68 -59 -128 -75 -198 -122 -193 -130
3 -5 39 -16 81 -26 74 -16 76 -17 93 -58 22 -50 48 -161 56 -237 6 -60 -1 -74
-42 -81 -13 -2 -51 -37 -93 -88 -80 -97 -76 -106 33 -72 100 32 117 35 123 17
4 -9 -2 -26 -15 -39 -28 -30 -27 -39 4 -33 17 3 29 -1 34 -12 12 -22 34 -169
27 -179 -3 -5 -33 -19 -66 -31 -33 -12 -60 -24 -60 -26 0 -3 14 -12 31 -21 17
-8 27 -19 23 -23 -5 -5 -44 -21 -86 -36 -43 -15 -78 -31 -78 -35 0 -4 37 -11
83 -16 l82 -9 3 -69 c2 -38 -1 -73 -7 -79 -6 -6 -24 -3 -51 11 l-42 21 -57
-29 c-49 -24 -81 -38 -190 -81 -20 -8 -21 -12 -10 -26 8 -9 30 -23 49 -31 l35
-15 -40 -12 c-22 -7 -41 -19 -43 -28 -4 -18 67 -74 105 -83 13 -4 26 -16 29
-30 7 -29 1 -240 -7 -249 -3 -3 -52 -15 -108 -28 -61 -13 -101 -27 -101 -34 0
-14 63 -81 100 -107 32 -21 25 -26 -91 -56 l-91 -23 23 -19 c13 -10 45 -28 72
-41 75 -35 62 -44 -80 -52 -71 -4 -175 -16 -233 -27 -58 -11 -162 -26 -232
-33 -99 -10 -132 -17 -156 -34 -17 -12 -74 -37 -126 -56 -161 -58 -264 -117
-327 -186 -35 -39 -36 -40 -80 -30 -25 6 -54 8 -66 5 -16 -4 -26 1 -39 20 -9
15 -19 25 -21 23 -4 -5 131 -272 168 -332 72 -116 84 -185 45 -268 -15 -31
-32 -59 -37 -63 -5 -3 -21 -28 -35 -56 -33 -64 -125 -188 -141 -188 -17 0 -51
69 -59 119 -4 23 -10 41 -14 41 -4 0 -1 -30 6 -67 8 -36 12 -68 9 -71 -2 -3
-13 14 -24 38 -17 38 -20 40 -23 19 l-3 -24 -19 28 c-30 44 -33 109 -6 154 12
21 28 42 36 46 17 10 44 71 44 101 0 18 -41 91 -60 106 -3 3 -14 23 -24 45
-10 22 -28 51 -40 64 -23 26 -131 81 -158 81 -40 0 -125 135 -159 254 -10 35
-18 50 -18 36 -1 -36 25 -117 54 -166 32 -54 31 -59 -3 -39 -21 13 -32 33 -50
93 -29 101 -45 177 -40 199 3 14 9 9 20 -17 14 -29 17 -31 17 -12 1 23 19 31
25 10 32 -117 99 -278 115 -278 4 0 -7 30 -25 68 -35 72 -77 193 -70 200 9 8
108 -31 113 -45 4 -10 8 -11 13 -3 5 9 17 9 46 1 58 -16 218 -14 260 4 20 8
46 12 58 9 32 -8 120 60 147 113 12 24 28 43 34 43 7 0 45 -24 86 -54 40 -30
75 -53 78 -51 8 8 -21 34 -85 75 -61 40 -80 69 -54 85 16 10 12 63 -7 73 -14
8 -16 33 -14 213 3 267 19 341 87 410 25 26 69 60 98 75 28 15 71 42 95 61 24
18 49 33 54 33 6 0 40 18 76 39 36 22 92 46 124 56 45 12 62 23 75 45 9 17 23
30 30 30 7 0 26 10 41 21 16 12 34 18 40 14 13 -7 101 60 101 76 0 5 9 23 21
38 20 27 20 31 6 87 -14 55 -14 60 5 86 11 16 28 33 39 39 11 5 17 15 13 20
-11 19 41 80 99 115 31 20 71 53 88 74 26 33 41 41 93 52 l61 14 -3 58 c-2 46
3 69 23 109 14 28 25 61 25 74 0 27 -41 73 -65 73 -16 0 -20 15 -6 24 14 9 51
94 51 119 0 12 -7 33 -16 46 -13 18 -23 22 -44 17 -23 -4 -32 0 -46 22 -10 15
-17 34 -16 43 2 8 -7 24 -18 34 -35 32 -70 11 -105 -62 l-30 -63 -85 -28 -85
-29 -1 -41 c-1 -34 -8 -49 -42 -86 -52 -56 -58 -82 -38 -155 28 -100 19 -147
-46 -237 -26 -37 -36 -44 -55 -39 -37 9 -70 -5 -83 -35 -17 -42 -74 -93 -96
-87 -13 4 -33 -7 -63 -34 -24 -22 -41 -42 -38 -45 3 -3 23 11 45 30 45 41 49
42 80 17 26 -23 28 -49 5 -68 -16 -12 -15 -13 14 -8 24 5 39 1 62 -16 46 -34
47 -17 1 20 -22 17 -40 37 -40 43 0 6 -7 20 -16 29 -16 17 -14 21 18 57 20 22
39 46 44 55 5 8 21 18 36 22 24 6 35 0 91 -56 95 -95 162 -246 124 -277 -12
-10 -16 -8 -21 13 -11 45 -24 26 -14 -21 10 -44 9 -48 -18 -70 -35 -28 -40
-29 -48 -8 -4 9 -2 13 5 8 6 -4 15 0 20 7 4 8 14 14 21 14 9 0 12 11 10 30 -5
42 -8 42 -44 9 -20 -19 -29 -23 -25 -11 4 9 3 17 -2 17 -16 0 -19 -12 -9 -48
9 -32 8 -38 -12 -54 -35 -28 -50 -23 -51 20 -1 37 -1 37 -9 7 -22 -92 -53
-127 -120 -139 -19 -4 -61 -22 -93 -42 -31 -20 -63 -34 -70 -31 -7 2 -13 26
-14 58 -3 71 -5 79 -15 79 -4 0 -8 -6 -9 -12 0 -7 -2 -30 -3 -51 -2 -20 -16
-63 -33 -94 -25 -48 -39 -62 -81 -83 -28 -14 -63 -36 -79 -51 -15 -14 -36 -31
-46 -39 -17 -12 -18 -11 -11 16 5 21 3 26 -4 19 -6 -6 -25 -67 -41 -136 -28
-119 -30 -135 -29 -333 1 -188 3 -208 19 -217 15 -8 17 -14 8 -37 -14 -36 -59
-95 -68 -87 -3 4 -6 37 -6 73 0 58 -2 67 -17 66 -10 -1 -18 3 -18 10 0 6 -7 2
-15 -8 -22 -29 -18 -64 10 -90 14 -13 25 -32 25 -43 0 -10 5 -24 12 -31 9 -9
6 -18 -12 -37 -34 -36 -86 -67 -107 -64 -10 2 -48 -5 -85 -15 -59 -17 -78 -17
-157 -7 -92 12 -213 49 -330 102 -35 16 -68 29 -72 29 -5 0 -8 -17 -8 -37 1
-25 3 -30 6 -15 7 38 28 19 31 -29 4 -77 23 -179 34 -179 5 0 7 8 4 18 -10 33
-26 136 -26 164 0 54 17 27 22 -35 3 -34 17 -96 31 -137 27 -80 26 -99 -2 -61
-14 18 -20 20 -23 10 -9 -24 -17 -5 -40 87 -29 123 -29 123 -38 94 -7 -23 -8
-23 -9 8 -1 18 -6 43 -12 55 -9 16 -9 22 0 25 6 2 11 8 11 14 0 7 -14 8 -38 4
-22 -3 -42 -3 -45 0 -3 4 1 24 10 45 12 31 13 42 3 53 -7 9 -10 42 -9 85 2 53
-2 76 -16 97 -23 35 -31 99 -16 128 11 20 8 31 -25 92 -31 57 -38 80 -40 134
-1 36 -9 83 -17 105 -9 22 -16 47 -17 57 0 15 112 174 135 190 5 4 17 8 25 8
8 0 -4 -18 -28 -43 -61 -62 -52 -67 15 -8 46 41 64 51 92 51 30 0 180 -46 244
-74 15 -7 17 -1 17 63 l0 71 28 -6 c38 -9 39 -10 46 -41 4 -16 22 -41 41 -58
18 -16 35 -39 37 -50 3 -18 -2 -20 -52 -17 -78 4 -95 -3 -131 -53 -26 -35 -39
-45 -61 -45 -42 0 -76 -21 -138 -86 -70 -75 -90 -115 -90 -182 0 -56 10 -85
41 -115 18 -16 19 -16 34 6 14 21 13 27 -5 65 -28 58 -27 139 2 177 54 68 90
103 114 109 35 9 41 1 19 -24 -15 -17 -16 -21 -2 -34 13 -14 19 -8 55 52 57
95 79 114 133 110 l44 -3 10 -122 c6 -67 13 -125 18 -129 4 -4 7 1 7 12 1 15
4 13 16 -9 24 -44 27 -26 5 24 -23 51 -44 172 -36 199 3 10 18 23 34 28 15 6
50 35 76 66 45 52 84 75 72 42 -10 -26 11 -135 36 -190 14 -30 43 -74 65 -98
54 -59 65 -83 48 -97 -11 -9 -18 -6 -35 16 -14 19 -20 23 -21 12 0 -9 9 -24
20 -34 31 -28 23 -39 -9 -13 -17 13 -28 29 -26 36 7 21 -10 13 -40 -18 -28
-30 -29 -31 -12 -59 16 -27 16 -29 -2 -45 -22 -20 -30 -20 -61 4 -31 24 -43
25 -36 3 8 -26 -45 -53 -107 -54 -51 -1 -121 -16 -84 -18 26 -2 21 -16 -19
-51 -43 -37 -73 -50 -120 -50 -19 0 -34 -4 -34 -10 0 -15 68 -12 104 5 18 9
52 36 76 60 31 32 52 45 72 45 36 0 36 -19 3 -76 -15 -26 -21 -45 -15 -49 15
-9 12 -35 -4 -29 -7 3 -23 -6 -34 -20 -11 -14 -23 -26 -27 -26 -3 0 3 12 14
26 12 15 21 34 20 43 0 13 -1 14 -6 1 -3 -8 -19 -31 -34 -50 -16 -19 -24 -37
-19 -40 5 -3 0 -17 -10 -30 l-20 -25 0 25 c0 18 -3 21 -11 13 -7 -7 -9 -19 -6
-27 8 -22 46 -20 54 2 10 28 66 82 85 82 10 0 21 8 24 18 3 9 10 24 15 32 36
60 40 72 31 99 -9 24 -6 29 24 49 19 12 35 22 38 22 9 0 -5 -65 -17 -72 -9 -6
-8 -8 3 -8 11 0 11 -3 -3 -11 -13 -8 -17 -18 -13 -35 4 -14 2 -24 -4 -24 -6 0
-8 -5 -5 -10 3 -5 2 -10 -4 -10 -5 0 -20 -21 -33 -47 -12 -27 -36 -62 -53 -80
-43 -45 -90 -105 -91 -117 -1 -6 -2 -19 -3 -29 0 -10 -6 -15 -12 -12 -6 4 -8
14 -5 22 3 8 1 11 -4 8 -6 -3 -10 -15 -10 -25 0 -40 24 -32 72 24 35 39 57 56
74 56 15 0 27 7 30 18 4 9 17 40 29 67 36 77 66 175 72 232 5 48 8 52 27 47
14 -3 28 2 40 15 12 13 26 19 40 15 25 -6 66 32 95 88 20 40 16 54 -26 100
-18 18 -23 32 -18 47 10 31 20 26 34 -17 15 -44 47 -90 56 -80 4 3 -5 24 -18
45 -45 71 -44 91 10 153 26 30 76 83 110 117 74 74 84 106 59 194 -20 72 -20
79 -1 79 8 0 26 -21 41 -47 l28 -46 35 74 c23 49 54 93 93 132 l58 58 -25 49
c-13 26 -38 71 -54 98 l-30 51 52 11 c29 6 70 23 92 38 33 23 41 35 43 65 4
45 -24 251 -44 331 -8 32 -14 60 -12 62 2 2 26 -12 53 -31 27 -19 55 -35 62
-35 51 0 252 323 278 447 6 30 4 33 -35 53 -63 32 -150 89 -202 132 -25 21
-48 35 -51 31 -2 -4 -8 -26 -12 -48 -8 -46 -70 -184 -109 -241 -14 -22 -56
-69 -92 -105 l-66 -67 31 -18 c17 -10 30 -23 28 -28 -4 -13 -68 -32 -155 -46
-62 -10 -72 -15 -66 -29 41 -99 74 -231 74 -298 l0 -35 -35 26 -35 27 -57
-115 c-49 -99 -61 -116 -85 -122 -36 -7 -55 -36 -64 -99 -3 -27 -15 -72 -26
-100 -19 -47 -19 -105 -1 -151 4 -11 -8 -13 -62 -11 -73 4 -97 21 -110 80 -5
22 -12 27 -36 27 -45 0 -36 26 19 54 79 40 145 98 177 157 27 50 30 63 34 174
6 188 5 191 -26 247 -36 64 -106 120 -185 150 -56 20 -58 22 -58 57 0 36 -28
88 -73 139 -41 45 -37 20 7 -42 56 -77 59 -109 15 -154 -23 -23 -41 -32 -64
-32 -40 0 -64 -25 -76 -81 -15 -66 -55 -142 -104 -195 -61 -67 -57 -80 6 -19
56 55 108 151 116 214 7 48 15 56 67 64 22 4 51 18 66 32 26 24 28 25 67 11
49 -17 117 -59 157 -95 37 -34 76 -116 76 -161 0 -49 -29 -103 -60 -110 -18
-4 -26 -15 -31 -39 -10 -47 -90 -126 -144 -141 -55 -15 -101 -6 -109 23 -6 20
-8 18 -26 -17 -25 -49 -25 -50 1 -33 14 10 30 12 55 7 38 -9 84 -1 130 23 40
21 114 102 114 126 0 10 11 26 25 35 23 15 26 15 31 1 13 -33 -2 -133 -27
-181 -29 -56 -128 -137 -191 -156 l-39 -11 2 -56 c0 -31 -5 -71 -14 -90 -14
-33 -12 -71 4 -71 4 0 11 4 14 10 11 18 32 10 78 -30 28 -25 47 -51 49 -68 l4
-27 12 28 c7 16 12 53 12 84 l0 56 52 -7 c64 -9 64 -9 89 -57 20 -40 20 -40 0
-72 -11 -18 -35 -47 -54 -65 -30 -29 -35 -31 -47 -17 -21 25 -46 17 -85 -26
-27 -30 -40 -38 -48 -30 -8 8 -7 19 6 40 32 54 14 146 -32 171 -20 10 -51 4
-51 -10 0 -14 -55 3 -88 27 -64 48 -98 49 -250 9 -34 -10 -79 -16 -100 -14
l-37 3 40 23 c35 20 36 22 12 17 -19 -4 -26 -2 -22 5 11 19 -19 10 -80 -23
-60 -33 -125 -103 -124 -135 0 -13 4 -11 17 8 23 35 97 110 109 110 6 0 -8
-18 -29 -41 -47 -49 -42 -67 5 -21 30 29 39 32 93 32 33 0 91 9 129 19 39 11
93 23 120 26 45 6 55 3 97 -25 60 -40 67 -80 10 -59 -18 7 -22 14 -17 29 8 25
-10 27 -20 3 -4 -10 -9 -55 -12 -101 -5 -68 -9 -82 -21 -77 -136 52 -170 59
-269 60 l-103 0 -10 29 c-6 16 -12 27 -15 24 -3 -3 2 -25 12 -51 l17 -46 -30
-40 c-16 -23 -39 -55 -52 -72 -26 -37 -29 -96 -7 -139 8 -16 14 -52 14 -82 -1
-42 5 -67 30 -116 28 -55 31 -70 29 -136 -2 -62 1 -80 18 -103 17 -24 20 -39
16 -96 -3 -44 0 -72 8 -82 9 -11 9 -22 1 -46 -16 -45 -14 -79 4 -79 18 0 18
-4 6 -47 -6 -20 -6 -35 0 -38 5 -4 9 -16 9 -28 0 -16 -15 -31 -51 -52 -54 -32
-256 -232 -245 -242 4 -4 29 15 56 42 28 28 50 43 50 35 0 -31 -13 -60 -25
-60 -7 0 -21 -20 -31 -45 -20 -52 -50 -80 -105 -97 -44 -13 -54 -32 -12 -22
54 12 112 55 184 134 79 88 89 89 89 8 0 -36 6 -54 27 -78 22 -27 25 -35 14
-51 -7 -13 -9 -38 -5 -72 6 -43 14 -59 45 -89 l39 -37 -39 -118 c-108 -326
-202 -673 -182 -673 4 0 20 55 36 123 15 67 44 172 62 232 62 204 85 275 87
275 2 0 2 -27 2 -60 0 -33 -4 -60 -8 -60 -4 0 -7 -10 -6 -22 0 -13 -13 -69
-30 -125 -30 -100 -62 -237 -62 -267 0 -12 16 -16 72 -18 68 -3 71 -4 54 -21
-19 -19 -91 -24 -101 -7 -3 6 -11 10 -17 10 -7 0 1 -14 17 -30 30 -32 58 -40
49 -15 -5 11 1 15 24 15 16 0 35 -7 42 -15 31 -37 35 -17 32 143 -3 152 -3
158 19 177 16 15 23 17 26 7 3 -8 20 2 46 30 l41 43 6 -35 6 -35 7 38 c9 41
41 77 69 77 22 0 23 -13 4 -30 -29 -23 -49 -107 -41 -176 6 -54 4 -64 -9 -64
-23 0 -36 -32 -36 -89 0 -54 14 -101 29 -101 6 0 4 15 -5 35 -25 61 -13 135
22 135 13 0 13 -2 0 -22 -17 -24 -20 -81 -6 -113 6 -14 9 -4 9 37 1 31 5 59
10 63 5 3 22 -5 37 -18 l26 -23 -27 -18 c-21 -14 -24 -20 -14 -26 11 -7 10
-13 -5 -29 -19 -21 -19 -21 0 -21 11 0 25 5 32 12 9 9 12 9 12 0 0 -7 4 -12 9
-12 13 0 21 106 23 327 1 112 4 203 7 203 3 0 5 27 5 59 -1 65 7 92 22 70 10
-16 10 -571 0 -624 -7 -35 -7 -35 29 -35 22 0 34 4 30 10 -3 6 0 10 7 10 7 0
28 17 48 39 29 31 35 45 34 78 -2 53 -11 66 -40 59 -36 -9 -33 -2 45 89 14 16
81 67 126 96 23 14 51 39 63 55 13 16 44 56 70 88 l47 59 7 -49 c10 -76 9
-171 -3 -243 -15 -96 -16 -97 -40 -75 -19 17 -20 17 -45 -7 -13 -14 -27 -42
-31 -62 -7 -48 10 -71 49 -63 27 5 28 4 22 -22 -4 -15 -11 -35 -16 -44 -5 -12
-5 -18 1 -18 30 0 81 274 81 429 0 83 3 100 17 105 21 9 34 -12 26 -44 -6 -23
-5 -24 10 -8 9 9 17 23 17 30 0 8 6 23 14 34 14 18 15 18 21 1 10 -24 -3 -67
-20 -67 -8 0 -12 -6 -9 -14 3 -8 0 -24 -6 -36 -10 -18 -14 -19 -27 -8 -15 12
-15 11 -5 -9 13 -23 6 -57 -9 -47 -5 3 -9 2 -9 -2 0 -11 44 -88 63 -108 9 -11
17 -23 17 -26 0 -14 -14 -19 -26 -9 -10 8 -12 4 -7 -24 7 -48 -14 -59 -44 -21
-29 36 -31 23 -2 -17 24 -34 19 -70 -6 -49 -9 7 -19 10 -23 6 -4 -4 1 -13 11
-21 19 -14 14 -45 -8 -45 -7 0 -12 -11 -11 -25 1 -33 31 -33 32 0 2 35 33 80
46 67 11 -11 2 -52 -13 -52 -5 0 -9 -9 -9 -20 0 -11 7 -20 15 -20 8 0 15 9 15
19 0 31 19 35 32 7 16 -35 23 -33 37 14 6 22 16 40 21 40 14 0 32 -40 27 -59
-6 -24 59 -26 66 -2 3 9 15 41 26 71 15 38 17 49 6 36 -8 -11 -15 -26 -15 -33
0 -7 -7 -13 -15 -13 -19 0 -19 34 0 54 8 8 15 21 15 29 0 69 209 537 240 537
20 0 21 -42 1 -73 -31 -50 -91 -175 -91 -189 0 -7 15 19 34 58 48 100 115 204
132 204 27 0 25 -27 -4 -76 -16 -27 -42 -70 -56 -97 -15 -26 -31 -45 -37 -42
-5 4 -9 -4 -9 -16 0 -12 -9 -37 -21 -55 -11 -19 -17 -34 -12 -34 5 0 17 16 26
35 18 38 28 43 47 20 10 -12 8 -22 -12 -53 -29 -44 -68 -118 -68 -129 0 -4 12
12 26 37 46 81 77 121 86 112 11 -11 -11 -58 -47 -107 -13 -16 -26 -41 -30
-55 -7 -22 -6 -23 9 -11 13 11 19 11 31 1 19 -16 19 -34 0 -50 -13 -11 -20 -9
-43 13 -41 40 -51 33 -12 -8 l33 -34 -26 -40 c-32 -48 -33 -54 -9 -47 22 7 55
-25 47 -45 -8 -21 66 -23 82 -2 12 15 14 15 31 0 10 -9 23 -17 28 -16 9 0 154
239 154 254 0 7 -91 -131 -145 -221 -10 -16 -12 -16 -28 0 -13 14 -14 21 -5
41 6 14 17 25 24 25 7 0 11 6 8 14 -3 8 4 24 15 35 12 12 21 25 21 31 0 17 42
93 115 205 92 142 90 139 78 132 -5 -3 -38 -49 -73 -102 -56 -85 -64 -93 -75
-78 -15 20 -23 4 132 263 51 85 93 159 93 165 0 5 -14 -14 -31 -42 -29 -50
-51 -65 -63 -44 -3 5 2 19 12 32 42 57 51 99 20 99 -7 0 -7 -4 0 -13 7 -8 7
-18 2 -27 -7 -12 -15 -9 -40 15 l-32 30 7 -27 c5 -21 2 -30 -14 -40 -12 -7
-21 -18 -21 -24 0 -13 -77 -118 -90 -122 -6 -2 -13 3 -16 12 -7 17 57 142 85
166 10 9 16 21 13 28 -5 17 -22 15 -22 -3 0 -20 -12 -19 -43 5 -30 24 -37 25
-37 5 0 -21 -17 -19 -30 5 -12 22 -42 28 -35 8 3 -7 0 -20 -5 -28 -9 -13 -12
-12 -25 4 -12 15 -12 22 -2 34 10 13 8 14 -11 8 -14 -5 -29 -3 -37 4 -12 10
-23 -1 -60 -59 -25 -39 -50 -71 -55 -71 -14 0 -13 5 15 60 30 59 30 56 5 63
-12 3 -20 14 -20 25 0 15 -5 19 -20 15 -15 -4 -19 -11 -15 -24 5 -13 1 -19
-10 -19 -9 0 -13 -5 -10 -10 9 -15 -4 -50 -20 -50 -8 0 -11 -7 -8 -19 5 -22
-14 -38 -28 -24 -10 10 4 54 27 83 6 8 14 24 16 35 3 11 9 27 12 35 5 11 0 16
-14 17 -17 2 -19 -2 -13 -25 6 -24 5 -26 -10 -13 -10 7 -17 22 -17 33 0 10 -4
17 -10 13 -5 -3 -18 0 -29 7 -15 9 -23 9 -33 0 -16 -13 -38 1 -38 25 0 7 -4
13 -9 13 -6 0 -24 20 -42 45 -31 43 -54 60 -43 31 3 -8 1 -17 -5 -20 -11 -7
-41 31 -41 54 0 8 -9 21 -20 28 -12 7 -20 23 -20 38 0 15 -4 23 -11 19 -5 -4
-9 -19 -7 -33 2 -20 -2 -28 -16 -30 -15 -3 -17 0 -11 14 4 11 10 34 13 52 2
17 7 32 11 32 4 0 7 15 7 33 0 80 70 153 217 227 92 46 281 109 334 111 l38 2
-40 7 -40 6 30 13 c19 8 48 10 77 7 28 -4 49 -2 53 4 3 5 21 10 40 10 18 0 69
7 112 16 43 8 121 19 173 24 52 6 125 13 162 16 82 8 86 2 63 -88 -20 -80 -64
-175 -98 -211 l-26 -27 47 -24 c53 -27 187 -76 206 -76 7 0 23 23 37 51 21 46
24 49 29 28 6 -22 3 -45 -15 -127 l-8 -33 34 5 c19 4 93 -2 164 -13 87 -12
134 -15 143 -8 6 5 12 31 12 58 0 26 4 51 10 54 5 3 28 1 50 -6 40 -12 40 -13
40 -61 l0 -48 38 0 c50 0 259 29 288 40 16 6 24 19 26 41 3 27 13 37 73 74 39
23 71 49 73 58 5 26 61 27 90 2 22 -19 26 -30 25 -81 0 -32 4 -65 11 -73 9
-11 7 -13 -12 -7 -26 9 -29 -1 -4 -21 15 -13 15 -14 -10 -8 -25 5 -28 3 -28
-21 0 -19 -4 -25 -15 -20 -18 6 -20 -5 -4 -21 17 -17 1 -37 -17 -22 -16 13
-15 14 -31 -21 -24 -53 -23 -95 4 -124 22 -24 24 -31 14 -52 -6 -14 -11 -32
-11 -41 0 -15 1 -15 13 1 11 15 15 16 25 3 10 -11 9 -23 -3 -57 -8 -24 -13
-45 -10 -48 4 -4 11 11 30 66 4 10 8 10 25 0 23 -15 27 -46 6 -54 -8 -3 -12
-12 -9 -21 3 -8 0 -32 -7 -54 -12 -36 -12 -41 8 -62 15 -15 20 -30 16 -47 l-6
-25 15 26 c17 31 67 178 67 197 0 7 -5 10 -10 7 -6 -4 -17 -2 -25 5 -13 11 -8
36 33 150 3 8 8 -8 12 -37 3 -28 9 -55 13 -59 8 -9 0 132 -14 245 -12 92 -63
264 -85 282 -14 12 -14 14 1 25 13 10 14 17 6 33 -17 31 -15 36 49 80 33 23
58 46 55 50 -2 5 -31 11 -63 14 -87 9 -89 11 -101 81 -17 96 -15 109 19 129
17 10 30 22 30 27 0 12 -102 24 -129 15 -32 -10 -25 12 9 30 19 10 57 15 112
15 144 0 152 4 219 84 66 80 72 98 32 91 -16 -2 -56 -6 -89 -9 l-62 -5 -35 72
c-51 106 -65 149 -49 154 18 7 15 32 -13 91 l-24 52 59 0 c60 0 60 0 140 70
44 39 85 80 91 92 11 20 10 21 -32 14 -208 -32 -265 -34 -273 -8 -12 43 -17
210 -7 216 6 4 43 10 83 13 l72 6 -42 37 c-23 21 -66 50 -96 66 -53 28 -54 29
-59 79 -6 60 -4 141 4 149 3 3 22 1 43 -5 36 -10 42 -8 93 27 49 34 132 120
122 128 -2 1 -49 13 -104 25 -128 29 -125 28 -125 44 0 9 19 17 53 23 47 8 52
11 50 34 -1 14 -8 93 -14 175 -7 83 -10 158 -7 167 4 9 28 24 55 33 82 31 85
41 20 70 -31 13 -57 29 -57 34 0 5 14 15 30 23 17 7 30 16 30 20 0 9 -171 48
-213 48 -33 0 -37 3 -42 33 -3 17 -4 59 -3 92 l3 60 107 12 c109 13 249 51
255 69 2 5 -17 20 -41 31 -24 12 -59 35 -79 52 -19 17 -40 31 -47 31 -7 0 -10
7 -6 16 3 9 6 54 6 100 l0 84 92 0 93 0 -95 96 -95 96 -72 -6 -73 -6 0 38 c0
31 30 163 66 290 6 19 3 22 -24 22 -54 0 -45 18 29 57 127 68 126 62 6 112
-58 23 -120 53 -139 66 l-33 23 -50 -47 c-50 -48 -181 -128 -192 -118 -3 3 16
35 41 70 75 105 153 283 133 303 -3 3 -45 -5 -94 -19 -48 -14 -112 -29 -140
-32 -61 -8 -61 -7 -39 87 7 32 11 60 8 63 -9 9 -36 5 -107 -19z m91 -11 c-16
-43 -28 -200 -22 -297 7 -103 6 -108 -12 -108 -28 0 -32 18 -32 136 0 108 15
236 31 267 12 21 44 24 35 2z m-58 -32 c-5 -21 -12 -116 -15 -210 -5 -137 -9
-173 -19 -173 -8 0 -14 6 -15 13 0 6 -4 2 -9 -10 -15 -36 -37 -28 -44 15 -20
121 -11 337 15 368 24 29 30 12 25 -63 l-6 -78 15 79 c13 74 24 95 51 96 9 0
9 -10 2 -37z m-728 -8 c26 -68 26 -68 -47 -104 -93 -46 -362 -236 -372 -263
-2 -6 18 5 44 26 26 20 51 36 56 36 15 0 21 -22 10 -33 -6 -6 -11 -15 -11 -20
0 -5 24 12 53 37 59 50 222 150 274 167 65 21 88 -12 26 -37 -128 -51 -217
-108 -317 -201 l-49 -45 6 32 c7 32 7 32 -26 27 -17 -3 -57 -9 -87 -12 -55 -7
-55 -7 -67 26 -16 41 -9 53 69 124 97 88 374 264 416 265 7 0 17 -11 22 -25z
m620 -9 c0 -33 -20 -66 -40 -66 -28 0 -27 44 2 64 28 20 38 20 38 2z m434 -58
c-21 -70 -60 -149 -109 -224 -55 -82 -68 -94 -80 -74 -3 6 -23 10 -44 10 l-39
0 -4 88 c-2 48 -2 106 0 128 l4 41 61 6 c34 3 89 15 122 26 84 27 98 27 89 -1z
m-779 -66 c64 -69 190 -160 278 -203 79 -38 64 -62 -76 -125 -94 -41 -96 -44
-72 -106 10 -24 -6 -23 -63 6 -85 43 -282 202 -282 227 0 5 19 14 43 20 23 7
43 14 45 15 2 1 -6 20 -17 42 l-20 40 44 67 c25 37 45 71 45 76 0 17 10 9 75
-59z m-235 28 c9 -17 7 -22 -17 -31 -15 -6 -49 -21 -75 -34 -47 -23 -48 -24
-58 -5 -11 20 -12 20 90 71 45 23 47 23 60 -1z m560 1 c0 -12 -39 -21 -45 -11
-3 5 1 11 7 13 21 9 38 8 38 -2z m0 -76 c0 -31 -3 -35 -25 -35 -19 0 -25 5
-25 23 0 19 7 26 48 46 1 0 2 -15 2 -34z m-725 -15 c3 -5 -1 -10 -9 -10 -8 0
-18 5 -21 10 -3 6 1 10 9 10 8 0 18 -4 21 -10z m215 -20 c9 -17 8 -21 -7 -26
-123 -39 -262 -123 -360 -217 l-63 -60 1 34 c0 29 9 42 64 88 101 85 171 131
253 167 90 40 98 40 112 14z m-260 -5 c0 -8 -4 -15 -10 -15 -5 0 -10 7 -10 15
0 8 5 15 10 15 6 0 10 -7 10 -15z m-32 -22 c-4 -22 -38 -30 -38 -10 0 14 13
24 33 26 5 1 7 -7 5 -16z m797 -3 c-3 -5 -15 -10 -26 -10 -11 0 -17 5 -14 10
3 6 15 10 26 10 11 0 17 -4 14 -10z m-471 -26 c4 -9 5 -18 4 -19 -2 0 -34 -13
-73 -28 -96 -37 -205 -109 -302 -200 l-81 -77 -10 27 -10 28 -1 -27 c-2 -62
33 -186 85 -305 10 -21 -60 -42 -118 -36 -44 4 -65 0 -123 -25 -38 -17 -73
-27 -78 -23 -13 13 -48 123 -67 215 -19 89 -26 224 -14 283 l6 30 116 12 c65
6 135 14 158 17 l41 6 -6 -48 c-7 -57 -4 -84 11 -84 6 0 30 20 55 45 79 80
194 157 301 201 68 28 98 30 106 8z m1059 -16 c23 -12 78 -36 122 -54 l80 -32
-33 -19 c-84 -46 -186 -114 -237 -158 -31 -26 -59 -44 -62 -41 -4 4 -6 27 -4
51 2 38 0 45 -16 43 -10 0 -37 0 -61 0 -39 2 -44 5 -58 38 -15 37 -9 53 20 54
14 0 139 87 165 114 30 31 31 32 84 4z m-575 -31 c4 -31 2 -31 -33 -15 -29 13
-32 23 -7 37 25 15 37 8 40 -22z m256 -69 c20 -28 65 -145 68 -177 3 -22 -3
-25 -82 -41 -105 -22 -199 -57 -309 -116 -46 -24 -86 -43 -87 -41 -2 2 -10 46
-18 98 -8 52 -19 106 -25 121 -8 23 -7 29 13 41 71 47 327 133 403 136 12 1
29 -9 37 -21z m410 -126 c3 -5 -8 -60 -25 -123 -23 -89 -29 -133 -28 -199 l2
-84 -31 -13 c-17 -7 -56 -16 -85 -19 l-55 -6 5 26 c5 23 2 26 -22 26 -27 0
-27 1 -22 48 4 26 9 75 13 110 4 34 11 62 15 62 5 0 9 13 9 29 0 17 5 33 10
36 6 3 10 -3 10 -14 0 -12 5 -21 10 -21 6 0 10 16 10 35 0 41 17 47 23 8 3
-24 4 -22 6 8 1 46 12 56 28 27 l12 -23 1 23 c0 13 4 20 10 17 6 -3 10 3 10
14 0 23 15 28 23 9 3 -7 6 -3 6 10 1 18 7 22 30 22 17 0 32 -4 35 -8z m-289
-84 c-5 -94 1 -86 10 15 5 51 10 67 22 67 13 0 14 -12 8 -87 -13 -155 -32
-303 -39 -311 -4 -4 -6 43 -5 105 2 61 1 114 -2 117 -3 3 -6 -36 -8 -87 -2
-98 -7 -128 -25 -139 -29 -20 -35 -8 -31 60 l4 67 -12 -69 c-14 -80 -39 -104
-36 -34 1 23 1 48 -1 53 -2 6 0 54 4 108 6 72 12 97 22 97 8 0 14 5 14 10 0 6
5 10 11 10 7 0 9 -11 6 -30 -4 -17 -2 -30 3 -30 6 0 10 14 10 30 0 17 4 30 10
30 5 0 7 21 3 50 -5 46 -4 50 15 50 20 0 21 -4 17 -82z m-120 -95 c-5 -22 -10
-24 -35 -19 l-29 5 -3 -72 c-3 -70 -4 -72 -30 -75 l-28 -3 1 68 c0 37 3 86 7
107 6 33 11 40 34 43 24 3 27 0 31 -29 4 -33 4 -33 5 5 2 36 21 54 23 20 0
-13 3 -11 12 7 l11 25 4 -29 c2 -15 1 -40 -3 -53z m-137 -60 l-3 -98 -45 1
c-25 0 -56 2 -70 5 -24 4 -25 1 -27 -46 -2 -27 -8 -81 -14 -119 -13 -80 -18
-77 -55 41 -22 71 -23 76 -7 106 8 17 23 54 32 82 14 43 22 54 66 77 44 25 94
44 118 47 5 1 7 -43 5 -96z m-422 57 c14 0 24 -6 24 -14 0 -9 -7 -12 -19 -9
-13 3 -20 -2 -26 -19 -4 -13 -7 -26 -6 -30 1 -5 -8 -8 -19 -8 -18 0 -19 -3 -9
-21 9 -17 8 -23 -2 -30 -10 -6 -8 -9 9 -9 12 0 22 -2 22 -5 0 -14 -25 -55 -34
-55 -6 0 -5 5 2 12 20 20 14 38 -15 38 -14 0 -23 -3 -20 -7 4 -3 2 -12 -4 -19
-13 -16 -4 -34 17 -34 15 0 19 -12 7 -23 -3 -4 -15 1 -25 10 -15 13 -21 14
-31 4 -9 -10 -8 -15 7 -27 19 -14 19 -14 -2 -14 -12 0 -21 -3 -21 -7 3 -21 -2
-33 -16 -33 -8 0 -15 -6 -15 -13 0 -7 -10 -19 -22 -27 -23 -14 -28 -16 -49
-19 -7 0 -9 -12 -7 -26 5 -22 2 -25 -24 -25 l-28 0 60 75 c84 107 141 208 184
329 4 11 12 16 22 12 9 -3 27 -6 40 -6z m74 -68 c-27 -85 -41 -112 -61 -112
-29 0 -30 14 -3 81 37 92 41 98 63 92 18 -5 18 -6 1 -61z m54 18 c3 -22 11
-40 16 -40 6 0 10 -8 11 -17 0 -14 3 -13 11 5 18 37 28 24 11 -15 -60 -146
-198 -345 -217 -314 -4 5 14 39 40 75 48 69 136 237 129 245 -6 5 -1 13 -53
-89 -45 -90 -131 -221 -147 -227 -6 -1 -16 1 -24 6 -12 8 -10 17 15 52 16 23
37 44 46 47 10 2 15 8 12 13 -3 5 7 31 23 57 36 59 65 122 87 190 10 28 21 52
26 52 4 0 10 -18 14 -40z m416 -4 c0 -9 -7 -12 -20 -9 -11 3 -17 9 -14 14 8
14 34 10 34 -5z m-15 -36 c-3 -5 -10 -10 -16 -10 -5 0 -9 5 -9 10 0 6 7 10 16
10 8 0 12 -4 9 -10z m-355 -96 c-41 -85 -158 -259 -167 -250 -2 2 21 39 52 82
31 44 77 121 102 172 25 51 48 90 51 87 3 -3 -14 -44 -38 -91z m368 54 c-5
-34 -38 -37 -38 -4 0 20 5 26 21 26 15 0 20 -5 17 -22z m-103 -43 l110 -2 -2
-32 c-2 -41 -2 -42 -55 -46 l-43 -3 -3 -50 c-2 -27 9 -107 23 -177 14 -70 23
-130 21 -133 -8 -7 -215 9 -221 18 -3 4 6 11 20 14 31 8 31 8 -1 87 l-26 64
18 138 c16 115 21 136 34 130 8 -4 65 -7 125 -8z m709 -64 l79 -80 -163 0
c-148 -1 -240 -12 -302 -36 -15 -6 -18 -1 -18 32 l0 40 67 12 c36 7 81 18 100
26 30 13 32 16 23 41 -14 36 -1 44 75 44 l60 0 79 -79z m-1156 38 c11 -14 10
-17 -5 -15 -13 1 -18 -6 -17 -21 0 -14 -5 -23 -15 -24 -11 0 -12 -2 -3 -6 14
-5 17 -33 3 -33 -5 0 -12 -9 -16 -19 -6 -19 -51 -35 -60 -21 -2 4 6 18 18 31
12 13 22 26 22 29 1 7 57 102 59 98 1 -2 7 -10 14 -19z m-649 -33 c52 -28 111
-135 111 -204 l0 -39 -67 -5 c-42 -3 -93 -16 -133 -32 -97 -41 -94 -41 -108
-4 -10 27 -10 35 1 43 8 7 11 27 9 60 -6 92 68 195 141 195 10 0 30 -6 46 -14z
m1388 -93 c0 -68 6 -136 18 -183 9 -41 19 -84 21 -95 4 -19 -45 -48 -207 -123
-22 -10 -90 235 -104 374 l-7 71 94 21 c51 12 113 25 138 30 25 6 45 10 46 11
0 1 1 -47 1 -106z m-1547 64 c0 -2 -10 -23 -21 -48 -13 -26 -22 -65 -23 -96 0
-28 -4 -49 -9 -46 -25 15 16 193 44 193 5 0 9 -1 9 -3z m1024 -60 c46 -124 86
-240 84 -242 -2 -1 -34 -12 -73 -25 -38 -12 -96 -35 -129 -51 -33 -16 -63 -26
-66 -22 -4 4 -13 26 -20 48 -7 22 -26 66 -42 99 -16 32 -27 61 -24 64 3 3 6 1
6 -4 0 -6 7 -19 16 -30 15 -19 15 -18 11 4 -8 33 2 27 19 -14 17 -41 30 -41
14 0 -8 21 -7 27 2 24 7 -3 16 -18 20 -36 5 -17 13 -34 20 -38 11 -7 11 -6
-10 63 -7 20 -7 35 -1 38 5 4 12 -2 15 -12 3 -10 10 -27 15 -38 8 -16 9 -14 4
10 -2 17 -7 40 -11 53 -4 12 -2 22 4 22 5 0 13 -12 17 -27 4 -16 10 -22 12
-15 3 7 0 25 -5 41 -16 44 3 62 21 20 10 -21 16 -27 16 -16 1 10 -4 28 -10 39
-8 15 -8 23 0 31 9 9 13 6 17 -11 4 -12 11 -22 16 -22 6 0 7 7 4 16 -15 39
-18 64 -7 64 6 0 11 -7 11 -15 0 -8 4 -15 9 -15 4 0 6 11 3 25 -8 42 25 20 42
-28z m-1084 -1 c-5 -15 -10 -56 -10 -91 0 -46 -4 -64 -15 -68 -8 -4 -17 -2
-21 4 -9 16 5 99 27 148 20 47 37 52 19 7z m760 24 c0 -5 -4 -10 -10 -10 -5 0
-10 5 -10 10 0 6 5 10 10 10 6 0 10 -4 10 -10z m-790 -12 c0 -2 -7 -25 -15
-52 -8 -27 -15 -71 -15 -98 0 -35 -4 -48 -12 -46 -7 3 -14 17 -16 32 -4 32 36
166 49 166 5 0 9 -1 9 -2z m760 -27 c0 -5 -7 -14 -15 -21 -12 -10 -15 -10 -15
2 0 8 3 18 7 21 9 10 23 9 23 -2z m1198 -33 l3 -38 -88 0 c-126 0 -224 11
-220 24 8 23 163 55 252 52 l50 -1 3 -37z m-1161 -5 c-8 -7 -37 9 -31 19 3 5
12 4 20 -3 8 -6 13 -14 11 -16z m-859 -8 c2 -26 -12 -42 -23 -25 -5 8 10 50
18 50 2 0 4 -11 5 -25z m752 5 c0 -5 -4 -10 -9 -10 -6 0 -13 5 -16 10 -3 6 1
10 9 10 9 0 16 -4 16 -10z m80 -34 c0 -8 -35 -7 -43 1 -4 3 -2 12 4 19 9 11
13 11 25 -1 8 -7 14 -16 14 -19z m-920 -25 c-6 -12 -7 -21 -1 -21 5 0 7 -9 4
-20 -4 -15 0 -20 13 -21 11 0 3 -7 -18 -16 -29 -11 -38 -21 -38 -39 0 -24 0
-24 31 -9 17 9 34 13 37 10 7 -6 -21 -33 -80 -76 l-28 -20 0 23 c0 51 41 166
73 206 15 19 20 7 7 -17z m1830 5 c0 -8 -4 -18 -10 -21 -5 -3 -10 3 -10 14 0
12 5 21 10 21 6 0 10 -6 10 -14z m157 -11 c-8 -17 -13 -20 -15 -10 -2 8 -7 15
-12 15 -5 0 -7 -7 -4 -15 5 -11 -1 -15 -20 -15 -21 0 -26 5 -26 25 0 23 4 25
44 25 43 0 44 0 33 -25z m131 3 c-4 -30 -38 -37 -38 -9 0 14 -6 21 -20 21 -22
0 -28 -26 -7 -33 6 -2 9 -8 5 -12 -14 -14 -38 5 -38 30 0 23 3 25 51 25 46 0
50 -2 47 -22z m-2038 -2 c0 -3 -4 -8 -10 -11 -5 -3 -10 -1 -10 4 0 6 5 11 10
11 6 0 10 -2 10 -4z m1900 -42 c134 -7 144 -11 117 -48 -12 -16 -19 -16 -137
-1 -69 10 -131 23 -139 30 -16 15 -5 39 15 31 7 -3 72 -8 144 -12z m-1890 -34
c0 -5 -9 -14 -19 -20 -22 -11 -31 2 -23 32 3 14 8 15 23 7 10 -5 19 -14 19
-19z m1879 -25 c57 -8 107 -17 109 -20 3 -3 1 -10 -5 -16 -8 -8 -36 -8 -100 0
-125 16 -143 21 -143 37 0 17 9 17 139 -1z m216 -39 c24 -19 54 -37 65 -41 35
-11 22 -21 -52 -43 -68 -19 -258 -41 -258 -30 0 13 82 58 105 58 16 0 25 6 25
16 0 14 51 74 64 74 3 0 26 -15 51 -34z m-217 -8 c78 -10 95 -19 71 -34 -16
-9 -165 16 -186 32 -17 12 -16 13 7 14 14 0 62 -5 108 -12z m-419 -44 c20 -6
9 -14 -84 -64 -44 -24 -94 -54 -111 -66 -26 -20 -35 -22 -64 -14 -18 5 -73 13
-122 16 -64 5 -86 10 -78 18 6 6 54 36 108 68 l97 56 120 -5 c66 -2 126 -7
134 -9z m384 1 c20 -3 37 -9 37 -13 0 -4 -20 -19 -44 -35 -24 -15 -64 -45 -89
-67 l-45 -40 -63 22 c-34 13 -64 28 -66 33 -2 6 32 28 74 48 43 21 89 44 103
51 14 8 32 13 40 11 8 -2 32 -6 53 -10z m-1682 -72 c27 -20 49 -38 49 -39 0
-1 -15 -32 -33 -69 -20 -40 -37 -63 -41 -57 -4 7 -1 12 6 12 8 1 6 6 -6 15
-11 8 -29 15 -40 15 -19 -1 -19 -2 4 -15 22 -13 23 -14 5 -15 -18 0 -18 -2 5
-20 l25 -20 -28 10 c-42 15 -48 13 -37 -15 8 -21 7 -25 -10 -25 -24 0 -27 -28
-4 -37 11 -4 23 1 32 13 35 45 0 -20 -49 -91 -62 -90 -77 -104 -90 -84 -12 19
-5 35 15 31 30 -5 16 14 -20 27 -42 15 -50 11 -34 -19 24 -45 -11 -67 -46 -29
-19 21 -19 21 22 58 78 69 145 173 194 303 11 29 20 61 20 71 0 24 6 22 61
-20z m1327 19 c2 -7 -7 -12 -22 -12 -27 0 -35 15 -13 23 17 7 30 3 35 -11z
m30 -52 c33 -19 187 -67 200 -63 7 3 12 -5 12 -21 0 -21 -5 -26 -24 -26 -14 0
-28 -4 -31 -10 -4 -6 7 -10 24 -10 24 0 31 -4 31 -20 0 -17 -7 -20 -40 -20
-31 0 -40 4 -41 18 0 10 -3 12 -6 5 -7 -18 -23 -16 -23 2 0 8 8 15 18 16 52 3
-47 17 -133 19 -55 1 -92 4 -82 7 19 5 21 12 8 31 -6 11 -10 10 -15 -4 -6 -16
-9 -16 -17 -4 -9 12 -10 10 -6 -7 4 -17 -1 -23 -22 -27 -25 -5 -152 -18 -168
-17 -9 0 -27 70 -21 77 3 2 17 0 32 -6 23 -8 32 -6 61 18 25 20 54 30 107 38
97 15 115 16 136 4z m302 -40 c4 -3 10 -42 13 -87 l5 -81 -41 -11 c-23 -5 -43
-8 -46 -6 -7 8 -7 175 1 175 4 0 9 -15 10 -32 1 -25 3 -21 8 17 5 34 7 40 9
20 1 -23 3 -27 11 -15 5 8 10 26 11 40 1 21 2 22 6 5 3 -11 9 -22 13 -25z
m-1562 4 c8 -5 -103 -207 -116 -211 -27 -11 -38 15 -19 45 10 15 37 64 59 109
36 70 44 80 58 70 8 -6 17 -12 18 -13z m38 -27 c20 -53 -216 -436 -268 -437
-25 0 -22 26 7 64 52 69 168 254 198 318 31 65 52 83 63 55z m40 -21 c3 -8 11
-13 19 -10 25 10 23 -25 -9 -103 -41 -102 -99 -200 -170 -285 -52 -62 -76 -81
-76 -60 0 5 22 34 49 65 91 104 193 292 190 349 -2 22 -2 21 -6 -2 -22 -117
-233 -427 -273 -400 -17 11 -20 7 65 117 81 105 140 204 170 291 19 53 31 64
41 38z m1213 -45 c19 -12 6 -41 -19 -41 -13 0 -20 7 -20 18 0 31 14 39 39 23z
m-141 -23 c-3 -26 -36 -37 -49 -16 -17 25 -9 38 22 38 26 0 30 -3 27 -22z m80
15 c-21 -5 -24 -23 -5 -23 8 0 7 -3 -3 -10 -11 -7 -17 -5 -21 8 -9 23 -2 32
24 31 17 -1 18 -2 5 -6z m102 -13 c0 -11 -4 -20 -10 -20 -5 0 -10 9 -10 20 0
11 5 20 10 20 6 0 10 -9 10 -20z m-310 -14 c0 -15 -7 -26 -17 -29 -14 -4 -13
-5 4 -6 46 -2 36 -35 -13 -45 -36 -8 -55 16 -26 33 15 9 15 10 1 11 -20 0 -33
41 -16 52 7 4 24 8 40 8 22 0 27 -4 27 -24z m40 20 c0 -2 3 -11 6 -20 4 -10 1
-16 -9 -16 -8 0 -17 9 -20 20 -3 13 0 20 9 20 8 0 14 -2 14 -4z m270 -40 c0
-2 3 -11 6 -20 4 -11 0 -16 -14 -16 -20 0 -36 23 -25 34 7 7 33 8 33 2z m60
-15 c0 -11 -4 -23 -10 -26 -6 -4 -10 5 -10 19 0 14 5 26 10 26 6 0 10 -9 10
-19z m-270 -13 c0 -16 -3 -19 -11 -11 -6 6 -8 16 -5 22 11 17 16 13 16 -11z
m67 6 c2 -6 -8 -14 -22 -16 -24 -5 -34 9 -18 26 10 10 36 3 40 -10z m43 0 c0
-8 -4 -12 -10 -9 -5 3 -10 10 -10 16 0 5 5 9 10 9 6 0 10 -7 10 -16z m240 -4
c0 -11 -6 -20 -14 -20 -9 0 -12 7 -9 20 3 11 9 20 14 20 5 0 9 -9 9 -20z m295
0 l30 -12 -23 -18 c-22 -18 -24 -18 -89 1 -37 10 -74 26 -83 35 -14 15 -9 16
60 11 41 -3 89 -11 105 -17z m-1308 -6 c10 -26 -13 -58 -51 -72 -42 -16 -51
-12 -42 16 18 57 78 93 93 56z m613 -5 c0 -5 -4 -9 -10 -9 -5 0 -10 7 -10 16
0 8 5 12 10 9 6 -3 10 -10 10 -16z m397 -33 c4 -3 2 -11 -4 -17 -14 -14 -156
-2 -147 12 3 5 1 9 -5 9 -5 0 -11 -5 -13 -12 -5 -14 -28 -2 -28 15 0 9 24 11
95 6 53 -3 98 -9 102 -13z m218 -2 c49 -14 109 -36 134 -49 l46 -23 -30 -11
c-30 -11 -93 -43 -152 -77 l-32 -19 -90 44 c-88 44 -90 45 -85 75 12 71 14 75
42 79 58 9 81 6 167 -19z m-600 -13 c-9 -16 -25 -3 -18 15 4 10 9 12 15 6 6
-6 7 -15 3 -21z m32 7 c-3 -8 -6 -5 -6 6 -1 11 2 17 5 13 3 -3 4 -12 1 -19z
m83 7 c11 -13 8 -15 -14 -13 -37 3 -58 28 -23 28 13 0 30 -7 37 -15z m-234
-101 c30 8 161 25 189 26 11 0 -20 -23 -70 -51 l-90 -51 -95 5 c-95 5 -190 23
-190 37 0 4 51 37 113 73 l112 67 3 -56 c3 -54 4 -56 28 -50z m74 97 c0 -13
-22 -29 -53 -36 -21 -6 -27 -4 -27 8 0 9 8 21 18 26 21 13 62 14 62 2z m-1182
-20 c3 -8 -1 -12 -9 -9 -7 2 -15 10 -17 17 -3 8 1 12 9 9 7 -2 15 -10 17 -17z
m1485 -7 c76 -4 117 -10 117 -18 0 -8 -40 -10 -137 -8 -122 3 -311 -10 -349
-25 -8 -3 -14 1 -14 10 0 10 12 18 33 22 17 3 52 9 77 14 59 11 128 12 273 5z
m-859 -36 c3 -17 9 -69 13 -115 l6 -83 38 0 c57 0 76 -48 44 -110 -18 -35 -31
-38 -38 -10 -5 18 -8 19 -30 9 -52 -23 -76 19 -41 70 9 13 13 26 8 30 -5 3
-15 17 -21 31 -10 23 -11 22 -11 -20 0 -25 -3 -60 -7 -78 -5 -23 -3 -38 8 -50
8 -9 17 -42 19 -72 3 -51 1 -55 -19 -58 -20 -3 -23 1 -24 35 -1 21 -5 52 -9
68 -5 18 -6 0 -3 -42 4 -51 2 -73 -6 -74 -6 -1 -17 -2 -23 -3 -8 -1 -15 18
-19 49 l-6 50 -1 -57 c-2 -44 -6 -58 -17 -58 -8 0 -18 0 -22 0 -5 0 -11 21
-14 47 l-6 48 -1 -57 c-2 -53 -3 -57 -33 -67 -18 -6 -35 -11 -39 -11 -4 0 -10
61 -13 136 -6 112 -4 139 8 157 29 42 13 101 -30 109 -13 2 -21 12 -23 29 -3
22 2 29 28 37 36 13 40 7 64 -105 8 -37 15 -56 15 -41 1 15 -6 57 -14 94 -9
36 -15 68 -13 69 2 2 12 5 23 7 17 3 22 -9 41 -87 13 -49 23 -81 23 -70 0 11
-6 47 -14 80 -19 78 -19 93 3 97 11 3 21 -6 30 -27 l12 -30 -5 37 c-5 31 -2
37 16 43 28 9 35 1 52 -75 8 -36 16 -56 16 -45 0 11 -6 45 -14 75 -11 42 -12
56 -2 62 26 16 45 8 51 -24z m-653 12 c13 0 11 -12 -6 -35 -14 -17 -17 -18
-30 -4 -19 19 -9 53 12 45 8 -3 19 -6 24 -6z m749 -42 c0 -34 -25 -98 -38 -98
-10 0 -22 56 -22 102 0 31 28 52 47 36 7 -6 13 -24 13 -40z m786 10 c3 -4 11
-5 19 -1 11 3 15 -2 15 -18 0 -22 0 -22 15 -3 14 19 14 18 15 -3 0 -27 17 -31
23 -5 3 9 6 -1 7 -23 l2 -40 12 33 c6 18 14 31 17 28 2 -3 1 -49 -3 -103 -5
-56 -4 -151 1 -223 6 -68 9 -126 7 -128 -2 -2 -72 -6 -154 -9 l-150 -6 -7 128
c-4 70 -5 173 -2 229 4 55 7 109 7 119 0 10 10 22 23 27 25 11 146 9 153 -2z
m-1586 -62 c0 -5 -7 -3 -15 4 -8 7 -15 20 -15 28 0 13 3 12 15 -4 8 -10 15
-23 15 -28z m-89 -23 c40 -105 79 -319 78 -423 -1 -87 -6 -75 -38 90 -23 115
-21 81 3 -74 8 -54 13 -103 10 -107 -13 -22 -22 -4 -29 59 -8 79 -60 320 -70
330 -4 4 -5 -4 -3 -18 3 -14 17 -79 32 -145 32 -150 38 -258 15 -263 -13 -2
-18 14 -28 100 -12 107 -38 247 -66 356 -23 90 -2 102 29 17 8 -22 15 -33 15
-24 1 9 -6 33 -14 52 -10 26 -12 38 -4 43 6 3 15 0 20 -7 9 -14 43 -120 55
-172 3 -15 8 -26 11 -24 5 5 -21 108 -43 174 -15 43 -12 63 7 63 5 0 14 -12
20 -27z m66 -17 c-18 -26 -41 -27 -45 -2 -5 26 26 50 45 34 11 -9 11 -14 0
-32z m1366 -21 c19 -63 35 -153 47 -275 12 -117 12 -130 2 -130 -5 0 -16 75
-25 168 -10 92 -26 197 -37 232 -23 74 -23 77 -11 65 5 -6 15 -32 24 -60z
m405 17 c3 61 22 56 22 -6 0 -32 4 -56 10 -56 6 0 10 6 9 13 -4 35 2 77 12 77
8 0 10 -16 6 -50 -4 -29 -2 -50 3 -50 6 0 10 18 10 40 0 23 5 40 11 40 7 0 10
-15 7 -40 -2 -22 0 -40 4 -40 5 0 8 14 8 30 0 17 5 30 10 30 6 0 10 -9 10 -21
0 -27 20 -14 21 14 l0 22 9 -22 c6 -15 3 -77 -8 -173 l-16 -149 -41 -7 c-23
-3 -54 -4 -71 -2 -27 3 -30 7 -36 53 -9 70 -10 276 -1 316 l8 34 6 -45 c6 -44
6 -44 7 -8z m-412 -100 c20 -103 31 -312 16 -312 -15 0 -21 29 -25 115 -3 67
-3 67 -5 -17 -1 -49 -6 -88 -10 -88 -5 0 -16 77 -26 171 -10 95 -22 183 -27
196 -5 13 -9 29 -9 35 0 15 31 -12 41 -37 5 -13 6 -2 3 30 l-4 50 15 -33 c9
-18 22 -68 31 -110z m628 86 c18 -193 25 -282 22 -286 -3 -2 -23 -6 -45 -9
l-41 -6 0 36 c0 35 25 233 36 290 9 43 22 31 28 -25z m-844 -13 c5 -14 14 -25
20 -25 17 0 11 -18 -7 -24 -10 -2 0 -4 21 -3 38 2 40 0 47 -33 5 -21 4 -39 -3
-45 -6 -7 -9 -4 -6 10 2 12 -3 21 -14 23 -23 4 -24 -34 -3 -58 13 -15 14 -19
1 -29 -14 -12 -11 -51 5 -51 5 0 9 -8 9 -18 0 -10 5 -23 12 -30 8 -8 5 -14
-16 -22 -39 -14 -31 -43 14 -51 33 -6 32 -6 -12 -8 l-48 -1 0 78 c0 76 -26
210 -54 277 -14 33 -14 35 5 35 12 0 23 -10 29 -25z m90 10 c0 -21 20 -19 21
3 0 12 3 10 10 -8 11 -28 34 -184 43 -302 6 -72 5 -78 -12 -78 -17 0 -20 11
-25 98 -4 53 -18 141 -32 195 -29 112 -28 107 -15 107 6 0 10 -7 10 -15z
m-1407 -52 c32 -120 41 -184 26 -194 -20 -12 -25 -2 -39 86 -7 44 -19 97 -27
119 -16 48 -17 46 5 46 14 0 23 -14 35 -57z m1377 38 c13 -26 13 -31 -5 -31
-9 0 -12 6 -8 16 3 9 0 20 -8 25 -9 6 -10 9 -2 9 7 0 17 -9 23 -19z m-1418
-70 c42 -182 74 -426 57 -436 -17 -11 -23 4 -25 63 -2 91 -3 92 -33 73 -10 -7
-11 -13 -2 -30 9 -16 9 -21 -1 -21 -27 1 -46 48 -62 159 -9 62 -27 144 -40
183 -25 71 -25 71 19 81 59 14 69 6 87 -72z m677 61 c10 -19 -9 -69 -31 -83
-8 -5 -7 -16 1 -39 6 -18 11 -86 11 -151 0 -82 4 -119 11 -119 7 0 19 -9 29
-20 17 -20 18 -20 90 10 108 45 108 20 -1 -45 -52 -32 -129 -117 -129 -142 0
-11 -48 -59 -53 -52 -2 2 -15 24 -31 48 -15 24 -46 63 -67 86 l-39 42 45 67
c55 83 63 121 41 206 -24 94 -22 105 30 160 49 53 77 62 93 32z m295 -188 c12
-31 7 -94 -8 -94 -13 0 -26 41 -26 86 0 27 24 33 34 8z m496 1 c0 -8 -4 -15
-10 -15 -5 0 -7 7 -4 15 4 8 8 15 10 15 2 0 4 -7 4 -15z m-1527 -192 c53 -65
144 -209 188 -294 15 -31 18 -44 9 -53 -8 -8 -13 -7 -19 3 -5 8 -40 65 -77
128 -38 63 -97 149 -130 191 -34 43 -60 80 -57 85 11 19 37 2 86 -60z m158 48
c1 -3 3 -21 5 -38 2 -26 -2 -33 -16 -33 -13 0 -19 10 -23 38 -2 20 -2 40 0 44
4 8 32 -1 34 -11z m1267 -18 c3 -21 9 -23 60 -23 114 0 102 -30 -19 -49 -42
-7 -105 -21 -140 -31 -34 -11 -65 -18 -66 -16 -2 2 15 26 38 52 22 27 50 59
60 72 25 29 63 26 67 -5z m850 -8 c67 -16 122 -31 122 -35 0 -17 -43 -59 -95
-95 l-56 -39 -75 22 c-91 27 -217 52 -261 52 -18 0 -33 4 -33 9 0 14 114 81
138 81 12 0 25 6 29 14 18 32 56 30 231 -9z m-2300 -71 c57 -75 192 -294 192
-312 0 -33 -24 -12 -75 69 -32 50 -76 115 -99 144 -99 131 -108 145 -102 161
10 25 28 12 84 -62z m827 56 c-3 -5 -14 -10 -23 -9 -14 0 -13 2 3 9 27 11 27
11 20 0z m1145 6 c0 -2 -17 -15 -37 -27 -20 -13 -62 -44 -94 -70 -53 -45 -59
-48 -91 -38 -41 12 -167 15 -228 5 l-45 -7 35 31 c19 17 55 43 80 58 38 24 52
27 90 21 46 -7 54 -5 56 12 1 5 2 11 3 14 1 6 231 7 231 1z m-1993 -128 c144
-191 201 -294 168 -304 -5 -2 -29 27 -52 64 -23 37 -77 114 -120 171 -43 57
-82 110 -87 117 -8 10 7 44 19 44 1 0 34 -42 72 -92z m209 59 c12 5 15 -1 12
-28 -2 -23 -9 -35 -20 -37 -15 -3 -18 4 -17 45 1 26 3 40 6 31 2 -10 10 -15
19 -11z m1324 -12 c-7 -8 -16 -12 -21 -9 -13 8 -1 24 18 24 13 0 13 -3 3 -15z
m-1546 -121 c112 -148 168 -241 161 -265 -4 -10 -10 -19 -15 -19 -15 0 -40 43
-40 70 0 47 -11 70 -34 70 -24 0 -66 48 -66 75 0 28 -20 55 -40 55 -27 0 -83
74 -75 100 3 11 12 20 18 20 7 0 48 -48 91 -106z m2016 79 c0 -15 1 -15 13 2
20 26 27 7 17 -45 -5 -25 -9 -102 -10 -172 0 -71 -4 -128 -8 -128 -17 0 -22
13 -10 27 17 21 4 25 -30 7 -32 -16 -38 -29 -24 -52 7 -10 15 -10 36 -2 33 12
36 12 36 2 0 -5 -18 -16 -40 -25 l-40 -15 -8 26 c-4 15 -7 83 -6 152 0 105 4
134 23 183 21 54 51 78 51 40z m84 -28 c8 -30 -8 -65 -29 -65 -17 0 -20 36 -5
75 11 30 25 26 34 -10z m47 -45 c-10 -58 -6 -82 4 -34 11 49 14 56 25 49 5 -3
10 -20 10 -36 0 -18 4 -28 10 -24 6 4 10 -17 10 -57 0 -35 3 -81 6 -103 5 -28
3 -37 -4 -30 -6 6 -13 44 -15 85 l-3 75 -2 -87 c-1 -51 -6 -88 -12 -88 -5 0
-13 0 -17 0 -5 0 -11 39 -14 87 l-5 88 -2 -98 c-2 -74 -5 -98 -14 -95 -15 5
-28 107 -15 115 4 2 3 10 -2 17 -5 6 -8 25 -6 41 2 17 6 52 9 78 3 26 11 57
17 68 18 35 29 8 20 -51z m-512 10 l11 -35 -4 43 c-4 44 10 59 18 20 3 -13 7
-32 9 -43 3 -11 5 0 6 24 1 49 9 49 21 -1 l8 -33 1 38 c1 45 21 41 21 -4 0
-16 4 -29 10 -29 5 0 7 13 4 30 -4 19 -2 30 5 30 6 0 11 -11 11 -25 0 -14 5
-25 11 -25 6 0 9 7 6 15 -4 8 -2 17 3 20 6 4 11 -2 11 -12 1 -17 2 -17 6 0 2
9 9 15 14 11 6 -3 17 0 25 7 8 6 18 9 22 5 18 -19 14 -323 -6 -351 -4 -7 -52
-9 -130 -7 -110 4 -123 6 -116 21 13 31 17 239 5 286 -19 74 6 87 28 15z m-48
3 c15 -44 18 -218 5 -248 -7 -15 -12 5 -21 80 -7 55 -16 124 -20 153 -6 43 -5
52 8 52 9 0 21 -16 28 -37z m-1669 -64 c-21 -37 -32 -37 -32 0 0 16 -3 44 -6
62 l-5 34 29 -33 c29 -33 30 -35 14 -63z m-62 66 c19 -23 15 -86 -9 -132 -23
-45 -27 -73 -11 -73 19 0 52 42 76 96 18 40 29 54 44 54 45 0 43 -93 -4 -155
-52 -68 0 -71 71 -3 22 22 46 37 52 34 6 -4 11 -26 11 -48 0 -37 -6 -47 -46
-85 l-46 -43 16 -49 c9 -27 16 -69 16 -93 0 -41 -5 -48 -110 -157 -61 -62
-118 -127 -127 -142 -10 -16 -23 -29 -29 -29 -20 0 -52 62 -71 134 l-18 66 40
38 c23 20 58 59 80 85 l39 49 -42 83 c-47 91 -53 137 -26 201 9 21 20 66 25
99 10 74 40 104 69 70z m2230 -70 c0 -8 -6 -15 -14 -15 -20 0 -29 17 -14 23
22 9 28 7 28 -8z m0 -45 c0 -5 -9 -10 -20 -10 -11 0 -20 5 -20 10 0 6 9 10 20
10 11 0 20 -4 20 -10z m-2210 -29 c-16 -31 -32 -36 -18 -7 6 14 15 26 20 26 5
0 4 -9 -2 -19z m160 -25 c0 -17 -48 -61 -57 -53 -3 4 2 25 12 47 14 32 21 38
32 29 7 -6 13 -17 13 -23z m2048 7 c-5 -26 -38 -29 -38 -4 0 15 6 21 21 21 14
0 19 -5 17 -17z m-528 -63 c0 -28 -34 -44 -60 -28 -26 17 -25 27 3 38 37 15
57 12 57 -10z m757 -21 c35 -23 63 -44 63 -48 0 -4 -46 -13 -102 -19 -66 -8
-138 -25 -203 -48 -55 -19 -109 -38 -120 -40 -26 -7 -124 34 -107 45 7 4 18
27 25 52 10 33 18 45 35 47 17 3 22 -2 22 -21 0 -25 19 -87 26 -87 3 0 17 6
32 14 15 7 65 26 112 41 141 44 142 45 136 70 -5 20 0 35 12 35 3 0 34 -19 69
-41z m-2752 -26 c9 -21 29 -51 44 -68 23 -24 28 -37 24 -62 l-5 -32 -46 35
c-26 20 -59 38 -74 41 l-27 5 20 40 c11 21 17 44 13 49 -6 11 12 29 28 29 4 0
15 -17 23 -37z m2003 -9 c20 -6 22 -11 17 -36 l-7 -30 85 4 c46 3 95 0 108 -5
22 -8 17 -11 -45 -32 -49 -17 -74 -21 -87 -15 -27 15 -180 50 -216 50 -53 0
-38 15 40 43 85 30 76 28 105 21z m532 -3 c0 -5 -9 -11 -20 -14 -13 -3 -20 0
-20 9 0 8 9 14 20 14 11 0 20 -4 20 -9z m-2015 -61 c2 0 15 4 29 10 30 11 31
6 7 -39 l-18 -34 -22 37 c-13 21 -19 41 -14 48 5 10 8 8 11 -4 2 -10 5 -18 7
-18z m2167 -107 l5 -103 -54 -30 c-29 -17 -72 -47 -94 -67 -32 -29 -42 -34
-49 -23 -11 18 -22 160 -18 230 3 60 19 73 29 25 6 -29 7 -29 8 8 1 43 18 50
24 10 4 -26 4 -26 6 5 1 39 18 43 24 5 4 -26 4 -26 6 5 1 37 17 43 24 10 4
-20 4 -19 6 5 1 31 21 38 21 7 0 -11 5 -20 11 -20 6 0 8 9 4 20 -3 11 -2 20 4
20 5 0 12 -8 14 -17 3 -13 5 -10 6 7 1 14 5 20 10 15 5 -6 11 -56 13 -112z
m-731 27 c1 -19 3 -17 8 10 l7 35 9 -45 9 -45 6 45 6 45 7 -35 c4 -19 8 -46
10 -60 3 -14 5 -1 6 28 1 65 21 61 21 -4 0 -24 3 -44 8 -44 4 0 5 21 3 46 -2
32 0 44 8 40 6 -4 11 -22 11 -39 0 -18 5 -39 10 -47 7 -11 10 -4 10 27 0 23 5
45 10 48 6 4 10 -6 10 -24 0 -16 4 -33 10 -36 6 -3 9 9 7 31 -2 44 20 59 26
17 4 -27 4 -27 6 5 1 32 15 43 24 20 3 -8 6 -6 6 5 1 10 7 17 14 16 6 -1 20 1
29 5 10 5 45 -3 87 -20 l71 -28 0 -71 c0 -73 -13 -129 -35 -153 -17 -18 -288
-18 -380 0 -79 16 -78 14 -50 108 11 36 15 76 11 114 -3 38 -1 54 5 45 5 -8 9
-25 10 -39z m-2007 -23 c12 12 5 -12 -9 -31 -17 -23 -35 -13 -35 20 0 21 3 23
19 15 10 -6 21 -7 25 -4z m-77 -39 c-3 -8 -6 -5 -6 6 -1 11 2 17 5 13 3 -3 4
-12 1 -19z m2033 -60 c0 -4 -37 -24 -82 -46 -144 -67 -143 -67 -193 -47 -25 9
-45 20 -45 24 0 4 17 13 38 19 20 6 73 29 116 50 80 38 80 38 123 23 24 -9 43
-19 43 -23z m-1910 9 c0 -56 -109 -71 -110 -14 0 4 5 7 11 7 5 0 7 -5 3 -11
-4 -7 1 -9 15 -5 11 3 30 9 41 12 11 3 20 10 20 15 0 5 5 9 10 9 6 0 10 -6 10
-13z m2931 -87 l-75 -70 -70 0 -71 1 -38 44 -37 44 22 15 c15 11 37 14 77 10
31 -2 97 2 146 9 50 8 97 15 105 15 8 1 -18 -30 -59 -68z m-1034 22 c-8 -42 3
-52 74 -63 35 -6 66 -12 68 -15 12 -12 -43 -63 -110 -102 -86 -50 -103 -50
-218 -3 -83 34 -124 58 -119 72 2 6 33 20 68 33 36 13 103 41 150 64 47 22 87
41 89 41 2 1 1 -12 -2 -27z m-1917 -39 c0 -7 -4 -13 -10 -13 -5 0 -10 12 -10
28 0 21 2 24 10 12 5 -8 10 -21 10 -27z m2501 -19 c11 -56 17 -57 71 -9 57 51
75 55 105 23 35 -39 93 -136 99 -168 6 -29 5 -30 -27 -30 -19 0 -77 -6 -129
-14 -52 -8 -129 -17 -172 -21 l-76 -7 5 102 c5 91 9 104 32 131 20 23 33 29
56 27 24 -2 30 -9 36 -34z m-131 -54 c0 -17 -6 -32 -12 -34 -30 -9 -318 -48
-327 -45 -6 2 3 27 19 57 l30 52 145 0 145 0 0 -30z m-10 -64 c0 -2 -11 -34
-25 -70 -31 -83 -55 -237 -55 -356 l0 -91 -47 3 c-44 3 -48 5 -54 33 -15 67
-9 249 10 320 22 84 47 146 64 157 12 8 107 11 107 4z m-143 -28 c-3 -8 -6 -5
-6 6 -1 11 2 17 5 13 3 -3 4 -12 1 -19z m-240 -39 c-3 -22 -1 -37 4 -33 5 3 9
16 9 30 0 31 30 33 31 2 1 -22 1 -22 8 1 10 38 31 38 33 -1 l1 -33 4 33 c6 44
21 41 26 -5 l4 -38 1 43 c2 52 21 56 23 5 l2 -38 6 39 c9 59 31 58 33 -1 l2
-48 3 48 c3 33 8 47 19 47 20 0 18 -36 -7 -133 -13 -54 -21 -118 -22 -191 l-2
-111 -92 -3 -93 -3 0 155 c0 85 -5 178 -11 206 -12 54 -6 86 12 74 7 -4 9 -22
6 -45z m-193 21 c19 -7 26 -17 26 -35 0 -20 -5 -25 -27 -26 l-28 -1 33 -14
c34 -15 35 -34 2 -34 -25 0 -15 -28 14 -40 18 -8 17 -9 -11 -9 -25 -1 -31 -5
-26 -17 3 -8 12 -13 19 -10 7 3 16 1 20 -5 3 -6 -4 -13 -16 -16 -13 -3 -19
-11 -16 -19 3 -8 1 -14 -4 -14 -6 0 -10 -9 -10 -19 0 -11 -6 -22 -12 -25 -10
-3 -8 -8 4 -15 18 -12 13 -54 -6 -48 -6 2 -10 26 -10 58 6 227 10 299 16 299
4 0 18 -4 32 -10z m66 -30 c6 -12 9 -68 8 -137 -2 -95 -6 -118 -18 -121 -13
-2 -15 18 -15 138 0 77 3 140 7 140 4 0 12 -9 18 -20z m73 -187 c0 -124 -4
-198 -12 -217 -20 -48 -24 -22 -10 74 7 57 10 140 6 222 -4 95 -3 128 5 120 8
-8 11 -76 11 -199z m-29 35 c1 -176 -9 -258 -31 -258 -12 0 -14 7 -9 33 15 74
26 238 20 312 -5 64 -4 78 6 68 9 -8 13 -54 14 -155z m60 -43 c1 -165 -9 -264
-24 -249 -6 6 -5 38 2 79 6 42 8 132 5 225 -4 114 -3 148 5 130 6 -14 11 -96
12 -185z m414 127 c-2 -9 -12 -16 -21 -16 -14 2 -15 -1 -6 -12 8 -10 8 -14 0
-14 -6 0 -10 -3 -9 -7 1 -5 -3 -18 -10 -30 -9 -16 -9 -23 -2 -23 7 0 9 -8 5
-20 -4 -13 -2 -20 6 -20 10 0 10 -3 1 -12 -33 -33 -36 57 -6 161 15 52 16 53
30 32 9 -12 14 -29 12 -39z m372 31 c0 15 4 27 9 27 8 0 91 -185 91 -202 0 -4
-18 -17 -40 -28 l-40 -21 -10 27 c-11 29 -40 188 -39 213 0 9 7 3 14 -14 l14
-30 1 28z m-120 -23 c0 -16 5 -32 10 -35 7 -4 8 8 4 34 -4 28 -3 41 5 41 6 0
11 -11 11 -24 0 -14 5 -28 10 -31 6 -3 10 2 10 13 0 10 6 19 14 19 9 0 19 -30
30 -96 10 -53 26 -116 37 -140 10 -24 19 -47 19 -51 0 -4 -19 -15 -42 -24 -24
-10 -69 -33 -100 -52 -32 -19 -62 -33 -67 -29 -5 3 -24 42 -41 88 -28 70 -32
90 -27 142 7 75 16 102 28 83 6 -8 9 6 9 37 0 55 16 52 23 -5 3 -30 4 -28 5
13 1 26 6 47 10 47 5 0 14 -21 20 -47 l11 -48 -4 46 c-2 26 -2 49 2 52 11 12
23 -5 23 -33z m-140 13 c0 -5 -6 -39 -14 -78 -19 -97 -29 -171 -21 -164 3 4
11 38 16 75 11 78 40 184 46 168 2 -6 -3 -37 -12 -69 -16 -62 -18 -179 -6
-278 7 -55 0 -80 -15 -56 -3 6 -10 34 -14 63 l-8 51 -1 -57 c-1 -43 -5 -58
-15 -58 -23 0 -29 18 -37 114 l-7 91 1 -100 c1 -80 -2 -100 -13 -100 -8 0 -17
11 -21 25 -11 40 -10 208 1 215 6 4 8 10 5 15 -3 5 1 36 9 70 14 61 26 87 26
59 0 -12 2 -12 10 1 18 28 20 2 5 -61 -8 -35 -14 -77 -14 -94 1 -19 6 -6 15
35 20 98 36 140 51 140 7 0 13 -3 13 -7z m-2266 -130 c18 7 22 -8 5 -18 -12
-8 -59 32 -59 49 0 6 9 0 19 -13 12 -16 24 -22 35 -18z m1499 -112 c-4 -38 -2
-61 6 -65 40 -25 -41 -46 -87 -22 -42 22 -105 83 -98 95 4 5 28 13 54 17 26 4
63 13 82 20 19 7 38 13 42 13 3 1 4 -25 1 -58z m1295 27 c-9 -13 -34 -42 -58
-65 l-42 -43 -82 0 c-78 1 -80 1 -53 16 26 14 27 16 12 37 -22 31 -19 40 18
60 22 11 61 18 122 19 50 2 92 2 94 1 2 -1 -3 -13 -11 -25z m-670 -10 c3 -24
0 -28 -22 -28 -22 0 -26 4 -26 31 0 26 3 30 23 27 16 -2 23 -11 25 -30z m-532
-4 c-3 -9 -6 -22 -6 -30 0 -8 -4 -14 -9 -14 -4 0 -8 13 -7 30 1 18 6 30 15 30
8 0 11 -6 7 -16z m29 -24 c3 -5 1 -10 -4 -10 -6 0 -11 5 -11 10 0 6 2 10 4 10
3 0 8 -4 11 -10z m469 -25 c3 -8 1 -15 -4 -15 -6 0 -10 7 -10 15 0 8 2 15 4
15 2 0 6 -7 10 -15z m-539 -17 c21 -9 35 -28 20 -28 -12 0 -55 24 -55 32 0 11
4 10 35 -4z m75 -33 c0 -8 -4 -16 -9 -19 -12 -8 -34 21 -27 33 9 14 36 2 36
-14z m685 -43 c-9 -9 -25 19 -24 43 0 16 2 15 15 -8 9 -16 13 -32 9 -35z
m-685 -11 c0 -5 -26 -35 -58 -69 -63 -66 -56 -64 -167 -40 -60 13 -148 55
-140 68 3 5 29 14 58 20 28 6 92 23 142 39 l89 29 38 -19 c21 -11 38 -23 38
-28z m329 2 l11 -37 -83 -83 -82 -82 -168 -8 c-92 -4 -167 -5 -167 -1 0 10
120 141 160 174 27 24 33 25 60 14 38 -16 60 -7 60 24 0 27 14 31 137 34 l62
2 10 -37z m171 2 c0 -8 -9 -15 -19 -15 -10 0 -21 7 -25 15 -4 11 1 15 19 15
16 0 25 -6 25 -15z m210 -30 c9 -11 16 -13 24 -5 12 12 166 14 166 2 0 -5 -21
-24 -46 -43 -26 -19 -67 -58 -93 -86 l-46 -53 -55 15 c-62 17 -264 44 -354 47
l-60 3 50 49 c81 79 75 77 210 66 161 -13 174 -13 174 5 0 19 14 19 30 0z
m169 -160 c7 -44 22 -113 33 -153 24 -84 21 -92 -44 -92 -40 0 -38 -7 -53 160
-3 36 -8 79 -11 95 l-5 30 15 -25 c15 -25 15 -25 17 20 l2 45 4 -43 c2 -23 8
-40 12 -37 5 2 6 26 4 52 -9 78 12 37 26 -52z m-2752 50 c8 -21 -3 -30 -20
-17 -8 7 -17 9 -20 5 -4 -3 -7 -1 -7 5 0 10 15 19 33 21 4 1 10 -6 14 -14z
m300 -7 c-3 -8 -6 -5 -6 6 -1 11 2 17 5 13 3 -3 4 -12 1 -19z m1343 -48 c5 0
11 15 13 33 4 31 4 30 7 -8 l3 -40 8 35 c7 33 7 32 6 -12 -2 -43 0 -48 20 -48
12 0 27 -8 32 -17 6 -10 11 -12 11 -5 0 6 4 12 9 12 14 0 33 -129 25 -174 -10
-61 -50 -146 -69 -146 -20 0 -166 56 -189 73 -17 12 -16 17 18 78 43 78 73
162 83 232 7 44 8 47 11 20 2 -18 7 -33 12 -33z m67 18 c-3 -7 -5 -2 -5 12 0
14 2 19 5 13 2 -7 2 -19 0 -25z m523 -15 c0 24 15 21 28 -5 l11 -23 0 23 c1
12 7 22 14 22 8 0 19 -10 25 -22 10 -21 11 -21 11 -3 1 23 17 10 24 -20 4 -15
5 -13 6 8 0 15 5 27 11 27 5 0 12 -12 16 -27 10 -47 12 -49 13 -15 1 40 21 43
21 3 0 -17 5 -33 11 -37 9 -5 10 3 5 30 -4 20 -3 36 2 36 12 0 22 -24 22 -51
0 -10 4 -19 8 -19 5 0 7 14 4 30 -4 25 -1 30 16 30 16 0 24 -10 32 -37 14 -53
32 -256 28 -328 l-3 -60 -60 -12 c-68 -14 -236 -35 -240 -31 -1 2 -5 75 -9
163 -3 88 -11 189 -16 225 -5 36 -10 76 -9 90 0 24 0 24 14 6 13 -17 15 -18
15 -3z m425 -125 l4 -103 -9 80 c-5 44 -11 98 -14 120 -5 30 -3 36 4 23 6 -10
13 -64 15 -120z m-554 -138 c1 -161 -6 -220 -27 -220 -17 0 -17 12 -3 154 8
78 9 139 2 206 -6 52 -7 100 -4 105 13 24 31 -111 32 -245z m448 165 c18 -98
26 -269 13 -261 -7 4 -12 35 -12 79 0 68 -13 177 -26 236 -5 18 -3 23 4 16 6
-5 15 -37 21 -70z m87 -84 c5 -100 4 -132 -5 -127 -6 4 -11 38 -12 84 0 42 -4
102 -8 132 -5 30 -6 59 -3 64 12 21 21 -28 28 -153z m-696 128 c0 -5 -7 -9
-15 -9 -15 0 -20 12 -9 23 8 8 24 -1 24 -14z m40 -1 c0 33 17 27 24 -9 14 -69
1 -316 -20 -381 -3 -10 -14 -18 -24 -18 -18 0 -19 5 -12 48 4 26 7 122 7 214
0 136 2 163 12 145 l12 -22 1 23z m85 -105 c4 -44 2 -115 -4 -163 -19 -146
-20 -150 -41 -150 -11 0 -20 3 -20 8 0 4 5 45 10 92 6 47 10 134 10 193 0 64
5 118 12 130 11 22 12 22 19 -5 4 -14 10 -61 14 -105z m527 92 c4 -16 9 -82
10 -145 4 -147 -15 -161 -23 -18 -6 93 -11 125 -26 181 -4 14 0 18 13 15 10
-1 21 -16 26 -33z m-789 13 c4 -10 8 -10 15 1 8 11 12 10 21 -5 9 -17 10 -17
11 -1 0 9 5 17 10 17 6 0 10 -6 10 -14 0 -7 3 -27 6 -43 5 -24 2 -31 -18 -40
-19 -9 -24 -19 -26 -57 -1 -40 1 -46 18 -46 23 0 27 15 5 24 -21 8 -19 23 5
29 18 5 20 0 20 -41 0 -36 -3 -43 -12 -34 -16 16 -38 15 -38 -2 0 -8 -6 -16
-14 -19 -10 -4 -15 13 -21 76 -3 45 -10 101 -15 125 -5 32 -4 42 5 42 8 0 16
-6 18 -12z m97 -8 c0 -11 5 -20 12 -20 9 0 9 -3 1 -11 -6 -6 -9 -19 -6 -28 4
-11 3 -13 -4 -6 -15 15 -26 85 -13 85 5 0 10 -9 10 -20z m979 -30 c10 -6 3
-15 -28 -35 -46 -31 -57 -27 -67 23 l-7 33 44 -7 c24 -4 50 -10 58 -14z
m-3354 -27 c4 -17 2 -29 -4 -31 -14 -5 -15 -99 -1 -107 6 -4 7 5 4 24 -3 16
-2 37 4 47 7 13 11 4 17 -44 7 -58 24 -95 26 -55 0 10 6 3 14 -17 22 -58 17
-66 -19 -31 -27 26 -41 32 -61 29 -22 -5 -26 -2 -22 13 9 34 -11 20 -23 -15
-10 -33 -40 -69 -40 -49 0 16 59 103 70 103 7 0 8 13 3 38 -8 39 -6 98 3 113
10 17 22 9 29 -18z m2410 -42 c-3 -5 -1 -12 5 -16 15 -9 2 -25 -21 -25 -14 0
-19 7 -19 25 0 19 5 25 21 25 11 0 18 -4 14 -9z m-2368 -88 c-3 -10 -5 -4 -5
12 0 17 2 24 5 18 2 -7 2 -21 0 -30z m2375 5 c-9 -9 -42 -1 -42 12 0 4 12 5
26 2 15 -3 22 -8 16 -14z m-4 -67 c0 -33 -4 -40 -24 -44 -30 -5 -33 -1 -27 40
5 28 14 37 45 42 4 0 7 -17 6 -38z m-68 -2 c0 -7 -10 -9 -25 -5 -30 8 -35 -17
-8 -46 15 -17 15 -18 -10 -16 -24 2 -27 6 -27 40 0 37 1 38 35 38 19 0 35 -5
35 -11z m-2310 -36 c25 -21 25 -30 3 -36 -10 -3 6 -5 35 -6 59 -1 120 -28 195
-85 26 -20 59 -38 74 -42 60 -15 153 -73 153 -96 0 -12 -102 -10 -120 3 -11 8
2 9 50 5 50 -4 59 -2 40 5 -24 10 -82 8 -145 -6 -22 -5 -52 2 -108 24 -44 17
-96 31 -120 31 -28 0 -61 10 -97 30 -30 16 -62 29 -70 29 -8 0 1 -8 20 -18
109 -57 107 -56 83 -59 -19 -3 -23 -10 -23 -38 0 -22 -5 -34 -14 -34 -11 0
-12 8 -5 37 4 21 5 41 1 44 -13 13 -52 20 -52 11 0 -5 9 -12 20 -15 15 -4 20
-14 20 -36 0 -39 -8 -39 -55 2 -37 32 -38 33 -36 102 1 54 6 74 21 90 11 12
20 26 20 32 0 16 42 42 67 42 13 1 32 -7 43 -16z m798 2 c5 -4 -31 -145 -37
-145 -12 0 -81 142 -75 152 5 8 102 2 112 -7z m-1007 -28 c-8 -8 -11 -7 -11 4
0 9 3 19 7 23 4 4 9 2 11 -4 3 -7 -1 -17 -7 -23z m2570 -7 c20 0 7 -20 -13
-21 l-23 0 23 -11 c32 -16 28 -38 -8 -38 -32 0 -33 2 -24 49 5 23 11 30 21 27
8 -4 19 -6 24 -6z m-2596 -9 c3 -5 1 -12 -5 -16 -5 -3 -10 1 -10 9 0 18 6 21
15 7z m2510 -27 c29 -16 24 -29 -12 -32 -29 -3 -33 0 -33 21 0 26 10 42 19 30
3 -5 15 -13 26 -19z m1035 -40 c0 -8 -4 -12 -10 -9 -5 3 -10 13 -10 21 0 8 5
12 10 9 6 -3 10 -13 10 -21z m2 -36 c-9 -9 -15 -9 -24 0 -9 9 -7 12 12 12 19
0 21 -3 12 -12z m-52 -18 c0 -11 -7 -20 -15 -20 -8 0 -15 9 -15 20 0 11 7 20
15 20 8 0 15 -9 15 -20z m38 -28 c2 -15 -2 -22 -12 -22 -11 0 -16 9 -16 26 0
31 23 28 28 -4z m-58 -28 c0 -8 -4 -14 -10 -14 -5 0 -10 9 -10 21 0 11 5 17
10 14 6 -3 10 -13 10 -21z m90 -6 c0 -17 -3 -18 -14 -8 -8 6 -12 18 -9 26 7
19 23 7 23 -18z m-3191 -9 l32 -11 -3 -67 c-4 -79 -22 -88 -26 -13 -2 37 1 52
10 52 9 0 9 3 -2 10 -19 12 -28 -9 -29 -65 -2 -52 -21 -27 -21 28 0 20 -4 37
-9 37 -5 0 -6 -21 -4 -47 4 -34 2 -45 -5 -38 -6 6 -12 33 -14 60 -2 41 -6 49
-20 47 -10 -2 -18 2 -18 8 0 13 69 13 109 -1z m3051 -9 c0 -19 -11 -26 -23
-14 -8 8 3 34 14 34 5 0 9 -9 9 -20z m90 0 c0 -11 -7 -20 -15 -20 -8 0 -15 9
-15 20 0 11 7 20 15 20 8 0 15 -9 15 -20z m-2430 -6 c0 -8 -4 -12 -10 -9 -5 3
-10 10 -10 16 0 5 5 9 10 9 6 0 10 -7 10 -16z m-840 -40 c0 -21 -4 -33 -10
-29 -5 3 -10 19 -10 36 0 16 5 29 10 29 6 0 10 -16 10 -36z m220 -40 c0 -41
-4 -64 -11 -64 -8 0 -10 18 -7 56 4 41 1 57 -9 61 -21 8 -15 22 7 16 17 -5 20
-14 20 -69z m2990 61 c0 -8 -4 -15 -10 -15 -5 0 -10 7 -10 15 0 8 5 15 10 15
6 0 10 -7 10 -15z m108 -13 c3 -19 -1 -23 -15 -20 -10 2 -19 14 -21 26 -3 19
1 23 15 20 10 -2 19 -14 21 -26z m-3278 -28 c0 -21 -4 -33 -10 -29 -5 3 -10
22 -10 41 0 21 4 33 10 29 6 -3 10 -22 10 -41z m220 26 c0 -5 -4 -10 -10 -10
-5 0 -10 5 -10 10 0 6 5 10 10 10 6 0 10 -4 10 -10z m613 -5 c4 -8 2 -17 -3
-20 -6 -4 -10 -4 -10 -1 0 2 -3 11 -6 20 -3 9 -2 16 4 16 5 0 12 -7 15 -15z
m52 -3 c0 -18 -20 -15 -23 4 -3 10 1 15 10 12 7 -3 13 -10 13 -16z m2245 0
c-1 -17 -19 -34 -29 -28 -8 5 -8 13 -1 27 10 18 30 18 30 1z m78 10 c15 -10 5
-45 -12 -39 -13 4 -21 47 -9 47 4 0 14 -4 21 -8z m-3101 -116 c107 -28 258
-41 327 -28 27 6 55 8 62 5 26 -10 12 -67 -28 -120 l-40 -53 -82 0 c-87 1
-118 6 -241 39 -87 23 -193 72 -237 109 -31 27 -38 61 -11 58 18 -1 28 25 19
50 -4 11 -10 12 -25 4 -28 -14 -38 6 -15 29 18 18 22 17 99 -25 44 -24 122
-54 172 -68z m190 32 c-2 -18 -4 -6 -4 27 0 33 2 48 4 33 2 -15 2 -42 0 -60z
m2849 25 c-11 -11 -19 6 -11 24 8 17 8 17 12 0 3 -10 2 -21 -1 -24z m124 0 c0
-20 -21 -26 -36 -11 -8 8 -12 22 -8 31 5 13 9 14 25 4 10 -6 19 -17 19 -24z
m-3050 -18 c0 -25 -4 -45 -10 -45 -5 0 -10 20 -10 45 0 25 5 45 10 45 6 0 10
-20 10 -45z m127 -22 c-2 -16 -4 -5 -4 22 0 28 2 40 4 28 2 -13 2 -35 0 -50z
m519 29 c-10 -10 -29 15 -21 28 6 9 10 8 17 -4 6 -10 7 -20 4 -24z m50 21 c17
-23 17 -33 0 -33 -8 0 -17 7 -20 16 -14 36 -2 46 20 17z m-649 -55 c-2 -13 -4
-3 -4 22 0 25 2 35 4 23 2 -13 2 -33 0 -45z m113 15 c0 -27 -4 -43 -9 -37 -8
8 -4 84 5 84 2 0 4 -21 4 -47z m27 -20 c-2 -16 -4 -5 -4 22 0 28 2 40 4 28 2
-13 2 -35 0 -50z m2788 24 c-4 -8 -13 -13 -21 -10 -15 5 -19 35 -7 47 11 11
34 -19 28 -37z m-2745 -8 c0 -16 -4 -29 -10 -29 -5 0 -10 16 -10 36 0 21 4 33
10 29 6 -3 10 -19 10 -36z m-580 21 c0 -5 -4 -10 -10 -10 -5 0 -10 5 -10 10 0
6 5 10 10 10 6 0 10 -4 10 -10z m980 -26 c0 -14 -12 -19 -23 -8 -9 9 4 35 14
28 5 -3 9 -12 9 -20z m53 -17 c-3 -6 -11 -3 -19 8 -7 10 -11 22 -7 28 3 6 11
3 19 -8 7 -10 11 -22 7 -28z m67 -3 c0 -18 -14 -18 -30 1 -16 19 -3 40 16 24
8 -6 14 -18 14 -25z m60 -5 c0 -11 -4 -19 -9 -19 -16 0 -33 30 -27 46 5 13 9
14 21 4 8 -7 15 -21 15 -31z m2214 18 c7 -11 7 -20 0 -27 -15 -15 -49 13 -41
34 8 20 26 17 41 -7z m-75 -11 c8 -10 9 -16 1 -21 -13 -8 -30 3 -30 21 0 18
14 18 29 0z m-2279 -38 c0 -12 -28 -10 -35 2 -4 6 -4 19 0 28 6 16 8 15 21 -2
8 -11 14 -23 14 -28z m44 16 c20 -19 11 -40 -10 -23 -13 10 -20 39 -10 39 3 0
12 -7 20 -16z m70 -17 c6 -9 7 -19 3 -23 -9 -9 -37 15 -37 33 0 18 20 12 34
-10z m62 8 c4 -8 3 -22 0 -32 -6 -15 -8 -14 -20 3 -14 19 -11 44 5 44 5 0 12
-7 15 -15z m2164 -20 c0 -23 -16 -26 -35 -5 -22 24 -12 44 16 30 10 -6 19 -17
19 -25z m-2381 -63 c-24 -55 -25 -56 -39 -47 -7 4 -3 16 10 36 12 16 18 34 15
39 -4 6 -4 18 -1 27 5 12 9 13 20 3 13 -10 12 -18 -5 -58z m74 26 c-3 -6 -12
-3 -20 5 -9 9 -12 20 -8 28 6 9 11 8 21 -6 7 -10 11 -22 7 -27z m255 34 c7 -5
10 -16 6 -25 -8 -21 -20 -22 -28 -1 -13 33 -4 42 22 26z m108 -31 c-22 -21
-46 0 -26 24 10 12 16 13 27 3 12 -10 12 -13 -1 -27z m-296 -4 c0 -16 -107
-234 -118 -241 -14 -8 -35 21 -28 39 3 8 13 15 22 15 11 0 14 5 10 16 -10 25
3 56 21 50 10 -4 13 -1 8 13 -9 29 4 53 27 45 17 -5 18 -3 8 15 -13 26 -5 42
16 34 14 -5 15 -3 6 14 -6 11 -8 23 -5 27 8 7 33 -13 33 -27z m54 7 c9 -25 7
-34 -8 -34 -19 0 -29 17 -22 35 7 20 22 19 30 -1z m363 -38 c-4 -9 -11 -16
-17 -16 -15 0 -24 26 -16 47 6 15 8 15 23 1 9 -9 13 -24 10 -32z m-248 21 c8
-10 7 -18 -3 -32 -15 -21 -36 -13 -36 14 0 31 20 40 39 18z m170 -1 c11 -14 5
-46 -9 -46 -15 0 -32 30 -26 45 7 19 20 19 35 1z m144 -4 c15 -16 13 -22 -19
-80 -19 -34 -39 -62 -44 -62 -9 0 -40 28 -40 36 0 17 23 42 34 38 10 -4 12 2
8 22 -5 25 -3 26 24 20 23 -6 27 -5 17 5 -15 15 -17 39 -5 39 5 0 16 -8 25
-18z m-574 -6 c13 -16 4 -46 -14 -46 -16 0 -26 25 -19 45 8 19 18 19 33 1z
m361 -6 c0 -4 -31 -64 -68 -132 -37 -69 -92 -186 -122 -261 -30 -76 -58 -137
-63 -137 -13 0 -21 34 -9 38 7 2 12 9 12 15 0 11 23 65 134 317 50 112 93 183
106 175 6 -3 10 -10 10 -15z m-1323 -32 c-3 -7 -5 -2 -5 12 0 14 2 19 5 13 2
-7 2 -19 0 -25z m1090 -4 c-9 -10 -38 16 -31 28 4 6 13 4 22 -6 9 -8 13 -19 9
-22z m584 -13 c-7 -11 -16 -21 -20 -21 -15 0 -21 31 -10 52 10 18 13 19 26 5
12 -11 13 -19 4 -36z m1639 34 c7 -8 9 -22 6 -31 -6 -15 -8 -15 -26 1 -10 9
-16 23 -13 31 7 18 17 18 33 -1z m-1870 -31 c0 -20 -19 -27 -35 -14 -11 9 -12
17 -4 32 8 15 13 17 25 7 8 -6 14 -17 14 -25z m-80 10 c11 -12 11 -18 -2 -31
-19 -18 -38 -10 -38 16 0 33 20 40 40 15z m-1223 -16 c48 -11 94 -26 101 -33
26 -23 35 -132 27 -331 -8 -203 -11 -217 -50 -174 -13 14 -19 42 -23 93 -4 61
-1 80 17 114 11 23 25 44 31 48 16 10 12 23 -10 35 -17 9 -30 6 -73 -21 -29
-17 -67 -45 -85 -60 -18 -16 -39 -29 -46 -29 -37 0 -97 -120 -80 -159 4 -9 6
-20 4 -26 -1 -5 -4 -26 -5 -45 -3 -35 -3 -35 -54 -38 -61 -4 -61 -4 -31 133
18 81 139 455 162 498 11 21 9 21 115 -5z m1050 11 c8 -8 1 -32 -24 -87 -19
-43 -36 -79 -39 -81 -7 -7 -34 21 -34 36 0 8 8 17 18 19 10 3 18 16 19 34 2
32 29 90 41 90 5 0 13 -5 19 -11z m-259 -23 c2 -9 1 -24 -3 -33 -10 -27 -39 8
-30 36 8 25 28 23 33 -3z m140 0 c2 -10 -1 -23 -7 -29 -15 -15 -40 9 -34 34 7
24 36 21 41 -5z m52 -2 c0 -16 -16 -19 -25 -4 -8 13 4 32 16 25 5 -4 9 -13 9
-21z m509 -40 c-14 -14 -17 -14 -29 0 -10 13 -10 19 0 32 12 14 15 14 29 0 14
-15 14 -17 0 -32z m1669 25 c1 -9 -2 -28 -8 -43 -9 -23 -13 -26 -25 -16 -26
22 -15 83 14 78 9 -2 17 -10 19 -19z m-2441 -26 c-3 -3 -11 -2 -17 2 -8 5 -7
11 2 22 12 15 13 14 16 -1 2 -10 1 -20 -1 -23z m363 26 c0 -10 -22 -62 -86
-208 -11 -24 -18 -31 -26 -23 -7 7 -1 29 20 74 16 34 40 87 52 116 21 48 40
68 40 41z m-750 -14 c0 -12 -92 -123 -106 -129 -9 -4 -18 -5 -19 -4 -1 2 -5
31 -9 65 l-7 62 63 4 c35 2 66 4 71 5 4 1 7 0 7 -3z m630 -15 c0 -11 -9 -29
-20 -40 -11 -11 -17 -26 -14 -34 7 -17 -14 -32 -27 -19 -6 6 -1 29 13 61 23
52 48 69 48 32z m-1153 -12 c-3 -8 -6 -5 -6 6 -1 11 2 17 5 13 3 -3 4 -12 1
-19z m1090 6 c3 -9 -4 -36 -16 -61 -18 -37 -24 -43 -36 -33 -20 17 -19 36 4
59 11 11 17 22 14 25 -7 7 6 26 18 26 5 0 12 -7 16 -16z m632 -28 c-37 -71
-156 -255 -163 -253 -24 8 -29 35 -12 62 14 21 20 24 32 14 15 -13 20 1 5 17
-10 9 70 146 89 152 6 2 10 9 10 16 0 22 22 37 37 25 9 -8 10 -16 2 -33z
m-831 13 c1 -9 -6 -35 -17 -60 l-20 -44 0 56 c-1 31 2 59 6 63 10 10 28 1 31
-15z m59 10 c13 -13 -25 -111 -42 -106 -18 6 -18 50 0 63 9 7 14 17 10 23 -7
12 2 31 14 31 4 0 12 -5 18 -11z m547 -8 c14 -15 15 -23 5 -45 -15 -31 -20
-32 -44 -6 -16 18 -17 23 -5 45 16 30 22 31 44 6z m154 6 c9 -10 0 -31 -35
-85 -47 -73 -58 -80 -77 -49 -13 20 21 64 38 47 18 -18 30 -11 13 8 -15 17
-15 21 10 55 29 41 35 43 51 24z m-1118 -48 c0 -58 50 -120 119 -149 41 -16
36 -29 -21 -59 -49 -25 -98 -23 -98 4 0 7 -9 17 -20 20 -14 4 -20 15 -20 36 0
18 -6 32 -16 36 -21 8 -12 73 17 120 24 38 39 35 39 -8z m1002 -41 c-31 -31
-51 -11 -26 27 15 24 19 25 33 11 14 -15 13 -18 -7 -38z m-97 -62 c-41 -60
-46 -64 -64 -42 -10 11 -8 24 10 58 12 24 28 51 37 61 15 17 17 17 35 -1 19
-19 18 -20 -18 -76z m-280 25 c-3 -14 -11 -31 -18 -36 -7 -6 -13 -17 -15 -25
-5 -28 -63 -140 -72 -140 -5 0 -13 8 -18 17 -12 21 6 66 24 59 10 -4 12 2 8
22 -4 21 1 35 21 56 14 15 24 31 21 33 -3 3 2 19 10 35 13 25 18 27 30 17 10
-8 13 -21 9 -38z m-129 13 c8 -32 -8 -51 -25 -30 -13 16 -6 56 9 56 6 0 13
-12 16 -26z m67 -10 c-3 -8 -9 -14 -13 -14 -14 0 -22 20 -16 37 5 12 9 13 21
3 7 -6 11 -18 8 -26z m-650 -8 c-3 -16 2 -28 17 -39 14 -10 21 -23 18 -39 -3
-20 -6 -17 -29 23 -19 33 -24 51 -17 63 13 22 16 20 11 -8z m1043 -20 c-9 -15
-24 -26 -32 -26 -11 0 -14 -5 -10 -16 6 -17 -9 -44 -25 -44 -19 0 -8 32 27 81
25 34 40 47 47 40 7 -7 5 -18 -7 -35z m-426 -31 c-17 -21 -34 -4 -25 25 6 20
9 21 23 7 13 -13 13 -19 2 -32z m-65 16 c6 -19 -41 -121 -56 -121 -21 0 -18
43 6 89 27 54 40 63 50 32z m544 5 c10 -12 9 -20 -4 -40 -20 -30 -28 -32 -45
-11 -11 13 -11 20 0 40 15 28 32 32 49 11z m-501 -57 c1 -8 -4 -23 -12 -34
-12 -16 -17 -17 -27 -8 -10 10 -10 18 -1 39 13 26 35 28 40 3z m118 7 c8 -21
-45 -121 -58 -108 -7 7 -4 27 13 66 23 56 35 68 45 42z m338 -28 c8 -14 7 -22
-7 -35 -16 -16 -18 -16 -33 -1 -10 10 -14 23 -9 37 8 25 33 24 49 -1z m-974
-28 c6 -11 20 -20 30 -20 28 0 25 -14 -6 -35 -15 -9 -23 -12 -20 -6 4 6 -2 27
-14 46 -12 19 -17 35 -11 35 6 0 15 -9 21 -20z m478 -26 c1 -10 -4 -28 -11
-38 -14 -19 -15 -19 -26 2 -9 16 -9 27 -1 43 13 24 34 20 38 -7z m541 8 c14
-27 -14 -68 -35 -51 -17 14 -18 41 -2 57 17 17 26 15 37 -6z m-1090 -32 c32
-29 41 -44 36 -57 -6 -15 -10 -13 -23 15 -12 24 -21 32 -34 29 -18 -5 -38 18
-38 42 0 19 14 12 59 -29z m476 19 c10 -30 -10 -47 -25 -20 -11 21 -6 41 10
41 5 0 12 -9 15 -21z m525 6 c17 -21 -3 -70 -25 -61 -12 4 -14 0 -9 -18 7 -30
-19 -54 -41 -36 -21 18 -19 33 12 85 30 48 43 54 63 30z m-414 -79 c-7 -28
-30 -35 -40 -11 -3 8 -1 27 5 42 9 24 11 25 26 11 10 -11 13 -25 9 -42z m543
45 c16 -11 -2 -51 -24 -51 -21 0 -27 17 -13 40 14 22 17 23 37 11z m-482 -18
c2 -6 -2 -17 -10 -24 -7 -8 -16 -22 -20 -32 -4 -11 -12 -15 -19 -11 -8 5 -9 2
-5 -10 8 -19 -8 -56 -23 -56 -17 0 -11 22 23 87 30 59 46 72 54 46z m413 -22
c0 -3 -7 -15 -15 -26 -14 -18 -16 -18 -32 -2 -14 14 -15 21 -4 43 11 26 12 26
31 9 11 -10 20 -21 20 -24z m-552 12 c14 -28 3 -48 -14 -26 -7 10 -14 24 -14
31 0 18 18 15 28 -5z m-504 -22 c13 -24 12 -29 -10 -54 -13 -16 -24 -34 -24
-41 0 -8 -7 -16 -15 -20 -12 -4 -15 7 -15 68 0 72 1 74 25 74 18 0 30 -9 39
-27z m1087 -50 c-13 -24 -24 -26 -39 -8 -9 10 -7 19 5 36 14 20 17 21 30 8 12
-12 13 -19 4 -36z m-1524 2 c-3 -10 -5 -4 -5 12 0 17 2 24 5 18 2 -7 2 -21 0
-30z m1453 -8 c0 -7 -7 -18 -16 -25 -12 -11 -18 -10 -31 3 -14 14 -15 21 -4
43 11 26 12 26 31 9 11 -10 20 -24 20 -30z m-473 24 c9 -9 8 -19 -3 -40 -25
-49 -55 -30 -34 22 14 32 20 35 37 18z m113 -40 c0 -11 -3 -19 -6 -19 -13 0
-32 34 -27 47 7 19 33 -3 33 -28z m-326 -5 c9 -24 7 -28 -9 -14 -17 14 -20 30
-6 30 5 0 12 -7 15 -16z m721 -4 c10 -16 -5 -50 -21 -50 -20 0 -29 27 -14 45
14 17 26 19 35 5z m-419 -56 l-7 -27 -21 20 c-17 17 -18 24 -8 43 11 20 14 21
27 7 11 -10 13 -24 9 -43z m334 41 c10 -12 10 -21 1 -42 -11 -25 -12 -25 -31
-8 -23 21 -25 36 -8 53 16 16 23 15 38 -3z m-920 -17 c0 -13 -5 -30 -10 -38
-8 -12 -10 -9 -10 13 0 34 -12 34 -56 1 -19 -15 -34 -22 -34 -18 1 15 72 64
92 64 12 0 18 -7 18 -22z m280 -24 c0 -16 -26 -19 -34 -5 -4 5 -3 16 0 25 5
13 9 14 20 5 8 -6 14 -18 14 -25z m173 24 c5 -16 -13 -58 -25 -58 -4 0 -8 9
-8 19 0 41 23 68 33 39z m60 -24 c-3 -8 -9 -14 -13 -14 -11 0 -21 30 -14 41 9
15 34 -10 27 -27z m-996 -6 c-3 -7 -5 -2 -5 12 0 14 2 19 5 13 2 -7 2 -19 0
-25z m446 -4 c-3 -9 0 -19 6 -24 10 -6 10 -12 0 -28 -19 -31 -35 -34 -61 -11
-22 20 -22 20 -1 10 27 -14 43 -14 43 -1 0 6 -6 10 -14 10 -27 0 -29 22 -5 41
30 23 40 24 32 3z m1004 5 c12 -12 -2 -59 -17 -59 -19 0 -31 29 -20 49 12 24
21 26 37 10z m-89 -11 c15 -15 15 -41 0 -56 -9 -9 -16 -8 -30 5 -10 9 -18 21
-18 28 0 12 20 35 30 35 3 0 11 -5 18 -12z m-391 -14 c7 -18 -12 -64 -26 -64
-16 0 -23 38 -11 60 13 24 28 26 37 4z m64 0 c10 -9 15 -22 12 -30 -5 -13 -8
-12 -24 2 -18 17 -26 44 -12 44 3 0 14 -7 24 -16z m378 -43 c14 -25 -11 -62
-30 -44 -13 13 -5 63 11 63 5 0 14 -8 19 -19z m-1134 -1 c-3 -5 -11 -10 -16
-10 -6 0 -7 5 -4 10 3 6 11 10 16 10 6 0 7 -4 4 -10z m805 -4 c0 -15 -14 -35
-21 -30 -15 9 -10 34 6 34 8 0 15 -2 15 -4z"/>
<path d="M3688 5353 c-2 -5 -1 -35 3 -68 l6 -60 1 68 c2 61 -1 80 -10 60z"/>
<path d="M2905 5497 c-4 -10 -14 -16 -21 -13 -18 7 -18 -5 1 -30 8 -11 15 -14
15 -6 0 6 7 12 15 12 17 0 17 6 5 35 -7 19 -8 19 -15 2z"/>
<path d="M2837 5453 c-11 -10 -8 -43 3 -43 6 0 10 4 10 9 0 5 3 16 6 25 6 16
-7 22 -19 9z"/>
<path d="M2787 5423 c-11 -10 -8 -53 4 -53 6 0 17 7 26 15 12 12 13 19 3 30
-14 16 -23 19 -33 8z"/>
<path d="M2751 5388 c-1 -9 -9 -18 -18 -20 -16 -3 -15 -5 4 -16 25 -14 35 1
22 33 -6 16 -8 17 -8 3z"/>
<path d="M2686 5348 c-9 -36 -7 -48 8 -48 21 0 29 17 22 46 -8 30 -22 31 -30
2z"/>
<path d="M2643 5314 c-3 -8 -1 -20 4 -25 7 -7 12 -2 15 15 6 28 -9 36 -19 10z"/>
<path d="M2593 5274 c-3 -8 -1 -20 6 -27 14 -14 47 15 37 32 -10 16 -36 13
-43 -5z"/>
<path d="M2540 5228 c1 -41 1 -42 16 -23 8 11 20 19 25 18 13 -4 11 21 -3 35
-24 24 -38 13 -38 -30z"/>
<path d="M3952 4858 c-1 -20 -5 -45 -8 -55 -5 -14 -4 -15 5 -7 7 7 11 29 8 55
-3 42 -4 42 -5 7z"/>
<path d="M2510 4116 c0 -17 24 -38 33 -29 15 15 6 43 -13 43 -11 0 -20 -6 -20
-14z"/>
<path d="M2470 4080 c0 -4 14 -13 30 -19 17 -5 30 -6 30 -1 0 4 -13 13 -30 19
-16 5 -30 6 -30 1z"/>
<path d="M2373 3905 c-7 -8 -13 -17 -13 -21 0 -4 -7 -16 -16 -26 -14 -14 -14
-20 -4 -33 18 -21 33 -19 21 4 -13 23 -3 35 16 20 10 -9 13 -8 13 5 0 11 5 14
12 10 8 -5 9 -2 5 10 -5 14 -3 17 8 12 22 -8 18 11 -4 24 -24 12 -23 12 -38
-5z"/>
<path d="M3652 4088 c-27 -27 2 -72 32 -50 6 5 24 7 39 6 22 -2 27 1 23 12 -3
9 -6 18 -6 20 0 2 -9 4 -20 4 -11 0 -20 -5 -20 -11 0 -5 -5 -7 -11 -3 -6 3
-15 0 -20 -7 -13 -21 -22 -3 -9 20 12 24 10 27 -8 9z"/>
<path d="M3002 3710 c0 -14 2 -19 5 -12 2 6 2 18 0 25 -3 6 -5 1 -5 -13z"/>
<path d="M3012 3650 c0 -14 2 -19 5 -12 2 6 2 18 0 25 -3 6 -5 1 -5 -13z"/>
<path d="M3021 3594 c0 -11 3 -14 6 -6 3 7 2 16 -1 19 -3 4 -6 -2 -5 -13z"/>
<path d="M2917 3515 c3 -38 7 -72 9 -74 7 -8 2 84 -7 114 -5 19 -6 4 -2 -40z"/>
<path d="M3031 3544 c0 -11 3 -14 6 -6 3 7 2 16 -1 19 -3 4 -6 -2 -5 -13z"/>
<path d="M2983 3495 c0 -27 2 -38 4 -22 2 15 2 37 0 50 -2 12 -4 0 -4 -28z"/>
<path d="M3712 3558 c5 -40 12 -75 15 -78 9 -8 -7 134 -16 143 -4 4 -4 -25 1
-65z"/>
<path d="M2114 3574 c3 -9 6 -18 6 -20 0 -2 9 -4 20 -4 28 0 25 13 -6 27 -22
10 -25 10 -20 -3z"/>
<path d="M2120 3533 c1 -19 19 -35 36 -31 29 5 23 31 -8 35 -16 2 -28 0 -28
-4z"/>
<path d="M2124 3468 c-10 -17 18 -27 38 -15 10 7 18 15 18 18 0 10 -50 7 -56
-3z"/>
<path d="M2152 3438 c-8 -8 -9 -15 -1 -25 18 -21 39 -15 39 12 0 27 -18 33
-38 13z"/>
<path d="M2140 3382 c0 -5 7 -15 15 -22 17 -14 49 -6 43 12 -5 14 -58 23 -58
10z"/>
<path d="M2144 3329 c-10 -17 17 -29 38 -16 17 11 17 12 0 19 -25 10 -30 9
-38 -3z"/>
<path d="M4033 3102 c-19 -12 0 -32 24 -26 19 5 20 8 8 20 -16 16 -16 16 -32
6z"/>
<path d="M4048 3043 c7 -3 16 -2 19 1 4 3 -2 6 -13 5 -11 0 -14 -3 -6 -6z"/>
<path d="M4020 3000 c-9 -17 -8 -20 12 -20 13 0 19 -4 13 -8 -5 -4 -16 -15
-24 -24 -12 -16 -11 -18 16 -18 29 0 30 2 31 45 0 38 -3 45 -19 45 -10 0 -23
-9 -29 -20z"/>
<path d="M4033 2904 c-6 -16 15 -37 29 -28 4 3 8 14 8 25 0 23 -28 26 -37 3z"/>
<path d="M3853 2293 c-28 -11 -13 -31 23 -31 35 0 36 0 15 19 -11 10 -21 19
-23 18 -2 0 -9 -3 -15 -6z"/>
<path d="M3842 2228 c7 -20 48 -23 48 -4 0 11 -9 16 -26 16 -16 0 -24 -5 -22
-12z"/>
<path d="M3832 2183 c1 -10 -1 -24 -5 -30 -11 -18 0 -33 24 -33 21 0 26 25 7
33 -8 3 -6 6 5 6 21 1 23 27 1 35 -26 10 -35 7 -32 -11z"/>
<path d="M3808 2091 c-15 -18 -15 -20 9 -26 30 -7 48 7 40 29 -8 22 -29 20
-49 -3z"/>
<path d="M3813 2029 c3 -13 0 -19 -10 -19 -13 0 -13 -3 1 -25 15 -23 15 -25 1
-25 -9 0 -13 -4 -10 -10 3 -5 16 -10 28 -10 20 0 22 6 24 53 2 47 0 53 -18 54
-16 2 -20 -3 -16 -18z"/>
<path d="M3805 1920 c3 -5 13 -10 21 -10 8 0 12 5 9 10 -3 6 -13 10 -21 10 -8
0 -12 -4 -9 -10z"/>
<path d="M3798 1890 c22 -9 31 -40 12 -40 -5 0 -10 -4 -10 -10 0 -5 11 -10 25
-10 23 0 25 3 19 28 -10 39 -12 42 -42 41 -26 0 -26 -1 -4 -9z"/>
<path d="M4033 1596 c4 -10 7 -24 7 -32 0 -8 4 -14 9 -14 11 0 1 49 -12 57 -7
4 -8 0 -4 -11z"/>
<path d="M1015 1161 c17 -12 34 -21 38 -21 4 0 25 -11 45 -25 28 -19 50 -25
89 -25 29 0 76 -9 105 -20 58 -22 78 -25 63 -11 -17 15 -108 40 -165 44 -38 3
-70 14 -105 35 -27 17 -61 33 -75 37 -23 6 -23 5 5 -14z"/>
<path d="M985 1110 c3 -5 8 -10 11 -10 2 0 4 5 4 10 0 6 -5 10 -11 10 -5 0 -7
-4 -4 -10z"/>
<path d="M1066 918 c-12 -40 -13 -58 -1 -68 17 -14 50 23 40 47 -7 16 -9 15
-14 -7 -5 -17 -9 -21 -15 -12 -4 7 -4 21 -1 32 4 11 4 20 0 20 -3 0 -7 -6 -9
-12z"/>
<path d="M1137 883 c-11 -11 -8 -38 7 -58 12 -16 16 -17 30 -6 9 7 16 24 16
37 0 25 -15 40 -24 25 -4 -5 -2 -12 3 -16 6 -3 8 -12 4 -21 -8 -22 -32 2 -26
26 5 20 2 25 -10 13z"/>
<path d="M1265 847 c4 -15 2 -28 -5 -32 -15 -9 -30 13 -23 32 3 7 0 13 -6 13
-6 0 -10 -16 -9 -39 1 -38 3 -40 52 -55 98 -29 316 -49 316 -28 0 4 -40 8 -90
8 -49 1 -101 5 -114 8 -23 6 -24 9 -14 30 13 30 5 56 -17 56 -15 0 -15 -2 0
-16 14 -15 15 -19 2 -32 -21 -20 -38 -6 -31 25 5 19 4 24 -6 18 -7 -4 -10 -20
-8 -37 4 -27 3 -29 -21 -23 -34 9 -37 13 -23 27 15 15 16 55 2 63 -7 4 -9 -2
-5 -18z"/>
<path d="M1440 834 c0 -4 7 -12 15 -18 20 -15 3 -41 -20 -32 -11 4 -15 13 -12
26 3 11 2 20 -3 20 -15 0 -18 -41 -3 -55 21 -22 42 -18 55 10 8 19 8 28 -2 40
-13 15 -30 20 -30 9z"/>
<path d="M1514 816 c-10 -26 1 -51 24 -54 16 -2 25 3 31 20 11 29 4 48 -18 48
-14 0 -14 -2 -1 -10 11 -7 12 -14 5 -26 -15 -24 -30 -17 -28 12 2 27 -5 32
-13 10z"/>
<path d="M1604 815 c-9 -23 4 -47 23 -43 11 2 19 14 20 28 l3 25 -10 -23 c-12
-27 -34 -19 -25 9 7 22 -3 26 -11 4z"/>
<path d="M1575 510 c-3 -5 -1 -10 4 -10 6 0 11 5 11 10 0 6 -2 10 -4 10 -3 0
-8 -4 -11 -10z"/>
<path d="M1595 459 c-11 -17 1 -21 15 -4 8 9 8 15 2 15 -6 0 -14 -5 -17 -11z"/>
<path d="M1624 436 c-10 -8 -17 -17 -14 -19 3 -3 16 3 30 13 29 22 14 27 -16
6z"/>
<path d="M1661 419 c-13 -11 -21 -23 -17 -26 4 -4 19 5 34 20 31 31 19 36 -17
6z"/>
<path d="M794 4143 c-15 -36 -14 -126 2 -168 4 -9 -4 -17 -21 -21 -48 -12
-114 -54 -109 -69 3 -8 -4 -16 -18 -20 -109 -34 -160 -65 -106 -65 21 0 20 -1
-8 -31 -16 -17 -39 -35 -52 -40 -24 -9 -22 -29 4 -29 17 0 19 -20 2 -21 -7 0
-40 0 -74 1 -77 2 -111 -13 -116 -52 -6 -41 35 -123 89 -180 25 -25 42 -51 39
-57 -9 -14 66 -52 144 -71 35 -9 60 -19 55 -22 -6 -3 -36 2 -67 12 -32 10 -58
14 -58 9 0 -10 76 -33 179 -54 41 -9 78 -19 81 -22 11 -12 -113 8 -171 28 -67
23 -93 19 -34 -5 48 -20 187 -49 217 -44 12 2 24 10 26 18 2 13 -14 19 -73 29
-109 18 -97 37 20 33 31 -1 36 0 20 8 -11 5 -32 9 -47 9 -16 1 -28 4 -28 9 0
4 -22 8 -49 9 -83 4 -159 39 -222 102 -92 92 -130 200 -76 215 41 11 123 6
178 -10 73 -22 146 -72 192 -132 l37 -50 38 13 c20 8 66 27 102 44 36 17 74
31 85 31 37 -1 -40 -60 -78 -60 -42 0 -77 -10 -77 -22 0 -8 71 -4 125 7 11 3
31 21 45 41 23 35 66 71 75 62 2 -2 -16 -26 -40 -53 -25 -27 -42 -51 -39 -54
8 -8 94 88 94 104 0 8 37 33 82 57 91 48 191 135 237 206 39 62 75 192 52 192
-4 0 -14 -28 -20 -62 -17 -82 -77 -176 -153 -237 -72 -59 -215 -135 -283 -152
-27 -6 -81 -27 -120 -45 -80 -37 -125 -49 -125 -34 0 6 11 16 25 22 31 14 33
32 3 23 -20 -5 -18 -2 9 22 21 19 62 89 121 209 87 176 91 180 128 191 77 23
200 52 273 63 84 14 139 34 122 44 -6 4 -19 2 -29 -3 -10 -5 -61 -17 -113 -25
-52 -8 -116 -22 -144 -31 -27 -8 -66 -15 -85 -15 -30 0 -38 5 -58 41 -41 71
-88 116 -137 128 -24 6 -46 11 -49 11 -3 0 -13 -17 -22 -37z m82 2 c37 -15 58
-37 106 -109 31 -45 34 -56 17 -56 -23 0 -81 43 -69 50 8 5 5 12 -11 24 -33
23 -49 20 -19 -4 36 -29 11 -24 -33 5 -20 14 -37 22 -37 17 0 -5 32 -29 70
-53 39 -24 70 -48 70 -52 0 -5 -10 -3 -22 5 -61 39 -119 70 -124 65 -3 -3 20
-19 50 -37 72 -41 84 -59 16 -25 -54 27 -84 28 -33 1 l28 -15 -33 -1 c-26 0
-34 5 -42 26 -21 54 -7 174 20 174 6 0 27 -7 46 -15z m84 -215 c0 -5 -5 -21
-12 -35 -9 -21 -18 -25 -57 -26 -32 -2 -37 -3 -16 -6 54 -7 56 -10 35 -46
l-20 -34 -53 9 c-53 10 -157 4 -183 -10 -7 -4 31 -6 86 -4 116 5 158 -2 141
-22 -9 -10 -21 -12 -49 -5 -86 20 -262 -1 -262 -32 0 -13 12 -11 55 7 61 25
236 18 234 -10 -2 -36 -58 -123 -97 -149 l-42 -28 -47 41 c-26 23 -68 51 -93
62 -57 26 -56 24 -36 47 17 19 7 39 -14 26 -5 -3 -10 -2 -10 4 0 9 36 41 76
69 14 9 15 14 7 18 -26 12 -10 22 77 50 49 16 90 32 90 36 0 4 -10 10 -22 14
l-21 6 24 14 c28 15 209 19 209 4z"/>
<path d="M850 4110 c0 -5 5 -10 11 -10 5 0 7 5 4 10 -3 6 -8 10 -11 10 -2 0
-4 -4 -4 -10z"/>
<path d="M713 3822 c-7 -5 33 -8 90 -8 56 0 91 3 77 7 -35 10 -152 10 -167 1z"/>
<path d="M613 3693 c-24 -8 -43 -19 -43 -24 0 -11 -4 -12 54 6 27 8 86 15 130
16 55 0 74 3 61 9 -32 14 -156 10 -202 -7z"/>
<path d="M654 3670 c-12 -5 -25 -14 -29 -20 -5 -9 -1 -9 16 0 12 7 57 16 98
20 l76 7 -70 1 c-38 0 -80 -3 -91 -8z"/>
<path d="M1379 4008 c-1 -7 -1 -17 0 -22 5 -25 -13 -44 -47 -51 -20 -3 -76
-18 -125 -32 -48 -14 -90 -23 -93 -20 -11 11 5 37 23 37 23 1 133 49 112 50
-9 0 -38 -7 -65 -15 -62 -19 -74 -19 -74 0 0 8 -6 15 -14 15 -11 0 -13 -10 -9
-37 6 -48 -21 -121 -71 -190 -21 -29 -39 -53 -40 -53 -2 0 -2 14 -1 30 2 25
-2 30 -22 30 -26 0 -29 -9 -10 -29 10 -11 8 -11 -10 -2 -26 13 -33 14 -33 2 0
-6 12 -16 28 -23 27 -14 29 -23 17 -65 -7 -20 -5 -22 21 -14 77 22 188 78 249
124 103 78 203 219 187 265 -5 16 -22 16 -23 0z m-39 -108 c-6 -11 -21 -21
-33 -22 -39 -3 -52 -5 -67 -11 -32 -14 -116 -37 -134 -37 -15 0 -17 3 -9 11
14 14 199 77 231 78 20 1 21 -2 12 -19z m-50 -59 c0 -9 -33 -21 -59 -21 -11 0
-11 3 -1 15 13 16 60 21 60 6z m-90 -21 c0 -5 -12 -12 -27 -16 -16 -3 -43 -10
-60 -14 -51 -13 -39 5 15 22 57 19 72 21 72 8z"/>
<path d="M984 3861 c-4 -20 -15 -44 -25 -54 -26 -24 -24 -31 11 -44 17 -7 30
-7 30 -2 0 5 -7 12 -15 15 -8 4 -15 13 -15 21 0 13 3 13 25 -1 27 -18 45 -14
45 10 0 9 -5 12 -12 8 -7 -5 -9 -2 -6 7 18 48 17 54 -7 65 -23 11 -25 10 -31
-25z m26 -26 c0 -8 -2 -15 -4 -15 -2 0 -6 7 -10 15 -3 8 -1 15 4 15 6 0 10 -7
10 -15z"/>
<path d="M1410 3804 c0 -4 7 -12 16 -19 20 -14 13 -43 -23 -85 -23 -28 -22
-39 3 -22 18 11 54 75 54 94 0 10 -9 22 -19 28 -23 12 -31 13 -31 4z"/>
<path d="M1225 3630 c-4 -6 5 -10 19 -10 23 0 26 -4 26 -32 0 -34 -31 -94 -59
-115 -9 -6 -13 -15 -9 -19 12 -11 45 24 68 70 24 51 26 101 4 110 -23 9 -42 7
-49 -4z"/>
<path d="M410 3580 c0 -5 12 -10 28 -11 l27 0 -25 -11 c-15 -6 -20 -12 -12
-15 6 -3 10 -9 6 -14 -3 -5 5 -9 17 -9 18 0 19 -2 9 -15 -11 -13 -7 -15 25
-15 32 0 36 -2 25 -15 -10 -12 -9 -15 4 -15 9 0 19 -7 22 -15 4 -8 12 -15 19
-15 7 0 24 -9 38 -20 33 -26 87 -38 87 -19 0 44 -112 166 -162 176 -16 3 -28
9 -28 14 0 5 -18 9 -40 9 -22 0 -40 -4 -40 -10z"/>
<path d="M1635 3538 c-11 -18 -24 -40 -30 -50 -5 -10 -13 -18 -18 -18 -4 0
-18 -10 -30 -21 l-22 -22 59 7 c32 4 63 9 67 12 11 6 12 124 2 124 -5 0 -17
-15 -28 -32z"/>
<path d="M838 3453 c-69 -7 -39 -23 43 -23 l81 0 57 -60 c62 -65 140 -107 167
-92 13 7 10 11 -18 16 -47 9 -124 61 -153 103 -39 58 -68 67 -177 56z"/>
<path d="M1679 3416 c6 -7 20 -38 30 -67 11 -30 20 -46 20 -36 1 25 -39 117
-51 117 -6 0 -6 -6 1 -14z"/>
<path d="M440 3331 c0 -22 -2 -23 -51 -17 -28 4 -49 3 -47 -1 22 -51 65 -124
86 -146 23 -24 24 -29 12 -38 -8 -5 -36 -8 -62 -5 -44 5 -47 4 -37 -13 7 -9
26 -28 45 -40 18 -13 42 -41 53 -64 21 -42 21 -42 1 -45 -27 -4 -25 -16 5 -32
29 -15 34 -32 8 -24 -14 4 -14 2 2 -8 35 -23 155 -149 155 -163 0 -18 56 -45
92 -45 18 0 38 9 52 25 13 14 26 25 30 25 10 0 117 62 113 66 -1 2 -25 -3 -52
-11 -62 -19 -245 -21 -245 -2 0 9 30 13 113 15 104 3 183 18 262 53 32 13 -63
-1 -115 -18 -60 -19 -154 -27 -231 -19 -52 6 -71 14 -103 40 -27 24 -38 41
-38 60 0 40 -42 119 -78 150 -29 23 -29 26 -10 26 12 0 36 -11 53 -24 92 -68
269 -116 377 -101 76 10 60 20 -27 17 -123 -6 -219 19 -332 85 l-43 25 31 15
c38 19 39 24 2 46 -30 18 -61 61 -80 109 l-10 27 49 -6 c54 -6 63 4 35 41 -15
19 -15 19 -15 -3z m327 -581 c-49 -15 -130 -16 -134 -2 -4 9 16 12 79 11 62
-1 76 -3 55 -9z"/>
<path d="M1530 3329 c0 -5 5 -7 10 -4 6 3 10 8 10 11 0 2 -4 4 -10 4 -5 0 -10
-5 -10 -11z"/>
<path d="M1440 3305 c-7 -9 -8 -15 -2 -15 5 0 12 7 16 15 3 8 4 15 2 15 -2 0
-9 -7 -16 -15z"/>
<path d="M470 3179 c65 -59 152 -103 234 -118 77 -14 153 -14 162 0 4 8 -3 9
-22 5 -66 -14 -186 40 -311 140 -18 15 -33 22 -33 17 0 -10 138 -117 162 -126
7 -2 10 -8 6 -12 -11 -12 -131 52 -185 100 -28 25 -55 45 -60 45 -4 -1 17 -23
47 -51z"/>
<path d="M612 3216 c12 -14 79 -24 106 -16 26 8 25 8 -9 9 -20 1 -52 4 -70 7
-19 4 -31 4 -27 0z"/>
<path d="M585 3194 c44 -33 214 -60 228 -36 3 4 -27 7 -67 8 -49 1 -86 7 -120
22 -57 26 -69 27 -41 6z"/>
<path d="M480 3015 c0 -10 98 -53 150 -65 50 -12 218 -15 229 -5 2 3 -42 5
-98 5 -103 0 -193 20 -248 56 -23 15 -33 17 -33 9z"/>
<path d="M930 2930 l-35 -7 37 -2 c20 0 40 4 43 9 7 11 7 11 -45 0z"/>
<path d="M536 2921 c17 -16 77 -31 118 -30 l41 1 -50 8 c-27 4 -63 13 -78 19
-34 13 -44 14 -31 2z"/>
<path d="M585 2870 c11 -5 29 -9 40 -9 l20 0 -20 9 c-11 5 -29 9 -40 9 l-20 0
20 -9z"/>
<path d="M1030 2850 c-13 -8 -12 -10 3 -10 9 0 17 5 17 10 0 12 -1 12 -20 0z"/>
<path d="M945 2799 c-22 -12 -58 -36 -79 -53 -22 -17 -46 -31 -54 -31 -19 0
-60 -77 -45 -82 6 -2 9 -14 6 -26 -2 -12 6 -4 18 18 51 93 113 147 207 181 32
11 33 13 12 14 -14 0 -43 -10 -65 -21z"/>
<path d="M965 2761 c-37 -23 -65 -53 -100 -111 -16 -25 -33 -48 -39 -52 -13
-9 -1 -22 13 -14 6 4 30 36 53 72 25 39 61 77 87 95 48 31 35 41 -14 10z"/>
<path d="M960 2409 c0 -5 5 -7 10 -4 6 3 10 8 10 11 0 2 -4 4 -10 4 -5 0 -10
-5 -10 -11z"/>
<path d="M974 2354 c4 -26 1 -33 -14 -37 -11 -3 -20 -12 -20 -21 0 -21 4 -20
51 11 40 26 41 27 116 14 41 -7 77 -10 79 -8 9 8 -90 28 -145 29 -43 1 -55 5
-62 22 -8 17 -9 15 -5 -10z"/>
<path d="M680 1994 c0 -23 54 -78 88 -88 10 -4 29 -25 41 -47 20 -35 23 -51
19 -103 -6 -65 -32 -128 -67 -160 -28 -26 -26 -14 6 35 21 31 28 57 31 106 3
39 0 69 -7 76 -7 7 -9 -3 -5 -40 5 -38 2 -61 -14 -96 -12 -26 -23 -47 -25 -47
-3 0 -2 20 0 44 4 29 1 46 -7 51 -10 6 -12 2 -7 -14 17 -68 -77 -181 -109
-129 -4 6 -3 8 3 5 6 -4 22 2 34 13 l24 20 -31 -6 c-33 -6 -64 14 -64 42 0 8
-4 14 -10 14 -23 0 -7 25 54 83 65 62 83 98 71 136 -11 36 -23 23 -18 -19 4
-26 2 -40 -6 -40 -6 0 -11 4 -11 8 0 5 -6 17 -14 27 -13 18 -14 15 -9 -28 6
-47 -9 -67 -20 -27 -3 11 -10 20 -16 20 -9 0 -9 -5 -1 -20 12 -22 4 -42 -38
-98 -28 -37 -35 -109 -13 -136 11 -13 6 -24 -33 -68 -115 -132 -140 -165 -158
-206 -27 -60 -15 -65 16 -5 33 64 70 108 84 100 7 -5 0 -28 -21 -68 -26 -50
-32 -74 -32 -125 0 -35 5 -67 10 -73 7 -7 10 16 10 67 0 96 12 121 116 243 73
86 83 94 112 91 79 -7 170 97 183 209 9 85 -17 145 -85 190 -30 20 -60 47 -67
60 -13 23 -13 23 -14 3z m-102 -380 c2 -16 -1 -23 -8 -19 -5 3 -10 18 -10 32
0 32 13 22 18 -13z"/>
<path d="M1796 1993 c-11 -11 -7 -31 10 -47 8 -9 11 -16 4 -16 -6 0 -16 11
-22 25 -17 37 -30 30 -15 -7 9 -23 21 -34 38 -36 31 -4 69 -74 70 -130 1 -37
1 -37 11 -9 12 35 6 63 -27 111 -14 20 -25 46 -25 56 0 11 -4 20 -10 20 -5 0
-10 6 -10 14 0 17 -14 28 -24 19z"/>
<path d="M1720 1968 c0 -9 16 -38 35 -64 70 -99 71 -105 50 -187 -19 -71 -27
-227 -13 -227 5 0 8 6 8 13 1 6 2 48 4 92 2 44 10 100 19 125 24 65 21 81 -20
141 -20 30 -47 69 -60 88 -13 19 -23 27 -23 19z"/>
<path d="M1160 1949 c-13 -24 -4 -41 10 -19 10 16 13 40 5 40 -2 0 -9 -9 -15
-21z"/>
<path d="M1187 1933 c-4 -3 -7 -13 -7 -22 1 -13 3 -13 11 2 11 19 8 33 -4 20z"/>
<path d="M1050 1913 c0 -6 9 -21 19 -34 17 -21 29 -24 103 -27 59 -2 79 0 68
7 -8 6 -42 11 -74 11 -51 0 -64 4 -88 27 -15 15 -28 22 -28 16z"/>
<path d="M1206 1905 c-3 -8 -1 -15 4 -15 6 0 10 7 10 15 0 8 -2 15 -4 15 -2 0
-6 -7 -10 -15z"/>
<path d="M1320 1453 c0 -4 5 -15 10 -23 8 -13 10 -13 10 2 0 9 -4 20 -10 23
-5 3 -10 3 -10 -2z"/>
<path d="M1350 1384 c0 -9 95 -199 107 -213 1 -2 5 -2 7 0 5 5 -76 169 -100
204 -8 11 -14 15 -14 9z"/>
<path d="M1450 1318 c17 -29 41 -74 53 -100 24 -51 43 -66 26 -20 -17 45 -92
172 -102 172 -5 0 6 -24 23 -52z"/>
<path d="M2763 1326 c-45 -18 -144 -47 -220 -65 -181 -44 -169 -39 -155 -53 7
-7 12 -21 12 -31 0 -22 6 -28 105 -96 128 -88 105 -84 378 -71 132 5 243 13
246 16 3 3 -7 17 -22 30 -22 19 -32 22 -47 14 -10 -5 -45 -10 -77 -9 l-58 1
50 14 c28 8 59 13 70 11 11 -1 29 6 40 16 19 17 19 19 2 28 -15 9 -16 13 -5
26 10 13 9 18 -7 29 -18 14 -18 14 1 28 10 8 16 17 13 20 -5 5 -227 118 -239
122 -3 1 -42 -13 -87 -30z m117 -1 c25 -14 25 -14 -35 -40 -87 -39 -209 -80
-295 -100 -72 -17 -78 -17 -109 0 -18 9 -29 20 -25 24 5 4 61 20 124 35 63 16
156 43 205 61 105 39 103 38 135 20z m60 -35 c0 -5 -15 -16 -33 -23 -61 -26
-332 -115 -369 -121 -43 -8 -62 10 -21 20 103 22 158 39 271 83 135 52 152 57
152 41z m38 -22 c-3 -7 -33 -24 -68 -37 -34 -14 -58 -27 -53 -28 5 -2 42 10
81 27 78 33 82 34 82 21 0 -5 -24 -18 -52 -29 -102 -39 -111 -43 -106 -47 2
-3 43 11 91 30 92 37 111 41 105 24 -12 -35 -448 -177 -448 -146 0 4 54 23
121 44 66 21 116 39 111 41 -5 1 -63 -13 -127 -33 -65 -20 -123 -34 -129 -31
-13 4 -17 3 137 51 65 21 116 39 113 42 -2 2 -53 -11 -113 -30 -110 -36 -193
-55 -181 -43 3 4 84 34 180 66 95 32 189 65 208 74 43 19 53 20 48 4z m82 -97
c0 -8 -155 -55 -220 -65 -34 -6 -34 -5 10 15 25 11 69 27 99 35 30 7 56 16 59
19 9 8 52 6 52 -4z m-575 -36 c22 -18 15 -17 -27 4 -16 8 -28 18 -28 23 0 10
25 -2 55 -27z m569 -1 c33 -13 13 -22 -86 -42 -209 -43 -357 -63 -379 -51 -11
6 -18 13 -15 16 3 3 12 0 20 -7 18 -14 96 0 296 54 142 38 143 38 164 30z m45
-98 c-2 -2 -69 -7 -149 -10 -80 -4 -183 -8 -230 -11 -55 -3 -76 -1 -60 4 14 5
57 10 95 11 39 1 129 7 200 14 113 10 160 8 144 -8z"/>
<path d="M334 1173 c5 -48 14 -78 34 -107 34 -50 98 -95 135 -94 16 1 32 -3
35 -9 5 -6 23 -5 52 2 l45 11 -34 7 c-18 4 -51 7 -73 7 -52 0 -111 33 -144 81
-19 29 -28 55 -31 104 -3 36 -10 65 -16 65 -6 0 -7 -24 -3 -67z"/>
<path d="M1582 1170 c11 -28 23 -48 26 -45 7 7 -28 95 -38 95 -5 0 1 -23 12
-50z"/>
<path d="M665 1087 c-50 -26 -127 -27 -173 -3 -42 22 -54 14 -17 -10 15 -10
53 -20 85 -22 47 -3 69 1 114 21 54 25 70 39 44 36 -7 -1 -31 -11 -53 -22z"/>
<path d="M752 1068 c-14 -14 -16 -28 -3 -28 9 0 24 30 18 36 -2 2 -9 -2 -15
-8z"/>
<path d="M4231 1024 c0 -11 3 -14 6 -6 3 7 2 16 -1 19 -3 4 -6 -2 -5 -13z"/>
<path d="M660 1019 c0 -5 5 -7 10 -4 6 3 10 8 10 11 0 2 -4 4 -10 4 -5 0 -10
-5 -10 -11z"/>
<path d="M1679 968 c9 -28 17 -44 19 -35 4 21 -17 87 -27 87 -4 0 0 -23 8 -52z"/>
<path d="M4164 960 c-6 -29 -15 -45 -24 -45 -16 0 -17 6 -5 44 4 13 3 21 -2
18 -5 -3 -15 -29 -23 -56 -7 -28 -17 -51 -22 -51 -15 0 -19 26 -9 53 7 17 7
27 1 27 -6 0 -10 -9 -10 -20 0 -11 -7 -23 -15 -26 -10 -4 -12 -15 -8 -35 3
-18 1 -29 -6 -29 -11 0 -13 11 -13 65 1 17 -2 22 -4 13 -7 -22 -13 -22 -38 -3
-35 26 -42 16 -9 -11 34 -26 63 -99 63 -158 0 -49 10 -75 26 -69 9 3 14 -1 14
-12 0 -9 -4 -13 -10 -10 -6 4 -10 -5 -10 -19 0 -31 16 -34 25 -6 7 23 18 25
34 6 17 -20 -4 -70 -25 -62 -14 5 -15 -2 -10 -56 4 -35 20 -106 36 -158 17
-52 36 -120 45 -150 10 -40 21 -58 37 -65 17 -8 24 -21 29 -55 3 -25 7 -35 7
-23 3 31 16 36 37 13 13 -14 16 -28 11 -50 -3 -19 -2 -29 4 -25 6 3 10 15 10
26 0 26 12 24 40 -6 32 -34 38 -32 42 12 2 26 8 38 18 38 11 0 14 -10 13 -38
-3 -48 13 -48 21 1 7 43 7 114 -1 92 -2 -8 -7 -21 -9 -29 -3 -11 -7 -11 -20 0
-15 13 -15 15 2 114 4 21 2 26 -4 16 -5 -7 -15 -10 -21 -7 -14 9 -14 -7 0 -21
14 -14 2 -73 -15 -73 -7 0 -20 8 -29 18 -14 16 -13 27 13 137 16 66 27 122 25
124 -2 2 -7 -8 -11 -23 -7 -31 -15 -32 -38 -8 -15 18 -15 23 5 86 11 38 18 70
15 73 -3 3 -12 -21 -22 -53 -20 -71 -29 -83 -48 -64 -19 21 -2 84 21 76 13 -5
14 -4 3 9 -9 11 -10 25 -2 57 14 53 8 62 -8 14 -13 -39 -21 -44 -40 -21 -9 10
-9 23 -2 47 6 18 13 51 16 73 4 37 4 38 -7 13 -12 -31 -19 -34 -35 -15 -8 9
-5 38 9 101 11 49 17 91 15 94 -3 2 -8 -9 -11 -24 -13 -57 -17 -64 -31 -64
-18 0 -18 41 1 104 8 27 15 56 14 65 -1 9 -7 -2 -13 -24 -14 -44 -43 -56 -38
-15 1 13 6 27 10 30 4 3 5 19 2 35 -6 29 -7 29 -16 -15z m-24 -90 c0 -25 -18
-36 -26 -16 -8 21 3 49 16 41 5 -3 10 -15 10 -25z m38 -25 c-2 -14 -7 -26 -13
-26 -5 0 -11 12 -13 26 -2 18 1 25 13 25 12 0 15 -7 13 -25z m-95 -12 c-1 -11
-8 -33 -14 -49 -10 -24 -13 -26 -16 -11 -8 30 7 89 20 84 7 -2 11 -13 10 -24z
m35 -34 c-5 -35 -28 -36 -28 -1 0 16 3 32 7 36 11 11 25 -10 21 -35z m46 -37
c-7 -25 -32 -30 -40 -8 -3 8 0 24 6 36 10 19 14 20 26 9 8 -8 11 -24 8 -37z
m41 -27 c0 -43 -29 -40 -33 3 -3 28 0 33 15 30 13 -2 18 -12 18 -33z m-105 3
c0 -13 -5 -30 -10 -38 -14 -23 -32 2 -24 34 8 32 34 35 34 4z m38 -21 c14 -16
4 -57 -14 -57 -19 0 -25 16 -18 45 7 28 16 31 32 12z m52 -68 c0 -30 -17 -38
-37 -18 -8 8 -8 20 -1 40 8 24 13 27 24 18 8 -6 14 -24 14 -40z m50 -28 c0 -9
-5 -23 -10 -31 -8 -13 -11 -13 -25 1 -13 12 -14 21 -5 43 9 23 13 26 25 16 8
-7 15 -20 15 -29z m-74 -65 c-6 -33 -9 -35 -27 -25 -16 8 -19 16 -13 42 9 45
14 51 31 34 11 -11 14 -25 9 -51z m54 -12 c0 -7 -5 -25 -10 -39 -9 -23 -13
-25 -25 -15 -18 15 -19 29 -5 65 9 23 13 25 25 15 8 -7 15 -18 15 -26z m40
-19 c15 -18 4 -75 -15 -75 -21 0 -28 18 -21 56 7 37 17 42 36 19z m-122 -18
c8 -9 8 -24 1 -50 -5 -20 -12 -37 -15 -37 -10 0 -25 56 -19 77 6 26 17 29 33
10z m51 -85 c-12 -35 -21 -39 -37 -19 -8 10 -8 24 -1 52 11 37 11 38 30 18 17
-16 18 -23 8 -51z m51 -21 c0 -40 -15 -58 -34 -42 -19 16 -20 31 -4 65 9 20
14 23 25 15 7 -6 13 -23 13 -38z m45 -50 c-8 -44 -11 -47 -30 -31 -18 15 -19
29 -5 65 9 23 13 25 26 14 11 -9 14 -22 9 -48z m-121 -15 c-7 -30 -18 -25 -28
15 -7 32 3 44 21 26 9 -9 12 -23 7 -41z m170 19 c17 -13 18 -19 7 -55 -11 -36
-14 -39 -31 -27 -20 12 -24 35 -14 75 7 26 12 27 38 7z m-124 -20 c12 -14 5
-55 -11 -65 -5 -3 -4 -19 0 -35 5 -17 10 -24 10 -17 2 24 41 -7 41 -33 0 -31
-13 -38 -43 -24 -33 15 -53 91 -37 148 12 44 20 50 40 26z m49 -39 c17 -20 3
-68 -18 -64 -17 3 -27 39 -17 64 7 18 20 18 35 0z m59 -79 c-2 -19 -9 -32 -17
-32 -21 0 -35 29 -27 59 6 23 9 25 27 16 15 -9 19 -19 17 -43z m-30 -49 c17
-17 15 -68 -2 -68 -23 0 -37 26 -30 54 7 29 14 32 32 14z m65 -52 c17 -13 24
-66 10 -79 -13 -13 -53 36 -53 65 0 30 15 35 43 14z"/>
<path d="M2135 940 c3 -5 8 -10 11 -10 2 0 4 5 4 10 0 6 -5 10 -11 10 -5 0 -7
-4 -4 -10z"/>
<path d="M2375 870 c3 -5 11 -10 16 -10 6 0 7 5 4 10 -3 6 -11 10 -16 10 -6 0
-7 -4 -4 -10z"/>
<path d="M3786 807 c-15 -34 -40 -90 -57 -125 -40 -86 -36 -92 7 -9 20 39 40
67 47 64 16 -6 11 -45 -11 -77 -21 -31 -57 -111 -39 -88 6 9 17 24 22 33 9 14
12 14 30 2 19 -15 19 -15 0 -57 l-19 -43 26 -21 c25 -20 26 -23 12 -48 -8 -16
-11 -28 -6 -28 5 0 14 11 20 25 7 16 17 23 27 19 20 -8 19 -32 -3 -69 -10 -16
-21 -40 -24 -52 -5 -19 -4 -20 13 -10 15 9 22 8 34 -4 14 -14 14 -20 -5 -63
-22 -53 -24 -60 -11 -52 4 3 17 -1 27 -8 18 -13 18 -16 2 -49 -16 -34 -16 -35
10 -54 l27 -20 -17 -37 c-10 -20 -14 -36 -9 -36 5 0 14 13 21 30 14 34 14 34
40 20 13 -7 16 -17 12 -32 -5 -21 -4 -22 13 -8 14 11 19 12 22 3 3 -7 14 -13
24 -13 11 0 18 4 14 10 -10 15 6 60 22 60 8 0 11 5 8 10 -12 19 6 72 21 66 23
-9 16 11 -12 33 -24 19 -25 23 -15 52 6 18 11 39 10 48 0 9 -7 -3 -16 -26 -13
-38 -17 -42 -35 -32 -13 7 -18 17 -14 30 17 54 17 63 -1 32 -16 -28 -20 -30
-35 -19 -21 15 -22 26 -6 61 8 18 17 24 30 19 10 -3 18 -1 18 5 0 6 -5 11 -11
11 -11 0 -10 12 6 55 5 13 1 11 -12 -7 -14 -21 -22 -24 -36 -17 -16 9 -16 12
4 50 l20 40 -26 21 -26 20 25 44 c14 24 21 44 18 44 -4 0 -16 -16 -26 -35 -20
-36 -43 -45 -52 -21 -3 8 2 29 11 46 9 18 14 34 11 37 -3 3 -12 -11 -20 -31
-16 -39 -22 -42 -48 -22 -24 18 -23 31 8 83 14 25 23 47 20 50 -3 3 -17 -20
-33 -51 -15 -31 -30 -56 -33 -56 -3 0 -13 7 -23 14 -17 13 -17 15 4 50 17 29
24 34 35 25 16 -13 19 2 3 18 -8 8 -6 20 6 43 9 17 14 34 12 36 -2 3 -10 -9
-17 -26 -14 -33 -22 -37 -40 -16 -9 12 -7 25 9 62 12 26 20 49 18 50 -2 2 -16
-24 -31 -59z m64 -242 c21 -25 -11 -85 -40 -78 -30 8 -35 27 -14 62 20 34 35
39 54 16z m47 -36 c15 -15 -10 -69 -31 -69 -23 0 -25 11 -9 46 18 37 23 40 40
23z m52 -43 c8 -9 8 -21 0 -45 -12 -35 -16 -36 -41 -17 -21 15 -22 29 -8 57
12 22 33 25 49 5z m-45 -79 c17 -13 17 -15 2 -45 -18 -36 -20 -36 -46 -22 -19
10 -19 12 -3 45 19 39 22 40 47 22z m59 -33 c9 -9 -25 -74 -39 -74 -22 0 -25
18 -9 50 15 28 34 38 48 24z m-43 -99 c0 -21 -19 -65 -27 -65 -5 0 -14 4 -21
9 -11 6 -10 15 4 44 16 34 44 42 44 12z m49 -29 c14 -16 -5 -76 -24 -76 -25 0
-36 25 -24 59 12 33 29 40 48 17z m56 -74 c-9 -38 -21 -48 -40 -32 -18 15 -18
20 -5 55 9 22 13 24 31 15 16 -9 19 -17 14 -38z m-95 -12 c20 -10 17 -41 -5
-60 -19 -16 -45 19 -34 48 9 25 13 26 39 12z m130 -4 c0 -25 -12 -46 -26 -46
-17 0 -17 1 -4 34 10 28 30 35 30 12z m-71 -40 c9 -11 10 -20 1 -35 -21 -40
-57 -20 -46 25 7 27 27 31 45 10z m41 -44 c0 -28 -17 -49 -30 -36 -8 8 -8 18
1 37 13 28 29 27 29 -1z"/>
<path d="M3862 845 c-17 -37 -14 -45 4 -12 9 16 14 31 11 33 -2 2 -9 -7 -15
-21z"/>
<path d="M3646 825 c-9 -26 -7 -32 5 -12 6 10 9 21 6 23 -2 3 -7 -2 -11 -11z"/>
<path d="M3722 815 c-17 -37 -14 -45 4 -12 9 16 14 31 11 33 -2 2 -9 -7 -15
-21z"/>
<path d="M3431 705 c-60 -128 -74 -146 -97 -123 -13 13 -9 26 32 111 26 54 45
100 42 102 -3 3 -26 -38 -51 -90 -43 -88 -48 -95 -67 -85 -23 12 -25 23 -9 51
6 12 17 18 25 15 8 -3 14 -1 14 4 0 6 -5 10 -11 10 -11 0 -10 10 6 55 3 11 -1
8 -10 -7 -8 -16 -20 -28 -26 -28 -6 0 -7 -5 -4 -10 4 -6 -14 -49 -39 -97 -26
-47 -44 -88 -42 -90 3 -3 16 18 30 46 28 55 33 58 61 37 17 -13 16 -17 -26
-92 -49 -86 -69 -129 -69 -146 0 -7 21 29 48 79 66 127 73 136 95 119 15 -11
16 -18 6 -39 -7 -15 -17 -23 -25 -20 -8 3 -14 0 -14 -6 0 -6 5 -11 10 -11 7 0
7 -7 -1 -21 -7 -13 -17 -19 -29 -16 -16 4 -17 2 -8 -12 9 -14 -2 -39 -51 -125
-35 -59 -60 -110 -58 -113 3 -2 22 25 42 61 20 36 40 68 43 70 4 2 16 -2 26
-9 21 -16 16 -53 -10 -80 -15 -15 -14 -18 15 -43 32 -27 32 -27 17 -63 -14
-34 -14 -38 5 -54 15 -14 18 -27 14 -54 -5 -31 -4 -33 5 -13 10 25 37 25 33 1
-2 -10 10 -15 37 -17 34 -2 42 1 49 20 5 13 16 40 25 61 25 58 10 44 -18 -18
-24 -54 -50 -71 -62 -41 -6 16 76 186 132 274 22 34 29 50 16 39 -11 -10 -44
-63 -74 -117 -51 -95 -69 -113 -76 -76 -3 14 53 124 145 284 14 23 23 42 21
42 -6 0 -58 -83 -102 -162 -38 -70 -44 -76 -63 -57 -9 9 5 45 55 143 81 160
106 214 94 201 -5 -5 -45 -77 -87 -160 -43 -82 -81 -153 -84 -158 -4 -4 -15 1
-25 12 -16 18 -16 21 -1 51 13 26 19 29 31 19 16 -13 19 2 3 18 -12 12 4 53
21 53 6 0 10 8 10 18 0 10 26 69 57 132 66 131 78 159 65 145 -6 -5 -38 -65
-72 -133 -35 -67 -66 -125 -70 -127 -4 -3 -15 4 -24 14 -16 18 -15 24 31 112
73 143 113 229 105 229 -4 0 -32 -52 -61 -115z m-72 -249 c9 -11 10 -20 1 -35
-13 -25 -18 -26 -41 -5 -15 13 -16 20 -6 35 14 23 30 24 46 5z m-35 -59 c17
-13 17 -15 2 -45 -16 -31 -17 -32 -41 -16 -29 19 -30 23 -9 52 18 26 24 27 48
9z m10 -126 c14 -15 15 -23 5 -45 -14 -29 -31 -33 -49 -11 -10 12 -10 21 0 45
15 35 21 37 44 11z m54 -57 c1 -10 -4 -28 -12 -39 -12 -16 -16 -17 -30 -6 -14
12 -14 16 0 43 16 32 37 33 42 2z m-41 -70 c3 -8 0 -27 -6 -41 -11 -24 -13
-25 -28 -10 -14 13 -14 21 -5 42 13 28 30 33 39 9z m41 -45 c4 -23 -25 -56
-38 -43 -8 8 -8 18 1 38 13 27 32 30 37 5z"/>
<path d="M4475 609 c7 -245 27 -444 56 -542 11 -38 22 -67 25 -65 2 3 -3 27
-11 54 -28 96 -46 262 -55 507 -4 137 -11 251 -14 255 -4 3 -4 -91 -1 -209z"/>
<path d="M3103 718 c-65 -121 -200 -328 -213 -328 -5 0 -10 4 -10 9 0 5 52 95
115 199 63 105 115 194 115 197 0 16 -22 -10 -41 -48 -12 -23 -56 -97 -98
-164 l-76 -123 -23 25 c-12 14 -25 25 -29 25 -7 0 19 -33 35 -43 17 -11 -4
-51 -24 -43 -20 8 -17 -4 7 -30 24 -26 18 -70 -8 -60 -11 5 -13 2 -9 -10 3 -8
6 -20 6 -25 0 -5 7 -9 15 -9 8 0 15 -5 15 -11 0 -20 -21 -49 -36 -49 -11 0
-13 -6 -9 -19 3 -11 1 -22 -5 -26 -5 -3 -10 -11 -10 -17 0 -6 8 -4 18 5 17 15
19 15 35 0 15 -15 15 -18 -1 -45 -13 -22 -23 -28 -39 -25 -24 4 -31 -7 -12
-19 6 -3 8 -18 5 -33 -6 -24 -5 -25 8 -8 19 24 31 4 15 -25 -12 -22 -11 -23 8
-5 18 16 22 16 33 2 14 -17 40 -20 40 -5 0 5 14 32 31 60 17 28 29 53 27 56
-3 2 -19 -18 -36 -46 -31 -49 -45 -59 -57 -40 -8 13 24 60 42 60 9 0 13 6 10
14 -5 13 60 124 159 272 19 28 34 54 34 59 0 14 -46 -51 -120 -171 -73 -116
-94 -142 -104 -125 -4 5 22 54 57 108 116 179 287 486 287 515 0 7 -21 -27
-46 -77 -61 -120 -152 -276 -242 -414 l-73 -114 -21 20 c-19 20 -19 22 -3 47
17 25 19 26 36 10 21 -19 24 -13 9 17 -9 16 6 46 93 187 147 236 207 339 207
354 0 7 -28 -34 -61 -92 -34 -58 -106 -176 -161 -263 -81 -128 -103 -156 -114
-146 -15 12 -2 49 16 49 6 0 10 7 10 16 0 8 35 71 79 138 87 137 176 295 169
302 -3 2 -27 -38 -55 -88z m-186 -594 c2 -5 -8 -22 -21 -39 -21 -26 -25 -28
-31 -13 -4 10 1 27 12 42 18 25 34 29 40 10z"/>
<path d="M3896 774 c-9 -20 -15 -39 -12 -41 3 -3 12 12 21 32 20 49 14 56 -9
9z"/>
<path d="M2924 757 c-57 -88 -59 -93 -42 -79 18 15 72 101 66 107 -2 2 -13
-11 -24 -28z"/>
<path d="M3616 759 c-10 -17 -16 -33 -13 -36 3 -3 13 9 22 27 21 41 14 48 -9
9z"/>
<path d="M2996 727 c-16 -29 -47 -78 -69 -110 -21 -32 -37 -61 -34 -63 6 -6
86 115 116 174 32 62 21 61 -13 -1z"/>
<path d="M3686 735 c-9 -26 -7 -32 5 -12 6 10 9 21 6 23 -2 3 -7 -2 -11 -11z"/>
<path d="M1806 660 c4 -36 8 -67 10 -69 9 -10 3 106 -6 119 -8 10 -9 -5 -4
-50z"/>
<path d="M1861 674 c0 -11 3 -14 6 -6 3 7 2 16 -1 19 -3 4 -6 -2 -5 -13z"/>
<path d="M4455 640 c-3 -5 -15 -38 -26 -72 -11 -35 -26 -67 -33 -73 -7 -6 -10
-20 -6 -35 5 -20 13 -4 42 83 33 98 39 124 23 97z"/>
<path d="M1764 614 c3 -9 6 -37 6 -62 1 -35 3 -43 10 -30 12 19 1 108 -12 108
-6 0 -7 -7 -4 -16z"/>
<path d="M1724 566 c9 -47 25 -90 32 -84 6 7 -17 100 -29 113 -6 6 -7 -5 -3
-29z"/>
<path d="M2845 580 c3 -5 8 -10 11 -10 2 0 4 5 4 10 0 6 -5 10 -11 10 -5 0 -7
-4 -4 -10z"/>
<path d="M4430 456 c-15 -39 -23 -76 -17 -76 7 0 38 92 32 98 -2 3 -9 -7 -15
-22z"/>
<path d="M3580 386 l35 -37 -34 -62 c-20 -37 -27 -56 -17 -48 15 13 19 12 36
-5 19 -19 19 -20 -4 -59 -12 -22 -27 -39 -32 -38 -5 1 -18 5 -29 8 -16 6 -15
3 5 -14 25 -20 25 -21 7 -53 l-17 -33 23 28 23 27 22 -20 c21 -20 21 -23 7
-50 -9 -17 -11 -30 -6 -30 5 0 13 9 16 20 8 25 35 27 35 3 0 -12 8 -18 25 -19
21 -2 24 1 14 12 -8 10 -3 28 25 78 41 73 45 87 17 62 -18 -17 -20 -17 -29 0
-6 11 -7 27 -1 42 5 14 8 27 5 29 -2 3 -7 -5 -11 -16 -8 -25 -27 -27 -46 -5
-10 13 -8 24 15 71 15 30 25 58 22 60 -2 3 -16 -18 -30 -46 -28 -55 -36 -60
-57 -35 -10 13 -8 24 14 70 27 54 37 87 16 51 -10 -18 -12 -18 -25 2 -8 12
-25 26 -37 32 -16 8 -12 1 13 -25z m75 -206 c15 -17 16 -24 5 -49 -7 -17 -19
-36 -27 -43 -13 -10 -19 -8 -34 11 -19 23 -19 24 3 62 25 45 28 46 53 19z m39
-93 c-17 -36 -37 -47 -49 -27 -3 5 4 28 15 51 19 37 23 40 36 27 13 -13 13
-19 -2 -51z"/>
<path d="M1763 374 c7 -44 39 -124 50 -124 10 0 9 3 -13 55 -11 26 -20 60 -20
76 0 16 -5 29 -11 29 -8 0 -10 -13 -6 -36z"/>
<path d="M1730 352 c0 -7 4 -22 10 -32 11 -21 -6 -124 -24 -139 -6 -5 -23 -12
-37 -16 -23 -6 -27 -2 -42 36 -9 23 -20 40 -23 36 -3 -3 3 -30 14 -59 11 -30
26 -82 32 -116 7 -34 16 -62 20 -62 7 0 -7 106 -16 121 -2 5 13 19 34 33 31
19 42 34 51 70 15 61 14 98 -4 122 -9 12 -14 14 -15 6z"/>
<path d="M1242 278 c0 -54 -12 -85 -48 -128 l-29 -33 -6 24 c-4 13 -7 57 -8
98 -1 41 -3 72 -6 69 -10 -10 -6 -201 4 -211 15 -15 55 25 86 87 25 49 35 136
16 136 -5 0 -9 -19 -9 -42z"/>
<path d="M4415 290 c3 -5 11 -10 16 -10 6 0 7 5 4 10 -3 6 -11 10 -16 10 -6 0
-7 -4 -4 -10z"/>
<path d="M1920 272 c0 -5 7 -15 15 -22 8 -7 15 -8 15 -2 0 5 -7 15 -15 22 -8
7 -15 8 -15 2z"/>
<path d="M3155 140 c-25 -49 -27 -51 -44 -36 -26 24 -34 19 -15 -9 23 -35 12
-60 -18 -44 -23 12 -23 12 -5 -9 11 -11 16 -25 13 -30 -3 -5 6 -9 19 -9 20 0
23 2 15 12 -8 10 0 33 30 90 23 43 39 79 36 82 -2 3 -17 -18 -31 -47z"/>
<path d="M4100 85 c-17 -38 -29 -73 -27 -78 1 -5 17 23 35 63 18 40 30 75 27
78 -2 3 -18 -26 -35 -63z"/>
<path d="M2636 54 c-20 -31 -31 -54 -24 -52 13 5 72 98 65 104 -2 2 -20 -22
-41 -52z"/>
<path d="M1694 74 c9 -38 50 -74 85 -74 25 0 28 3 23 25 -3 18 -18 31 -51 47
-25 12 -50 24 -55 26 -5 3 -6 -8 -2 -24z"/>
<path d="M1592 50 c4 -35 -15 -41 -22 -8 -5 20 -7 21 -13 5 -10 -27 3 -47 32
-47 25 0 26 2 23 40 -2 22 -8 40 -14 40 -5 0 -8 -13 -6 -30z"/>
<path d="M1150 58 c1 -41 13 -58 43 -58 30 0 30 1 14 18 -16 15 -19 15 -27 2
-8 -12 -10 -9 -10 12 0 15 -4 30 -10 33 -5 3 -10 0 -10 -7z"/>
<path d="M3745 40 c-9 -18 -14 -34 -11 -37 2 -3 12 9 21 27 9 18 14 34 11 37
-2 3 -12 -9 -21 -27z"/>
<path d="M4141 34 c-6 -15 -9 -29 -7 -32 3 -2 10 8 16 23 14 36 7 43 -9 9z"/>
<path d="M2320 25 c13 -14 26 -25 28 -25 3 0 -5 11 -18 25 -13 14 -26 25 -28
25 -3 0 5 -11 18 -25z"/>
<path d="M880 32 c0 -12 23 -32 37 -32 8 0 6 7 -7 20 -21 21 -30 25 -30 12z"/>
<path d="M2970 21 c-6 -12 -7 -21 -1 -21 10 0 24 30 17 37 -2 3 -9 -5 -16 -16z"/>
<path d="M3155 20 c-10 -11 -14 -20 -9 -20 5 0 15 9 22 20 16 26 10 26 -13 0z"/>
</g>
</svg>
