<?xml version="1.0" standalone="no"?>
<!DOCTYPE svg PUBLIC "-//W3C//DTD SVG 20010904//EN"
 "http://www.w3.org/TR/2001/REC-SVG-20010904/DTD/svg10.dtd">
<svg version="1.0" xmlns="http://www.w3.org/2000/svg"
 width="586.000000pt" height="623.000000pt" viewBox="0 0 586.000000 623.000000"
 preserveAspectRatio="xMidYMid meet">

<g transform="translate(0.000000,623.000000) scale(0.100000,-0.100000)"
fill="#000000" stroke="none">
<path d="M1554 5966 c-36 -16 -69 -54 -86 -102 -12 -33 -15 -35 -212 -100
-195 -65 -201 -67 -275 -60 -208 17 -203 17 -116 1 44 -8 175 -19 290 -25 251
-12 465 -19 413 -13 -42 5 -41 2 -39 93 1 68 14 90 53 90 12 0 18 -8 18 -25 0
-27 25 -45 65 -45 19 0 29 8 42 35 32 66 63 38 63 -56 0 -98 0 -99 -84 -101
-62 -1 -58 -2 39 -8 63 -5 114 -4 120 1 5 5 -5 9 -27 9 l-36 0 2 85 c0 47 5
85 10 85 33 0 496 -161 496 -172 0 -4 -51 -9 -112 -11 -98 -2 -92 -3 46 -5 88
-1 156 2 150 6 -11 10 -200 77 -431 153 -143 47 -164 56 -173 80 -33 78 -137
119 -216 85z m82 -15 c-3 -5 12 -11 33 -15 38 -6 95 -51 86 -67 -7 -11 -34 0
-57 23 -24 24 -49 23 -76 -2 -12 -11 -35 -23 -52 -27 -30 -5 -30 -5 -20 23 6
16 16 34 22 42 9 11 6 12 -18 7 -28 -6 -28 -6 -10 9 21 17 101 23 92 7z m-102
-48 c-9 -7 -21 -10 -26 -7 -14 9 1 23 23 21 19 -1 19 -2 3 -14z m156 -28 c7
-9 9 -26 5 -45 -6 -29 -10 -31 -43 -28 -34 3 -37 5 -35 31 4 51 45 76 73 42z
m-238 -131 c-2 -32 -5 -61 -7 -63 -7 -6 -325 11 -325 18 0 9 311 111 325 107
6 -2 9 -28 7 -62z m31 -24 c-3 -12 -8 -19 -11 -16 -5 6 5 36 12 36 2 0 2 -9
-1 -20z"/>
<path d="M238 5803 c-23 -27 -42 -69 -71 -158 -71 -218 -97 -445 -106 -935 -4
-212 -4 -392 1 -400 8 -17 15 233 10 405 -5 206 27 589 64 760 36 165 97 325
124 325 15 0 34 -46 26 -65 -4 -11 -13 -14 -25 -10 -29 9 -44 -20 -45 -87 l-1
-61 135 2 c74 1 137 4 139 7 2 2 -50 4 -117 4 l-121 0 24 53 c16 32 25 70 25
101 0 45 1 48 23 42 66 -20 358 -66 407 -65 31 1 16 5 -50 14 -136 19 -318 53
-369 70 -56 19 -55 19 -73 -2z m16 -119 c20 -8 20 -24 0 -53 -13 -18 -19 -20
-25 -10 -6 12 -1 69 6 69 2 0 10 -3 19 -6z"/>
<path d="M2800 5686 c-3 -2 -80 -10 -172 -16 -92 -6 -180 -15 -195 -20 -31
-10 22 -7 216 11 154 13 569 22 605 11 16 -4 34 -15 39 -23 18 -29 -2 -91 -43
-131 -34 -34 -43 -38 -88 -38 -28 0 -95 7 -149 15 -208 32 -235 35 -286 34
-49 -2 -47 -2 23 -10 41 -5 139 -18 218 -29 79 -11 160 -20 181 -20 21 0 40
-3 43 -6 3 -3 -1 -29 -8 -57 -21 -78 -46 -208 -40 -214 2 -3 8 12 11 33 4 22
18 84 31 138 22 89 28 103 60 130 38 30 73 95 74 132 0 11 -9 29 -21 40 -19
17 -42 19 -258 22 -130 2 -238 1 -241 -2z"/>
<path d="M1938 5643 c12 -2 32 -2 45 0 12 2 2 4 -23 4 -25 0 -35 -2 -22 -4z"/>
<path d="M595 5564 c55 -7 120 -13 145 -12 31 0 14 4 -50 14 -52 7 -117 13
-145 12 -37 0 -25 -4 50 -14z"/>
<path d="M1930 5550 c0 -12 98 -12 155 -1 32 7 21 9 -57 10 -60 1 -98 -3 -98
-9z"/>
<path d="M2143 5553 c12 -11 66 -13 72 -3 4 6 -11 10 -36 10 -23 0 -39 -3 -36
-7z"/>
<path d="M817 5543 c18 -2 50 -2 70 0 21 2 7 4 -32 4 -38 0 -55 -2 -38 -4z"/>
<path d="M998 5543 c6 -2 18 -2 25 0 6 3 1 5 -13 5 -14 0 -19 -2 -12 -5z"/>
<path d="M1058 5538 c8 -8 23 -8 54 -1 l43 11 -54 1 c-42 1 -52 -2 -43 -11z"/>
<path d="M1220 5540 c0 -7 85 -9 268 -4 147 4 269 8 271 10 2 2 -118 4 -267 4
-181 0 -272 -3 -272 -10z"/>
<path d="M2345 5540 c66 -4 165 -7 220 -7 l100 0 -100 7 c-55 4 -154 7 -220 7
l-120 -1 120 -6z"/>
<path d="M390 5479 c0 -4 19 -10 43 -12 40 -3 40 -4 -10 -5 -40 -2 -53 -6 -53
-17 0 -9 10 -15 26 -15 14 0 23 4 19 10 -4 6 10 10 34 10 23 0 41 -4 41 -10 0
-5 14 -10 30 -10 17 0 30 5 30 10 0 20 61 10 88 -15 l27 -25 -32 0 c-25 0 -31
-4 -27 -15 5 -12 24 -15 85 -15 43 0 79 -3 79 -8 0 -4 9 -13 20 -20 18 -11 20
-10 20 13 0 16 -6 25 -15 25 -8 0 -15 5 -15 10 0 6 -25 10 -56 10 -34 0 -53 4
-49 10 3 6 3 19 0 30 -5 16 -16 20 -58 22 -43 1 -46 2 -14 5 77 8 32 18 -88
19 -69 1 -125 -2 -125 -7z m127 -15 c-3 -3 -12 -4 -19 -1 -8 3 -5 6 6 6 11 1
17 -2 13 -5z"/>
<path d="M760 5473 c0 -7 8 -13 18 -13 9 0 35 -3 57 -7 36 -6 38 -5 24 9 -20
20 -99 29 -99 11z"/>
<path d="M959 5473 c-5 -51 -3 -63 11 -63 9 0 22 9 30 20 8 11 21 20 30 20 8
0 24 7 34 15 18 14 14 15 -42 15 -34 0 -62 -3 -63 -7z"/>
<path d="M833 5433 c9 -2 17 -11 17 -19 0 -8 10 -14 23 -14 20 1 21 2 5 14
-10 7 -15 16 -11 19 3 4 -7 6 -23 6 -17 -1 -22 -3 -11 -6z"/>
<path d="M494 5411 c3 -5 15 -7 26 -4 28 7 25 13 -6 13 -14 0 -23 -4 -20 -9z"/>
<path d="M490 5380 c0 -5 9 -10 19 -10 11 0 23 5 26 10 4 6 -5 10 -19 10 -14
0 -26 -4 -26 -10z"/>
<path d="M860 5380 c0 -5 14 -10 30 -10 17 0 30 5 30 10 0 6 -13 10 -30 10
-16 0 -30 -4 -30 -10z"/>
<path d="M500 5352 c0 -4 9 -8 20 -9 11 -1 18 2 15 8 -7 11 -35 12 -35 1z"/>
<path d="M658 5353 c6 -2 18 -2 25 0 6 3 1 5 -13 5 -14 0 -19 -2 -12 -5z"/>
<path d="M893 5353 c9 -2 23 -2 30 0 6 3 -1 5 -18 5 -16 0 -22 -2 -12 -5z"/>
<path d="M923 5333 c9 -2 23 -2 30 0 6 3 -1 5 -18 5 -16 0 -22 -2 -12 -5z"/>
<path d="M490 5320 c0 -5 9 -10 19 -10 11 0 23 5 26 10 4 6 -5 10 -19 10 -14
0 -26 -4 -26 -10z"/>
<path d="M658 5323 c6 -2 18 -2 25 0 6 3 1 5 -13 5 -14 0 -19 -2 -12 -5z"/>
<path d="M858 5293 c-19 -45 -15 -54 11 -24 11 12 17 30 14 41 -3 11 -6 20 -7
20 -1 0 -9 -17 -18 -37z"/>
<path d="M645 5300 c-3 -5 3 -10 14 -10 12 0 21 5 21 10 0 6 -6 10 -14 10 -8
0 -18 -4 -21 -10z"/>
<path d="M943 5303 c9 -2 23 -2 30 0 6 3 -1 5 -18 5 -16 0 -22 -2 -12 -5z"/>
<path d="M1670 5304 c0 -3 5 -14 10 -25 8 -15 7 -19 -5 -19 -8 0 -15 -4 -15
-10 0 -17 25 -11 37 10 15 22 7 50 -13 50 -8 0 -14 -3 -14 -6z"/>
<path d="M500 5290 c0 -5 9 -10 20 -10 11 0 20 5 20 10 0 6 -9 10 -20 10 -11
0 -20 -4 -20 -10z"/>
<path d="M4633 5285 c5 -12 -5 -13 -58 -10 -36 3 -94 7 -130 10 -60 4 -89 -5
-65 -20 5 -3 15 -15 21 -26 10 -20 9 -20 -45 -14 -31 4 -56 4 -56 -1 0 -5 19
-28 42 -51 l42 -43 -31 0 c-18 0 -35 -5 -38 -10 -4 -7 -19 -4 -42 10 -19 11
-38 18 -43 15 -4 -3 -22 14 -39 37 -59 80 -142 117 -220 100 -29 -6 -36 -14
-44 -42 -15 -57 -1 -158 32 -239 30 -72 50 -105 58 -98 2 2 -8 24 -21 48 -53
96 -86 255 -56 274 6 3 10 15 10 26 0 29 92 27 151 -4 56 -30 122 -124 150
-217 23 -78 34 -91 24 -30 -4 22 -4 40 -1 40 2 0 22 -9 43 -21 29 -15 32 -16
13 -2 -49 36 -80 65 -80 74 0 5 45 -14 101 -42 56 -27 104 -48 107 -45 2 3
-27 20 -66 38 -39 18 -71 36 -72 40 0 4 7 5 15 2 9 -4 15 0 15 9 0 11 12 17
42 19 l43 3 -53 37 c-28 21 -52 42 -52 48 0 13 76 13 102 -1 26 -14 35 -4 15
19 -15 17 -15 18 6 17 53 -1 158 -97 200 -182 12 -24 25 -43 30 -43 4 0 -4 23
-19 50 -27 49 -163 190 -184 190 -6 0 -10 4 -10 9 0 14 107 12 152 -4 52 -18
66 -19 50 -3 -19 19 -14 37 8 31 11 -3 20 -12 20 -20 0 -8 8 -27 18 -41 28
-41 75 -142 69 -148 -3 -3 -11 5 -18 18 -25 49 -82 129 -87 123 -3 -3 4 -15
15 -28 12 -12 45 -66 73 -120 29 -54 54 -96 56 -94 9 8 -28 122 -62 188 -19
39 -33 74 -30 77 18 17 106 -108 140 -200 14 -37 31 -64 40 -66 9 -2 16 -1 16
3 0 12 -52 140 -61 150 -14 14 -10 35 5 29 21 -8 68 -121 71 -171 2 -24 6 -47
10 -51 20 -18 -7 116 -35 175 -16 36 -29 68 -27 70 2 2 22 -10 44 -26 50 -36
99 -129 109 -207 3 -30 9 -53 12 -50 3 3 12 28 22 55 22 65 51 106 114 160 69
59 144 93 185 85 65 -13 63 -85 -3 -210 -33 -61 -57 -91 -108 -134 -36 -30
-62 -56 -58 -58 5 -2 29 6 54 16 34 16 43 17 39 6 -3 -8 -9 -14 -14 -14 -5 0
-9 -4 -9 -10 0 -15 37 -12 70 5 41 21 38 27 -5 9 -38 -15 -43 -10 -20 20 8 11
15 26 15 34 0 13 -3 12 -18 -1 -37 -33 -31 -16 10 36 51 62 99 164 106 224 6
52 -15 88 -55 96 -69 13 -248 -114 -297 -212 l-23 -45 -17 51 c-24 73 -68 137
-112 163 -22 13 -50 33 -63 44 -17 15 -25 17 -28 9 -3 -9 -14 -5 -37 12 -69
53 -187 87 -173 50z"/>
<path d="M740 5280 c0 -5 5 -10 11 -10 5 0 7 5 4 10 -3 6 -8 10 -11 10 -2 0
-4 -4 -4 -10z"/>
<path d="M648 5255 c4 -13 10 -25 15 -25 70 -2 87 1 87 15 0 10 -11 15 -35 15
-19 0 -35 5 -35 10 0 6 -9 10 -19 10 -16 0 -18 -5 -13 -25z"/>
<path d="M1500 5259 c-7 -11 -9 -24 -5 -27 7 -7 35 25 35 40 0 16 -19 8 -30
-13z"/>
<path d="M508 5263 c6 -2 18 -2 25 0 6 3 1 5 -13 5 -14 0 -19 -2 -12 -5z"/>
<path d="M1747 5253 c-4 -3 -7 -15 -7 -27 0 -15 -3 -17 -11 -9 -9 9 -17 6 -33
-8 -26 -25 -23 -34 12 -34 20 0 28 -5 30 -22 2 -13 6 -23 10 -23 11 0 34 41
27 48 -3 4 -10 0 -15 -8 -7 -12 -10 -12 -16 3 -4 11 0 25 10 36 25 27 18 69
-7 44z"/>
<path d="M490 5240 c0 -5 9 -10 20 -10 11 0 20 5 20 10 0 6 -9 10 -20 10 -11
0 -20 -4 -20 -10z"/>
<path d="M978 5231 c-27 -27 -22 -31 37 -30 59 2 62 3 42 23 -22 22 -61 26
-79 7z"/>
<path d="M1888 5240 c-19 -11 -91 -110 -85 -116 2 -2 22 19 43 48 22 29 47 54
55 56 24 4 43 -49 34 -95 -4 -27 -3 -35 4 -28 20 20 22 69 4 104 -20 39 -31
45 -55 31z"/>
<path d="M802 5231 c-39 -10 -25 -26 23 -26 25 0 45 5 45 10 0 14 -40 23 -68
16z"/>
<path d="M1259 5203 c-6 -16 -13 -49 -16 -75 -5 -38 -1 -54 20 -91 31 -52 26
-92 -22 -165 -25 -39 -28 -48 -15 -52 9 -3 29 7 48 25 37 34 40 46 4 21 -36
-25 -38 -19 -10 37 46 94 46 94 27 113 -43 43 -54 135 -21 179 10 14 18 11 63
-21 29 -20 55 -45 58 -55 4 -11 11 -19 16 -19 5 0 3 13 -6 30 -14 26 -107 100
-128 100 -4 0 -12 -12 -18 -27z"/>
<path d="M1447 5200 c5 -29 -8 -42 -22 -20 -10 17 -25 11 -25 -9 0 -10 10 -25
22 -33 22 -14 23 -13 39 21 17 39 14 71 -7 71 -10 0 -12 -8 -7 -30z"/>
<path d="M4523 5161 c62 -68 85 -103 55 -85 -50 31 -144 98 -146 105 -2 5 -8
9 -13 9 -19 0 2 -20 64 -62 34 -23 83 -59 110 -81 26 -21 47 -34 47 -29 0 17
-85 125 -136 172 -36 34 -31 26 19 -29z"/>
<path d="M503 5213 c9 -2 25 -2 35 0 9 3 1 5 -18 5 -19 0 -27 -2 -17 -5z"/>
<path d="M660 5210 c-12 -8 -9 -10 13 -10 16 0 26 4 22 10 -8 12 -16 12 -35 0z"/>
<path d="M498 5193 c18 -2 45 -2 60 0 15 2 0 4 -33 4 -33 0 -45 -2 -27 -4z"/>
<path d="M1500 5185 c0 -8 4 -15 9 -15 5 0 11 7 15 15 3 9 0 15 -9 15 -8 0
-15 -7 -15 -15z"/>
<path d="M4001 5178 c-7 -18 -5 -24 10 -26 9 -2 23 -10 29 -18 15 -17 6 -18
-22 -3 -36 19 -30 2 7 -21 38 -23 42 -40 6 -20 -34 18 -24 -3 10 -23 34 -19
34 -36 0 -17 -13 6 -21 7 -21 1 0 -5 9 -13 20 -16 11 -3 20 -13 20 -21 0 -8 7
-17 15 -20 8 -4 15 -16 15 -28 0 -12 9 -27 20 -34 11 -7 20 -18 20 -25 0 -8
12 -19 27 -26 34 -16 44 -1 37 54 -10 70 -26 109 -71 172 -64 91 -105 115
-122 71z m44 -8 c3 -5 -1 -10 -9 -10 -9 0 -16 5 -16 10 0 6 4 10 9 10 6 0 13
-4 16 -10z"/>
<path d="M655 5180 c3 -5 13 -10 21 -10 8 0 14 5 14 10 0 6 -9 10 -21 10 -11
0 -17 -4 -14 -10z"/>
<path d="M1545 5174 c-22 -8 -49 -24 -60 -35 l-20 -21 35 20 c19 11 46 23 60
27 22 7 23 6 11 -9 -12 -14 -9 -16 25 -17 22 -1 58 -3 82 -3 23 -1 42 1 42 6
0 4 -15 8 -32 8 -51 0 -77 10 -71 26 7 18 -19 17 -72 -2z"/>
<path d="M781 5160 c-24 -21 -108 -29 -96 -10 3 6 -4 10 -17 10 -14 0 -19 -3
-11 -8 15 -10 4 -28 -22 -35 -11 -2 27 -5 85 -6 58 0 99 3 92 8 -10 6 -10 10
3 21 18 15 20 40 3 40 -7 -1 -24 -10 -37 -20z m-8 -37 c-13 -2 -33 -2 -45 0
-13 2 -3 4 22 4 25 0 35 -2 23 -4z"/>
<path d="M1888 5150 c-15 -17 -30 -45 -34 -63 -3 -17 -17 -45 -30 -60 -67 -80
-28 -196 82 -242 41 -17 54 -43 31 -60 -22 -16 -21 -23 0 -21 12 1 19 -7 21
-24 3 -21 2 -22 -12 -11 -19 16 -20 6 -5 -37 7 -20 7 -37 1 -48 -9 -15 -11
-15 -22 7 -16 31 -51 69 -63 69 -5 0 5 -16 22 -35 38 -44 47 -77 28 -105 -14
-20 -15 -20 -21 14 -7 37 -50 96 -69 96 -7 0 -2 -8 9 -18 27 -22 44 -54 44
-84 0 -13 5 -29 11 -35 7 -7 0 -16 -25 -31 l-35 -21 -18 57 c-9 31 -16 68 -15
82 2 24 1 24 -14 -5 -27 -50 -36 -53 -156 -49 -114 5 -148 16 -148 51 0 7 -5
13 -11 13 -7 0 -8 -7 -3 -17 4 -10 9 -56 12 -103 l4 -85 -37 35 c-32 31 -36
39 -30 70 4 19 13 47 21 62 8 15 10 28 5 28 -5 0 -17 -23 -26 -50 -9 -28 -21
-48 -26 -45 -5 3 1 29 12 58 29 73 34 91 22 84 -5 -3 -18 -31 -28 -61 -20 -60
-36 -74 -56 -50 -10 13 -8 25 14 70 15 30 23 54 19 54 -5 0 -16 -19 -27 -42
-10 -24 -25 -52 -33 -63 -27 -37 -6 39 24 87 21 34 23 39 7 25 -11 -10 -28
-35 -38 -57 -21 -47 -32 -50 -41 -12 -3 15 -7 33 -10 40 -2 7 10 40 27 74 17
33 28 62 25 65 -2 2 -15 -17 -27 -44 l-23 -48 -4 34 c-3 25 5 46 33 90 l37 56
-41 -40 c-40 -39 -40 -41 -41 -113 0 -48 7 -94 21 -135 16 -47 18 -66 10 -79
-6 -10 -11 -27 -11 -38 0 -12 -4 -18 -10 -15 -6 4 -8 21 -4 41 3 19 2 34 -3
34 -5 0 -36 -25 -69 -55 -32 -30 -62 -55 -66 -55 -5 0 -8 -5 -8 -11 0 -5 10
-3 22 5 30 21 37 20 31 -5 -3 -11 -11 -18 -19 -15 -7 3 -16 1 -20 -5 -4 -6
-11 -5 -21 3 -13 10 -15 29 -10 105 4 78 3 96 -11 113 -17 20 -84 31 -98 17
-4 -4 11 -7 32 -7 22 0 45 -5 52 -12 17 -17 17 -299 0 -316 -16 -16 -123 -16
-136 1 -6 7 -14 78 -18 158 -7 146 -7 146 17 162 15 11 18 17 9 17 -46 -1 -50
-25 -40 -202 l8 -153 -56 -58 c-31 -32 -79 -77 -106 -100 -49 -41 -50 -42
-195 -65 -79 -13 -82 -69 -4 -64 l38 3 -33 -33 c-39 -41 -43 -78 -8 -78 13 0
29 7 36 15 21 25 29 17 23 -21 -11 -69 39 -65 73 5 20 42 38 52 48 26 7 -20
42 -19 50 1 3 9 6 28 6 42 0 68 24 113 86 162 54 43 65 47 109 42 30 -3 45 -1
45 7 0 6 -4 11 -10 11 -5 0 -10 21 -9 48 0 39 2 43 10 24 l9 -24 33 21 c60 38
189 102 195 97 3 -3 -2 -41 -11 -83 -10 -43 -20 -104 -23 -135 -4 -32 -10 -58
-14 -58 -3 0 -25 21 -47 46 -49 54 -44 56 -165 -50 -87 -77 -109 -109 -89
-129 8 -8 11 -4 11 15 0 19 21 43 90 104 50 43 96 81 101 83 6 2 49 -35 95
-83 99 -100 100 -92 -8 -190 -86 -78 -90 -79 -191 -4 -37 28 -70 48 -73 46 -3
-3 28 -29 68 -59 90 -65 98 -74 98 -116 0 -26 -5 -36 -22 -43 -19 -7 -16 -9
21 -9 33 -1 41 2 34 12 -6 6 -13 26 -16 43 -5 29 -1 36 45 74 l50 43 -7 -34
c-4 -19 -18 -79 -31 -134 -13 -54 -22 -100 -21 -101 10 -8 84 -44 91 -44 5 0
17 -7 26 -15 16 -15 16 -18 -12 -45 -16 -17 -36 -30 -44 -30 -8 0 -14 -5 -14
-11 0 -6 -7 -9 -15 -5 -8 3 -15 1 -15 -5 0 -6 -18 -8 -42 -6 -34 3 -42 8 -40
22 2 9 -1 14 -6 11 -6 -3 -12 1 -16 9 -6 17 -56 21 -56 4 0 -5 -4 -8 -9 -5 -5
4 -11 0 -14 -6 -3 -10 -8 -10 -17 -2 -9 9 -5 16 19 30 17 10 31 22 31 27 0 10
-13 3 -58 -30 -23 -17 -40 -23 -57 -19 -19 5 -23 3 -19 -9 7 -18 45 -20 62 -3
9 9 12 8 12 -6 0 -9 -4 -15 -9 -11 -6 3 -15 -4 -21 -15 -13 -23 -30 -27 -30
-5 0 8 -5 15 -11 15 -6 0 -18 9 -27 20 -17 20 -17 20 -67 -15 -49 -35 -62 -38
-110 -20 -20 7 -20 6 -1 -9 30 -24 68 -19 114 14 23 17 44 30 47 30 2 0 11
-13 20 -30 21 -40 50 -39 114 5 28 19 55 35 61 35 5 0 16 -13 25 -29 22 -44
62 -71 106 -71 51 0 81 13 128 56 l41 36 -1 -125 0 -126 -42 19 c-78 36 -148
18 -192 -48 -23 -34 -26 -48 -23 -110 1 -39 5 -69 9 -67 3 3 16 -7 29 -20 13
-13 42 -32 66 -41 50 -19 62 -47 31 -69 -20 -14 -19 -15 23 -15 40 1 43 2 28
14 -28 21 -23 55 10 66 15 6 35 15 45 20 14 8 17 6 19 -12 2 -41 14 -124 36
-253 17 -105 -15 -137 -152 -150 -38 -4 -80 -12 -92 -17 -43 -20 -41 -138 3
-155 9 -4 55 3 102 15 104 26 201 42 258 42 42 0 54 10 45 43 -5 21 -89 59
-114 51 -32 -10 -19 12 17 29 48 23 53 22 70 -15 8 -18 13 -24 11 -13 -3 11
-7 34 -10 50 -3 17 0 66 6 110 7 44 13 141 13 215 0 81 4 138 10 142 7 5 6 13
-3 25 -6 10 -15 25 -18 33 -3 8 -10 24 -16 34 -5 11 -14 40 -18 65 -8 45 -8
45 -9 -21 -1 -52 -5 -69 -18 -77 -15 -9 -15 -10 -3 -11 9 0 21 5 27 11 7 7 13
7 17 1 9 -15 -20 -33 -64 -39 -26 -4 -40 -2 -40 6 0 6 6 11 13 12 6 0 2 4 -10
9 -13 5 -23 17 -23 27 0 10 -7 31 -15 47 -16 31 -20 113 -6 135 7 11 13 7 26
-15 13 -24 15 -25 12 -6 -4 14 0 22 9 22 8 0 14 10 14 25 0 14 5 25 11 25 6 0
9 7 5 15 -3 8 2 19 11 24 15 8 15 11 -1 35 -20 31 -11 57 10 29 16 -21 18 -10
4 18 -7 13 -7 19 -1 19 10 0 16 -17 24 -70 3 -14 5 -4 6 21 l1 46 86 7 c47 4
88 5 91 3 2 -3 5 -81 7 -173 5 -221 4 -213 17 -192 6 11 6 24 1 35 -6 10 -7
47 -3 83 l7 65 19 -37 c21 -42 41 -53 23 -13 -14 32 -3 45 17 19 19 -25 19
-11 0 26 -8 16 -12 36 -9 45 6 14 8 14 21 -2 14 -17 14 -17 8 2 -16 44 -17 55
-7 55 6 0 13 -6 15 -12 4 -9 6 -8 6 3 1 8 -5 21 -11 28 -11 11 -10 13 5 8 20
-7 21 -3 7 23 -8 15 -6 17 9 13 11 -3 21 -12 23 -21 7 -30 1 -340 -7 -352 -6
-9 -27 -10 -76 -6 -75 8 -74 8 -69 -51 1 -12 -6 -50 -15 -84 -11 -47 -13 -70
-5 -93 20 -63 48 -212 45 -246 -1 -19 -6 -60 -9 -90 -11 -86 -1 -93 130 -101
70 -4 129 -14 165 -27 42 -15 66 -18 97 -12 23 4 44 5 47 2 12 -13 3 -40 -17
-50 l-23 -11 25 0 c31 0 75 17 48 18 -14 1 -18 10 -18 41 0 37 6 46 80 118 44
42 80 83 80 91 0 8 -19 30 -42 50 -23 20 -59 53 -80 74 -21 20 -41 37 -44 37
-29 0 -179 -163 -170 -186 7 -19 -51 -29 -80 -13 -41 22 -58 86 -51 199 4 72
3 100 -6 103 -7 2 -10 7 -7 10 3 3 23 -7 45 -22 35 -23 40 -32 43 -69 3 -36 0
-44 -20 -51 -19 -8 -13 -10 30 -10 57 -1 65 5 27 19 -45 17 -30 62 40 117 63
50 109 114 100 141 -3 11 -18 28 -33 38 -15 10 -50 40 -79 67 l-52 49 -36 -22
c-20 -12 -39 -19 -43 -15 -8 8 -14 231 -7 263 l6 23 34 -29 c18 -17 47 -33 64
-37 27 -6 31 -11 31 -41 0 -23 -5 -34 -14 -34 -8 0 -17 -4 -20 -9 -3 -5 15 -9
41 -9 25 -1 42 2 38 6 -3 4 -12 7 -18 7 -7 0 -13 16 -15 35 -3 32 1 37 41 58
111 58 116 210 10 268 -27 15 -37 32 -62 103 -16 48 -33 94 -36 104 -6 14 -2
17 24 17 17 0 31 5 31 10 0 6 -4 10 -10 10 -5 0 -10 15 -10 34 0 26 9 44 36
73 62 65 114 134 114 152 0 17 -150 161 -168 161 -5 0 -12 17 -15 38 -3 20 -9
47 -13 60 -5 18 -3 22 18 22 13 0 40 -11 60 -25 20 -14 42 -25 47 -25 6 0 11
-4 11 -8 0 -5 11 -14 25 -20 27 -13 34 -49 13 -70 -9 -9 -6 -12 15 -12 24 0
27 3 21 25 -5 20 -3 24 10 19 9 -3 16 -9 16 -13 0 -4 34 -27 75 -52 48 -28 78
-54 86 -72 6 -15 22 -35 34 -45 36 -28 45 -56 45 -136 0 -69 2 -76 20 -76 11
0 27 11 36 25 24 37 49 31 84 -20 39 -56 70 -61 70 -12 0 18 -5 38 -12 45 -21
21 0 24 23 3 13 -12 33 -21 46 -21 19 0 23 5 23 29 0 16 -7 36 -15 45 -20 19
-19 26 3 26 25 0 42 14 47 38 5 28 -11 39 -66 47 -66 10 -76 18 -61 50 16 35
15 110 -2 143 -23 43 -62 74 -105 82 -45 8 -91 3 -91 -11 0 -5 8 -6 18 -2 9 3
-2 -11 -25 -31 -52 -45 -67 -91 -49 -143 19 -54 42 -65 67 -31 11 15 48 55 82
87 59 59 60 61 43 80 -10 11 -36 23 -58 26 -21 4 -37 9 -34 12 13 13 79 -11
111 -41 35 -33 52 -73 20 -46 -13 11 -26 2 -84 -55 -77 -76 -90 -100 -59 -116
28 -15 82 -3 118 27 35 30 41 18 7 -14 -66 -62 -183 -38 -222 45 -26 54 -16
116 26 159 37 38 32 60 -6 24 -22 -21 -26 -22 -47 -7 -13 8 -34 25 -47 37 -27
26 -42 14 -37 -30 2 -14 1 -19 -1 -12 -2 6 -9 12 -14 12 -17 0 -9 35 16 64 21
25 25 39 25 96 0 62 -2 68 -33 98 -30 29 -38 32 -98 32 -61 0 -67 -2 -99 -35
-42 -42 -54 -44 -46 -7 3 15 11 58 19 97 10 53 17 71 31 73 16 3 15 6 -5 16
-40 19 -35 49 11 80 51 34 80 80 80 129 0 79 -50 138 -128 153 -33 6 -33 7
-26 50 7 52 -2 55 -38 14z m9 -42 c-3 -8 -6 -5 -6 6 -1 11 2 17 5 13 3 -3 4
-12 1 -19z m-34 -75 c-4 -9 -15 -25 -25 -35 -12 -12 -18 -33 -18 -64 0 -40 5
-51 39 -85 45 -45 40 -52 -7 -11 -55 47 -60 136 -11 188 27 28 31 30 22 7z
m128 1 c32 -16 59 -66 59 -109 0 -14 -5 -25 -11 -25 -12 0 -79 46 -129 90 -34
29 -34 31 -16 45 25 19 59 19 97 -1z m16 -178 c-6 -19 -57 -38 -84 -31 -15 3
-41 21 -60 40 -34 34 -42 69 -23 106 10 18 16 15 91 -42 44 -34 78 -67 76 -73z
m43 15 c0 -17 -18 -21 -24 -6 -3 9 0 15 9 15 8 0 15 -4 15 -9z m126 -335 c30
-30 34 -40 34 -89 0 -52 -2 -56 -49 -100 -44 -41 -53 -45 -87 -41 -30 3 -49
15 -81 49 -36 37 -43 50 -43 85 0 34 7 48 41 85 39 43 44 45 96 45 49 0 59 -4
89 -34z m-678 -98 c0 -51 -2 -65 -8 -48 -11 34 -12 133 -1 126 4 -3 8 -38 9
-78z m280 7 c3 -37 1 -55 -7 -55 -6 0 -11 15 -11 34 0 18 -3 49 -6 67 -5 28
-4 32 6 22 7 -7 15 -37 18 -68z m-236 -5 c2 -59 0 -70 -12 -68 -22 4 -28 138
-6 138 11 0 15 -17 18 -70z m98 44 c13 -33 13 -154 0 -154 -6 0 -10 26 -10 58
0 31 -4 72 -9 90 -12 39 5 44 19 6z m43 -65 c-1 -72 -1 -78 7 -39 5 25 9 62 9
83 1 29 5 37 20 37 13 0 20 -10 25 -31 13 -65 9 -78 -51 -168 -1 -2 -9 3 -17
11 -10 10 -15 41 -16 99 -2 104 -3 102 13 96 8 -3 11 -28 10 -88z m-331 57 c3
3 28 -18 54 -46 61 -65 104 -96 113 -82 4 7 28 -3 65 -26 41 -25 61 -32 64
-23 3 9 11 6 27 -9 l23 -22 20 45 c16 37 24 45 40 40 14 -3 22 1 26 14 3 11
19 32 35 47 l28 27 11 -38 c5 -21 17 -67 27 -102 l17 -63 -86 -82 c-110 -105
-110 -111 -13 -203 56 -53 71 -73 69 -91 -4 -28 -64 -58 -132 -66 -25 -3 -71
-8 -103 -12 -31 -4 -60 -10 -63 -15 -7 -11 107 -6 125 5 11 7 13 5 8 -6 -4
-11 2 -18 19 -22 15 -4 26 -16 29 -34 3 -15 10 -40 14 -57 15 -50 12 -3 -3 53
-12 49 -8 70 13 58 5 -4 12 -24 16 -46 4 -22 10 -40 15 -40 4 0 2 23 -5 50
l-13 50 44 26 c26 16 47 36 50 50 6 25 28 32 39 13 4 -5 4 -21 1 -33 -5 -22
-16 -29 -76 -46 l-25 -8 27 -1 c17 -1 34 -10 43 -25 14 -21 55 -138 55 -157 0
-4 -16 -10 -35 -13 -39 -8 -100 -56 -110 -87 -4 -11 -12 -18 -18 -16 -7 2 -28
-2 -47 -10 -34 -14 -93 -17 -293 -15 -93 2 -115 5 -161 27 -29 14 -58 25 -64
25 -24 0 -82 34 -82 49 0 8 12 64 26 125 28 121 51 159 82 139 9 -6 16 -15 15
-20 -1 -5 -5 -34 -9 -64 -8 -62 6 -59 21 4 9 33 16 43 34 45 21 3 23 1 19 -27
-5 -36 8 -29 16 9 4 17 -1 33 -15 50 -14 17 -19 19 -15 8 3 -12 0 -18 -9 -18
-8 0 -15 5 -15 10 0 6 -6 10 -13 10 -8 0 -21 8 -31 18 -15 18 -15 20 4 37 29
26 25 61 -10 87 -28 21 -30 25 -30 94 0 63 28 217 60 324 5 19 10 48 10 64 0
21 4 27 15 23 8 -4 17 -2 21 4 4 7 10 6 18 0 7 -6 15 -8 18 -5z m246 -76 c9
-64 -1 -89 -18 -45 -13 35 -13 146 0 123 6 -9 14 -44 18 -78z m-384 41 c-4
-19 -10 -29 -16 -23 -5 5 -4 20 2 37 14 36 22 28 14 -14z m596 -3 c0 -5 -4 -8
-10 -8 -5 0 -10 10 -10 23 0 18 2 19 10 7 5 -8 10 -18 10 -22z m-570 -43 c0
-8 -4 -15 -10 -15 -5 0 -10 7 -10 15 0 8 5 15 10 15 6 0 10 -7 10 -15z m-40
-15 c0 -5 -2 -10 -4 -10 -3 0 -8 5 -11 10 -3 6 -1 10 4 10 6 0 11 -4 11 -10z
m-75 -40 c3 -5 1 -10 -4 -10 -6 0 -11 5 -11 10 0 6 2 10 4 10 3 0 8 -4 11 -10z
m1143 -73 c21 -22 22 -28 11 -49 -7 -12 -12 -34 -10 -48 2 -23 2 -24 -14 -8
-10 9 -17 29 -17 45 0 15 -7 40 -14 55 -29 55 -5 58 44 5z m196 8 c45 -19 42
-26 -47 -113 -57 -57 -65 -61 -77 -47 -31 38 -12 128 33 155 39 24 44 24 91 5z
m-1387 -17 c-3 -8 -6 -5 -6 6 -1 11 2 17 5 13 3 -3 4 -12 1 -19z m-161 -49
c-3 -17 -6 -39 -6 -49 0 -10 -23 -33 -52 -54 -65 -45 -91 -84 -108 -161 -15
-70 -28 -90 -36 -57 -10 36 -37 25 -66 -28 -16 -28 -35 -50 -43 -50 -18 0 -19
13 -3 57 16 44 5 51 -32 19 -17 -14 -38 -26 -46 -26 -24 0 -16 27 16 53 43 37
40 57 -9 57 -37 0 -61 14 -47 27 6 7 73 19 153 30 45 5 100 48 211 160 61 61
77 67 68 22z m114 21 c0 -5 -4 -10 -10 -10 -5 0 -10 5 -10 10 0 6 5 10 10 10
6 0 10 -4 10 -10z m-87 -32 l-4 -33 15 25 c15 24 15 24 16 3 0 -28 -10 -53
-22 -53 -5 0 -6 5 -3 10 3 6 -1 10 -10 10 -12 0 -14 6 -9 28 13 51 22 57 17
10z m1060 -52 c37 -34 67 -71 67 -81 0 -41 -121 -165 -161 -165 -30 0 -94 47
-140 103 l-31 38 26 37 c32 47 133 132 155 132 9 -1 46 -29 84 -64z m225 46
c6 -18 -15 -14 -22 4 -4 10 -1 14 6 12 6 -2 14 -10 16 -16z m318 -7 c8 -32
-12 -80 -44 -105 -28 -23 -102 -28 -102 -8 0 13 119 138 132 138 4 0 10 -11
14 -25z m79 -154 c43 -5 50 -9 53 -30 4 -23 2 -23 -42 -17 -26 4 -46 3 -46 -2
0 -5 14 -26 30 -47 17 -21 30 -41 30 -46 0 -21 -25 -18 -50 6 -18 17 -35 25
-45 21 -14 -5 -14 -8 0 -35 37 -72 8 -87 -39 -21 -42 58 -66 63 -98 20 -28
-39 -38 -38 -38 5 0 33 2 35 33 35 40 0 66 14 43 23 -9 4 -16 18 -16 31 0 20
10 31 48 50 26 13 56 21 67 19 11 -3 43 -8 70 -12z m-197 -58 c3 -28 0 -33
-17 -33 -12 0 -21 6 -21 13 0 6 -3 23 -7 35 -5 21 -3 23 18 20 19 -2 25 -10
27 -35z m-564 -446 c-45 -41 -58 -108 -27 -146 l19 -23 60 62 c32 34 66 73 74
87 14 22 13 26 -4 39 -11 8 -16 14 -12 14 15 0 65 -34 71 -47 3 -9 0 -11 -6
-7 -12 7 -159 -134 -159 -153 0 -29 68 -43 113 -22 28 13 41 34 61 99 14 44
14 45 15 12 3 -99 -93 -166 -182 -129 -89 38 -104 176 -25 231 38 27 39 18 2
-17z m121 3 c9 -14 -119 -145 -133 -136 -7 4 -12 24 -12 46 0 55 44 100 98
100 23 0 43 -4 47 -10z m55 -83 c0 -70 -62 -127 -116 -107 -23 9 -24 13 -13
28 32 42 113 121 121 116 4 -3 8 -20 8 -37z m-340 -27 c0 -5 -4 -10 -10 -10
-5 0 -10 5 -10 10 0 6 5 10 10 10 6 0 10 -4 10 -10z m25 -29 c3 -5 1 -12 -5
-16 -5 -3 -10 1 -10 9 0 18 6 21 15 7z m-35 -8 c0 -5 -5 -15 -10 -23 -8 -12
-10 -11 -10 8 0 12 5 22 10 22 6 0 10 -3 10 -7z m-289 -26 c-13 -13 -26 -3
-16 12 3 6 11 8 17 5 6 -4 6 -10 -1 -17z m309 -27 c0 -11 -4 -20 -10 -20 -5 0
-10 9 -10 20 0 11 5 20 10 20 6 0 10 -9 10 -20z m-333 -12 c-3 -8 -6 -5 -6 6
-1 11 2 17 5 13 3 -3 4 -12 1 -19z m-7 -39 c0 -5 -4 -9 -10 -9 -5 0 -10 7 -10
16 0 8 5 12 10 9 6 -3 10 -10 10 -16z m317 -1 c-3 -8 -6 -5 -6 6 -1 11 2 17 5
13 3 -3 4 -12 1 -19z m-537 -118 l-25 -19 20 -24 c11 -14 43 -55 70 -91 28
-36 55 -65 62 -66 19 0 33 35 33 83 0 44 -18 78 -65 120 -20 18 -20 18 5 11
57 -15 104 -113 85 -176 -24 -76 -107 -119 -175 -91 -73 31 -107 89 -95 164 7
43 65 109 94 109 12 0 9 -6 -9 -20z m111 -39 c27 -27 39 -47 39 -67 0 -38 -10
-74 -20 -74 -5 0 -36 35 -70 77 -56 71 -60 78 -44 90 30 22 55 15 95 -26z
m684 -87 c28 -25 60 -52 73 -61 12 -8 22 -24 22 -35 0 -41 -110 -148 -153
-148 -25 0 -156 110 -157 132 0 13 142 158 154 158 6 0 34 -21 61 -46z m-157
-11 c-12 -15 -124 -18 -132 -4 -9 14 0 16 72 16 55 0 68 -3 60 -12z m-293 -13
c3 -5 1 -10 -4 -10 -6 0 -11 5 -11 10 0 6 2 10 4 10 3 0 8 -4 11 -10z m-72
-24 c-3 -6 -15 -21 -26 -33 -25 -28 -47 -15 -47 26 0 25 2 26 40 23 26 -3 38
-8 33 -16z m284 -8 c26 -24 29 -38 9 -38 -12 0 -46 40 -46 55 0 11 14 4 37
-17z m42 13 c9 -6 10 -11 2 -15 -13 -8 -31 1 -31 15 0 11 11 11 29 0z m-289
-8 c0 -5 -20 -29 -44 -54 -23 -26 -48 -61 -55 -78 -14 -31 -31 -42 -31 -18 0
15 21 46 73 110 36 43 57 58 57 40z m29 -50 c5 -21 6 -60 2 -88 l-6 -50 -42
39 c-24 21 -43 43 -43 48 0 12 61 86 72 87 4 1 11 -16 17 -36z m199 7 c12 -16
22 -34 22 -40 0 -6 7 -13 15 -16 33 -13 37 -42 14 -84 -13 -22 -26 -40 -31
-40 -17 0 -77 76 -78 98 0 32 21 112 29 112 4 0 17 -13 29 -30z m-332 -28 c-9
-8 -26 10 -26 26 1 15 2 15 15 -2 8 -11 13 -21 11 -24z m77 -80 c29 -25 19
-35 -13 -12 -16 12 -30 26 -30 31 0 11 16 4 43 -19z m5 -44 c8 -10 5 -21 -14
-46 -31 -39 -37 -39 -59 -5 -20 31 -23 67 -5 88 11 13 16 12 40 -5 15 -10 32
-25 38 -32z m317 -7 c-8 -17 -21 -33 -27 -37 -8 -5 -7 1 3 16 8 14 19 31 23
38 15 25 16 11 1 -17z m-6 -113 c29 -52 28 -52 -48 42 -33 41 -61 80 -61 85 1
16 82 -80 109 -127z m-297 62 c-20 -28 -46 -67 -58 -86 -20 -34 -38 -38 -26
-6 14 39 97 142 114 142 4 0 -9 -23 -30 -50z m340 38 c2 -7 1 -38 -2 -68 l-5
-55 -28 37 -29 37 22 31 c23 32 36 38 42 18z m-307 -101 c-3 -34 -9 -65 -12
-70 -3 -5 -16 8 -30 28 l-25 36 27 40 c37 52 49 41 40 -34z m190 54 c3 -5 1
-12 -5 -16 -5 -3 -10 1 -10 9 0 18 6 21 15 7z m-301 -17 c7 -18 0 -34 -15 -34
-5 0 -9 11 -9 25 0 28 15 34 24 9z m316 -24 c0 -5 -5 -10 -11 -10 -5 0 -7 5
-4 10 3 6 8 10 11 10 2 0 4 -4 4 -10z m453 -22 c18 -18 50 -48 70 -66 20 -18
37 -39 37 -46 0 -15 -127 -136 -142 -136 -25 0 -158 101 -158 120 0 16 132
160 146 160 7 0 28 -15 47 -32z m-403 -26 c13 -20 44 -61 68 -90 25 -29 42
-56 38 -59 -7 -8 -56 25 -56 38 0 5 -13 15 -30 20 -16 6 -27 15 -24 20 3 5 10
7 15 4 5 -4 9 -2 9 3 0 15 -33 24 -40 12 -10 -17 -40 16 -40 44 0 20 16 46 30
46 3 0 16 -17 30 -38z m-291 -47 c0 -5 -9 1 -19 14 -11 13 -20 28 -20 35 0 6
9 0 20 -14 11 -14 20 -29 19 -35z m-25 -1 c15 -22 16 -28 5 -35 -8 -5 -20 -9
-26 -9 -7 0 -13 -4 -13 -8 0 -13 -80 -55 -88 -47 -4 4 -2 10 5 12 25 9 63 45
63 59 0 19 18 54 28 54 4 0 15 -12 26 -26z m366 -93 c19 -17 31 -30 25 -30 -5
-1 -35 22 -65 50 -56 51 -24 36 40 -20z m-81 35 c8 -10 9 -16 1 -21 -6 -3 -8
-11 -4 -16 6 -11 -13 -39 -27 -39 -10 0 -12 73 -2 83 10 11 19 8 32 -7z m231
-41 c0 -3 -10 -19 -21 -34 -12 -16 -19 -34 -15 -39 7 -12 75 -23 140 -22 35 1
47 -2 44 -12 -10 -29 -56 -33 -142 -10 -46 12 -108 22 -137 23 -77 0 -132 12
-137 28 -4 11 10 13 71 9 74 -5 76 -4 97 24 25 35 47 38 24 3 -23 -35 -8 -31
23 5 21 26 53 41 53 25z m-646 -66 c-16 -26 21 -29 169 -15 20 2 35 1 32 -3
-2 -5 -44 -11 -92 -14 -48 -4 -127 -17 -175 -31 -82 -23 -126 -25 -129 -5 -6
31 -3 34 39 30 59 -4 105 15 97 40 -5 15 -2 19 17 17 19 -3 23 1 20 22 l-2 25
15 -28 c9 -15 13 -32 9 -38z m682 46 c-3 -10 1 -15 13 -15 22 0 45 -25 36 -40
-10 -16 -28 -12 -59 15 -24 21 -27 27 -16 40 16 19 34 19 26 0z m-856 -40
c-13 -14 -26 -22 -29 -19 -3 3 5 14 18 25 33 27 39 24 11 -6z m88 4 c2 -14
-39 -39 -65 -39 -23 0 -14 25 15 42 30 19 46 18 50 -3z"/>
<path d="M2036 4493 c-3 -4 -2 -11 3 -17 5 -6 11 -29 13 -51 3 -38 4 -38 8 12
3 35 1 54 -7 57 -6 3 -14 2 -17 -1z"/>
<path d="M2097 4494 c-4 -4 -7 -27 -7 -51 0 -56 24 -54 28 2 3 37 -8 62 -21
49z m10 -46 c-3 -8 -6 -5 -6 6 -1 11 2 17 5 13 3 -3 4 -12 1 -19z"/>
<path d="M2151 4448 c1 -29 4 -43 6 -31 2 12 11 27 18 33 11 9 12 17 4 31 -18
34 -29 20 -28 -33z"/>
<path d="M1983 4474 c-4 -10 0 -20 10 -26 20 -11 22 -34 5 -41 -7 -2 -10 -8
-6 -12 12 -13 38 3 38 23 0 11 -6 25 -14 32 -8 6 -12 18 -9 26 3 8 0 14 -6 14
-7 0 -14 -7 -18 -16z"/>
<path d="M1277 4364 c-14 -14 -7 -25 12 -19 27 8 30 -2 20 -60 -14 -83 -15
-88 0 -93 9 -3 11 1 7 14 -7 24 16 129 29 129 27 0 17 -130 -15 -187 -11 -20
-7 -23 38 -33 21 -4 32 -3 32 5 0 6 -4 9 -9 6 -4 -3 -16 0 -26 8 -22 16 -13
78 11 69 9 -3 14 1 14 12 0 9 -4 13 -10 10 -12 -8 -13 25 -1 44 6 9 18 12 37
7 27 -6 28 -5 10 9 -11 8 -22 15 -26 15 -3 0 -10 10 -15 22 -6 13 -23 25 -40
29 -16 4 -37 9 -46 13 -8 4 -18 3 -22 0z"/>
<path d="M1458 4280 l16 -50 -29 -30 c-16 -16 -36 -30 -44 -30 -9 0 -11 -3 -5
-9 13 -14 38 -18 39 -6 0 6 8 21 18 35 15 21 19 23 27 10 5 -8 10 -25 10 -36
0 -12 7 -27 15 -34 19 -15 19 -14 -1 44 -19 56 -9 85 35 107 23 11 24 13 6 17
-12 3 -27 -5 -42 -24 -23 -30 -25 -28 -37 29 -4 15 -10 27 -15 27 -5 0 -2 -22
7 -50z"/>
<path d="M1338 3994 c-4 -6 -10 -31 -13 -55 -4 -30 -3 -38 4 -24 7 16 11 8 21
-43 10 -47 19 -67 37 -79 13 -9 26 -13 29 -11 2 3 -6 12 -20 21 -23 15 -38 70
-49 177 -1 14 -5 20 -9 14z"/>
<path d="M1410 3849 c0 -17 31 -79 40 -79 5 0 15 -3 24 -6 10 -4 5 11 -17 44
-31 50 -47 63 -47 41z"/>
<path d="M1360 3755 c0 -8 2 -15 4 -15 2 0 6 7 10 15 3 8 1 15 -4 15 -6 0 -10
-7 -10 -15z"/>
<path d="M1346 3715 c-3 -9 -6 -22 -5 -28 0 -7 5 -1 10 12 5 13 8 26 5 28 -2
2 -6 -3 -10 -12z"/>
<path d="M1311 3684 c0 -11 3 -14 6 -6 3 7 2 16 -1 19 -3 4 -6 -2 -5 -13z"/>
<path d="M1326 3655 c-9 -26 -7 -32 5 -12 6 10 9 21 6 23 -2 3 -7 -2 -11 -11z"/>
<path d="M1297 3619 c-9 -34 -8 -49 2 -49 15 0 23 38 13 56 -8 14 -10 13 -15
-7z"/>
<path d="M878 4167 c-3 -19 -2 -25 4 -19 6 6 8 18 6 28 -3 14 -5 12 -10 -9z"/>
<path d="M841 4134 c0 -11 3 -14 6 -6 3 7 2 16 -1 19 -3 4 -6 -2 -5 -13z"/>
<path d="M1938 4129 c-10 -10 -28 -19 -40 -19 -13 0 -29 -4 -35 -8 -13 -8 -23
-125 -12 -137 4 -3 18 -3 32 0 23 6 26 13 29 53 2 35 7 48 21 50 12 2 17 -3
17 -17 0 -29 11 -26 45 9 l29 30 -29 30 c-33 35 -34 35 -57 9z m52 -24 c6 -8
9 -19 5 -25 -8 -13 -32 -13 -37 0 -2 6 -15 6 -33 2 -27 -8 -30 -13 -33 -55 -2
-34 -7 -47 -18 -47 -12 0 -14 11 -12 53 l3 52 42 10 c23 6 45 13 49 18 11 11
20 9 34 -8z"/>
<path d="M1097 3112 c-34 -37 -13 -118 42 -165 24 -20 43 -27 76 -27 27 0 45
5 48 14 3 7 -18 40 -47 73 -28 32 -63 74 -77 92 -24 31 -26 31 -42 13z m82
-83 c64 -74 70 -86 46 -95 -26 -10 -80 15 -102 49 -23 33 -33 117 -14 117 4 0
36 -32 70 -71z"/>
<path d="M1866 3014 c-4 -10 3 -23 16 -34 27 -21 28 -20 -37 -46 -27 -11 -50
-25 -50 -31 0 -16 76 -74 94 -71 23 5 24 26 2 45 -29 24 -27 28 19 47 48 19
52 41 12 79 -32 31 -47 34 -56 11z m-22 -105 c-3 -6 6 -22 22 -35 16 -13 24
-23 17 -24 -20 0 -67 46 -59 58 4 7 12 12 17 12 6 0 7 -5 3 -11z"/>
<path d="M2021 2584 c-26 -34 -26 -36 4 -64 21 -20 25 -21 31 -6 3 9 15 16 25
16 16 0 19 -8 19 -45 0 -38 3 -45 19 -45 15 0 20 9 23 43 6 65 -1 87 -28 87
-13 0 -33 9 -44 20 -25 25 -24 25 -49 -6z m43 -19 c16 -12 17 -15 4 -15 -9 0
-18 -6 -21 -12 -3 -10 -7 -10 -17 -1 -13 12 -7 43 7 43 4 0 17 -7 27 -15z m64
-26 c9 -22 3 -84 -6 -74 -3 3 -6 16 -8 30 -1 14 -5 34 -9 45 -9 27 13 26 23
-1z"/>
<path d="M3137 5173 c-4 -3 -6 -22 -6 -42 l1 -36 8 40 c8 42 8 49 -3 38z"/>
<path d="M1280 5140 c0 -35 24 -110 35 -110 7 0 21 -3 31 -7 15 -5 16 -2 10
23 -13 51 -76 130 -76 94z"/>
<path d="M5310 5116 c-25 -18 -61 -53 -80 -77 -19 -24 -38 -45 -42 -47 -4 -2
-8 -11 -8 -20 0 -9 -11 -41 -25 -70 -28 -61 -30 -66 -13 -56 8 5 9 2 5 -9 -3
-10 -4 -17 -1 -17 14 0 84 62 79 70 -6 9 16 34 52 57 29 19 23 29 -9 13 -14
-7 -7 3 17 24 22 20 45 36 51 36 14 0 44 71 44 105 0 33 -16 31 -70 -9z m34
-31 c-10 -8 -23 -14 -29 -14 -5 -1 1 8 15 19 14 10 27 17 29 14 3 -2 -4 -11
-15 -19z m-19 -50 c-43 -35 -56 -31 -16 6 18 16 36 27 39 24 4 -3 -7 -17 -23
-30z"/>
<path d="M3115 5027 c-4 -31 -5 -62 -3 -69 3 -7 8 16 12 51 4 35 5 65 2 68 -2
3 -7 -20 -11 -50z"/>
<path d="M1476 5044 c-48 -48 -26 -124 36 -124 30 0 55 26 68 71 21 71 -49
107 -104 53z m82 4 c26 -26 5 -102 -31 -112 -28 -7 -67 19 -67 45 0 55 66 99
98 67z"/>
<path d="M4726 5042 c10 -19 25 -39 33 -45 9 -8 8 0 -5 21 -10 19 -25 39 -33
45 -9 8 -8 0 5 -21z"/>
<path d="M4980 5067 c0 -3 7 -21 15 -40 8 -20 15 -51 15 -69 0 -18 5 -40 10
-48 7 -11 10 -8 10 16 0 37 -27 131 -40 139 -6 3 -10 4 -10 2z"/>
<path d="M1652 5048 c-15 -15 -15 -50 -1 -82 23 -49 68 -45 93 9 13 27 14 38
5 59 -10 21 -19 26 -49 26 -20 0 -41 -5 -48 -12z m76 -10 c19 -19 14 -53 -11
-76 -22 -21 -24 -21 -39 -5 -24 27 -31 62 -18 78 15 18 52 19 68 3z"/>
<path d="M4374 4985 c21 -16 32 -13 21 4 -3 6 -14 11 -23 11 -15 -1 -15 -2 2
-15z"/>
<path d="M3092 4844 c-6 -55 -19 -200 -27 -324 -9 -124 -19 -247 -23 -273 l-7
-48 -220 161 c-432 316 -497 359 -479 318 3 -7 119 -97 257 -200 447 -333 447
-333 448 -376 2 -30 3 -32 6 -9 2 15 8 27 12 27 10 0 184 -131 224 -168 l28
-26 -65 -33 c-72 -37 -86 -54 -86 -110 0 -74 17 -109 78 -159 109 -91 182
-167 182 -191 0 -43 41 -207 56 -224 7 -8 14 -27 14 -40 0 -14 6 -33 14 -44 7
-11 16 -29 19 -40 3 -14 5 -10 6 12 0 17 -3 35 -9 38 -15 10 -12 45 5 45 8 0
19 -9 25 -20 15 -28 43 -25 111 11 55 30 101 82 102 117 1 48 70 -37 103 -127
10 -25 22 -50 27 -56 7 -7 7 -3 3 10 -4 11 -10 33 -13 48 -5 26 -4 28 21 21
34 -8 33 6 -4 41 -16 16 -30 24 -30 18 0 -6 6 -13 13 -16 6 -2 9 -7 6 -11 -12
-13 -36 5 -52 39 -9 19 -29 42 -44 51 -15 10 -30 19 -32 21 -2 1 -12 31 -22
65 -20 66 -20 44 1 -55 10 -51 9 -62 -6 -85 -24 -36 -40 -49 -102 -79 -33 -15
-57 -22 -63 -16 -11 11 -64 163 -74 211 -4 20 -3 32 4 32 21 0 25 -5 23 -31
-4 -29 20 -54 43 -45 20 7 20 65 -1 81 -14 10 -7 20 51 76 36 35 70 65 74 67
4 1 13 -19 19 -45 l11 -48 -5 50 c-7 61 -20 78 -40 51 -8 -11 -14 -18 -15 -15
0 2 -2 27 -3 54 -2 28 -6 59 -11 69 -5 12 20 -2 68 -38 l77 -56 12 26 c11 23
10 29 -5 38 -53 32 -270 201 -282 220 -8 12 -23 51 -35 88 -21 70 -47 99 -80
91 -10 -3 -23 -18 -29 -35 -12 -35 2 -42 -173 84 l-138 99 0 72 c0 88 15 298
36 509 17 176 15 236 -4 82z m-391 -421 c13 -16 12 -17 -3 -4 -17 13 -22 21
-14 21 2 0 10 -8 17 -17z m405 -292 c252 -181 276 -201 239 -201 -8 0 -32 15
-52 33 -21 19 -158 125 -305 236 -148 111 -268 204 -268 206 0 3 53 -34 118
-81 64 -46 185 -133 268 -193z m343 -148 c20 -40 36 -103 27 -103 -10 0 -56
99 -56 120 0 29 7 25 29 -17z m-95 -69 c29 -11 17 -37 -40 -90 -33 -30 -54
-57 -51 -65 3 -10 7 -8 13 6 11 28 30 41 93 65 49 19 55 19 77 5 35 -23 30
-38 -22 -63 -26 -13 -44 -26 -40 -29 3 -3 11 -1 18 5 23 18 95 35 123 28 41
-10 31 -54 -19 -83 l-40 -22 30 -7 c16 -3 40 -13 52 -21 30 -18 39 -10 24 22
-19 42 -14 53 9 16 21 -35 38 -37 19 -2 -17 34 -2 24 20 -11 14 -23 20 -51 20
-90 0 -54 -3 -60 -37 -93 -46 -42 -60 -44 -66 -7 -3 22 -4 20 -6 -10 -2 -53
-19 -47 -26 10 -8 59 -13 74 -14 43 l-1 -24 -25 23 c-14 13 -25 21 -25 19 0
-3 11 -20 25 -39 28 -38 36 -76 11 -50 -8 8 -35 46 -60 83 -25 38 -46 63 -46
57 0 -7 8 -24 18 -38 33 -48 34 -58 2 -22 -17 19 -36 34 -41 32 -17 -4 -150
109 -160 136 -19 49 -23 120 -8 139 8 9 46 31 84 49 83 39 70 35 89 28z m171
-100 c66 -52 148 -116 183 -142 35 -26 58 -48 52 -50 -6 -2 -44 21 -86 52 -41
31 -81 59 -88 62 -8 3 -16 14 -19 25 -3 11 -21 26 -40 34 -19 8 -42 26 -51 40
-9 14 -25 25 -35 25 -33 0 -51 11 -51 31 0 10 3 19 8 19 4 -1 61 -44 127 -96z
m-45 -429 c0 -8 12 -51 26 -95 14 -45 23 -84 20 -87 -3 -3 -16 1 -29 10 -18
12 -29 34 -40 84 -16 65 -21 98 -18 116 2 13 41 -13 41 -28z m88 -23 c2 -15
-2 -22 -12 -22 -11 0 -16 9 -16 26 0 31 23 28 28 -4z"/>
<path d="M3315 3607 c15 -21 30 -35 33 -32 3 3 -9 20 -27 38 l-34 32 28 -38z"/>
<path d="M3400 3602 c0 -5 7 -15 15 -22 8 -7 15 -8 15 -2 0 5 -7 15 -15 22 -8
7 -15 8 -15 2z"/>
<path d="M3929 4897 c-14 -7 -50 -33 -79 -59 l-54 -48 37 -38 c44 -45 45 -52
11 -52 -23 0 -26 -4 -22 -25 3 -13 1 -26 -5 -28 -11 -3 46 -65 83 -88 l25 -16
-50 -15 c-31 -9 -49 -20 -47 -28 2 -8 -5 -11 -23 -8 -63 12 -25 -101 66 -197
27 -29 49 -54 49 -57 0 -3 -9 -8 -21 -11 -24 -6 -20 -34 10 -77 22 -31 88 -55
107 -39 10 8 19 1 38 -30 27 -42 88 -106 147 -153 l34 -26 -25 -21 c-14 -11
-30 -20 -35 -21 -28 -1 -166 -81 -194 -112 -58 -66 -201 -383 -189 -419 2 -7
16 26 31 73 28 90 111 265 147 311 33 41 47 34 61 -30 7 -31 15 -51 16 -46 2
6 -3 39 -12 73 -9 34 -15 63 -13 64 13 8 61 26 69 26 6 0 7 -9 3 -22 -5 -13
-9 -41 -11 -63 -5 -85 -16 -154 -23 -150 -4 2 -10 -55 -12 -128 -5 -127 -6
-134 -36 -181 -18 -28 -32 -57 -32 -66 0 -8 -7 -25 -15 -36 -13 -20 -19 -36
-44 -139 -26 -106 -34 -154 -36 -227 -3 -85 -13 -105 -72 -139 -26 -16 -32
-16 -83 0 -58 18 -63 23 -110 131 -11 25 -17 34 -14 20 3 -14 18 -53 34 -86
25 -56 32 -63 76 -78 65 -22 75 -21 122 14 23 17 44 30 46 30 2 0 5 -33 8 -73
3 -41 9 -80 13 -87 5 -8 8 -34 6 -57 -2 -38 2 -48 29 -73 18 -17 36 -30 40
-30 11 0 100 -126 100 -141 0 -7 11 -25 25 -39 18 -19 28 -44 34 -86 l9 -59 1
62 c1 47 -5 73 -23 110 -14 26 -28 60 -31 76 -6 23 -4 27 15 27 12 0 35 -10
52 -21 23 -17 53 -23 141 -30 182 -14 528 -20 587 -10 30 5 57 7 59 5 5 -5
-62 -95 -93 -123 -14 -14 -26 -29 -26 -35 1 -13 53 45 111 121 29 39 46 53 64
53 30 0 31 -9 5 -38 -36 -38 -21 -37 19 2 22 21 45 36 51 34 8 -2 0 -15 -19
-33 -17 -17 -31 -37 -31 -45 0 -15 -17 -29 -74 -61 -40 -22 -49 -46 -10 -26
42 22 114 86 114 102 0 14 62 70 111 100 42 25 81 82 78 115 -1 14 1 41 4 60
3 19 11 69 18 112 l12 76 32 -5 c28 -4 45 2 102 41 37 25 102 78 143 117 68
65 69 66 10 15 -36 -32 -99 -79 -140 -107 -85 -56 -117 -60 -138 -16 -18 36
-47 35 -61 -3 -12 -36 -41 -41 -41 -6 0 52 -51 34 -72 -25 -8 -25 -35 -46 -45
-36 -2 2 6 44 18 92 22 93 20 149 -6 212 l-13 31 51 7 c29 4 67 10 85 15 41
11 72 -2 101 -41 30 -40 47 -130 33 -175 -5 -19 -6 -34 -2 -34 5 0 12 16 16
35 7 39 7 39 35 25 12 -7 19 -7 19 -1 0 6 -9 15 -19 20 -19 11 -41 59 -41 92
0 10 -18 35 -39 56 -25 23 -37 42 -33 52 13 35 74 98 131 135 69 45 80 64 24
40 -21 -9 -44 -18 -50 -21 -18 -7 -16 7 4 29 9 10 12 18 6 18 -5 0 -19 -14
-32 -31 -23 -30 -23 -30 -2 -36 18 -5 16 -10 -27 -49 -26 -24 -51 -43 -56 -44
-5 0 -6 22 -2 48 5 40 3 54 -14 75 -11 14 -20 30 -20 35 0 5 -7 15 -15 22 -8
7 -15 27 -15 45 0 18 -7 38 -15 45 -9 8 -13 21 -9 36 4 14 1 31 -6 39 -10 11
-10 26 -2 58 6 23 10 51 10 62 1 11 3 45 7 75 3 30 7 66 8 80 1 14 14 41 28
60 14 19 29 43 32 53 7 19 29 22 58 7 18 -10 18 -12 -7 -62 -31 -62 -54 -163
-54 -243 0 -83 27 -230 51 -278 28 -54 36 -38 9 18 -23 47 -50 196 -50 275 0
62 35 195 61 231 11 16 22 29 23 29 6 0 105 -168 168 -285 118 -217 188 -365
194 -409 8 -54 -9 -108 -48 -161 l-30 -40 35 37 c39 39 57 89 57 156 0 33 -16
73 -70 180 -163 320 -297 550 -330 567 -14 7 -33 23 -43 34 -9 12 -31 24 -47
27 -16 4 -35 13 -41 20 -6 8 -19 14 -29 14 -10 0 -33 6 -51 14 -19 8 -46 12
-60 9 -23 -4 -27 -1 -31 27 -7 43 21 75 83 95 28 10 65 30 82 45 18 15 49 30
71 33 48 8 53 13 37 38 -7 12 -11 22 -9 22 40 20 72 64 80 112 2 15 -2 19 -18
17 -11 -1 -42 6 -68 18 -26 11 -45 16 -42 11 4 -5 31 -19 61 -32 30 -12 55
-25 55 -28 0 -16 -42 -71 -54 -71 -14 0 -123 111 -152 156 -22 33 -10 42 24
18 53 -39 53 -36 1 17 -30 30 -59 63 -66 74 -9 16 -10 13 -1 -15 17 -58 39
-203 33 -227 -3 -13 -1 -23 5 -23 5 0 10 16 10 35 0 19 3 34 8 34 4 -1 36 -32
71 -70 l64 -69 -40 0 c-29 0 -46 6 -63 25 -13 14 -31 25 -39 25 -24 0 -55 -39
-75 -93 -28 -75 -128 -165 -225 -203 l-36 -14 33 5 c18 2 57 20 87 40 31 19
59 35 64 35 4 0 6 -24 3 -52 -5 -51 -8 -57 -101 -153 -102 -107 -109 -117
-137 -210 -24 -78 -24 -81 11 -77 32 4 54 27 55 55 0 10 6 17 13 15 6 -3 12
-11 12 -19 0 -7 9 -15 19 -17 15 -3 17 0 11 14 -4 11 -13 34 -19 52 -6 17 -14
32 -17 32 -13 0 -59 -80 -59 -102 0 -15 -3 -19 -10 -12 -7 7 -6 24 5 53 8 24
15 53 15 65 0 41 158 207 168 176 4 -10 35 41 64 103 9 20 20 27 40 27 15 0
30 -4 33 -10 3 -5 16 -10 29 -10 12 0 31 -7 42 -15 10 -8 27 -15 36 -15 9 0
19 -9 23 -19 4 -13 12 -18 23 -15 15 5 15 4 0 -9 -10 -8 -18 -21 -18 -30 0 -9
-13 -31 -29 -49 -30 -35 -37 -63 -46 -198 -3 -41 -10 -88 -15 -104 -7 -20 -7
-33 0 -40 5 -5 10 -27 10 -47 0 -21 7 -42 16 -50 9 -7 13 -21 10 -35 -4 -13 0
-27 9 -34 16 -13 20 -30 7 -30 -18 0 -64 96 -66 139 -1 25 -4 51 -8 56 -7 11
-3 75 7 123 5 20 4 32 -3 32 -17 0 -24 -112 -12 -200 6 -47 15 -87 19 -90 35
-26 50 -94 30 -132 -8 -14 -8 -23 0 -31 16 -16 13 -83 -5 -101 -8 -9 -24 -16
-35 -16 -17 0 -19 7 -19 58 0 36 -6 66 -15 78 -8 10 -15 30 -15 44 0 14 -7 36
-16 49 -14 20 -15 31 -5 73 13 56 14 95 4 84 -4 -4 -8 -15 -8 -24 0 -9 -4 -38
-9 -65 -7 -37 -5 -52 8 -72 10 -15 14 -34 11 -45 -4 -12 1 -31 14 -48 14 -20
19 -40 16 -72 -4 -62 -3 -60 -24 -60 -12 0 -23 -10 -28 -27 -8 -24 -10 -21
-22 33 -7 32 -26 86 -42 118 -16 33 -29 65 -29 73 0 8 -4 12 -9 9 -15 -10 -71
75 -87 132 -17 59 -42 69 -69 28 -26 -40 -28 -86 -7 -150 l20 -59 -44 -42
c-34 -32 -44 -49 -44 -73 0 -29 -3 -32 -30 -32 -24 0 -31 5 -36 28 -3 15 -7
32 -8 37 -2 6 -2 -29 -2 -77 1 -69 5 -91 20 -107 16 -18 17 -25 8 -44 -31 -60
-36 -160 -11 -209 7 -12 2 -28 -16 -54 -18 -27 -25 -49 -24 -83 l1 -46 8 53
c6 37 18 66 39 92 17 21 31 41 31 43 0 3 -10 7 -21 10 -20 5 -21 11 -17 84 2
43 11 88 19 101 14 23 43 29 54 12 15 -24 25 -7 19 32 -5 30 -4 39 4 34 7 -4
12 -19 13 -34 0 -15 4 -35 8 -45 4 -11 -3 -48 -17 -89 -25 -77 -23 -115 9
-144 10 -9 19 -27 19 -40 0 -13 7 -27 16 -32 14 -8 14 -13 0 -62 -9 -30 -16
-66 -16 -82 l0 -28 -72 2 -73 3 -6 35 -6 35 -2 -38 -1 -38 -52 7 c-80 10 -85
19 -58 104 18 57 20 74 10 80 -9 6 -11 21 -6 54 6 35 4 50 -8 62 -20 20 -20
74 -1 121 8 19 15 59 14 87 0 44 -2 48 -10 26 -6 -13 -8 -34 -5 -46 3 -12 -1
-41 -9 -64 -19 -54 -19 -114 0 -130 10 -9 13 -24 8 -55 -3 -24 -2 -52 2 -62 5
-10 7 -22 5 -28 -2 -5 -11 -39 -20 -75 l-16 -65 -51 -3 c-49 -3 -51 -2 -62 29
-23 66 -8 144 33 178 13 11 13 17 4 35 -7 11 -15 39 -19 61 l-6 40 -2 -37 c0
-20 4 -49 11 -63 10 -22 8 -29 -13 -51 -22 -23 -24 -34 -23 -110 1 -82 0 -84
-23 -84 -13 0 -40 9 -60 20 l-37 19 -2 73 c-2 75 14 124 52 162 13 13 14 19 4
31 -8 10 -10 31 -6 64 5 36 3 51 -8 60 -8 7 -18 27 -22 44 -4 18 -9 27 -11 20
-2 -7 3 -29 13 -49 25 -53 23 -149 -4 -194 -24 -39 -34 -80 -31 -125 2 -16 2
-45 1 -62 -2 -30 -5 -33 -33 -33 -43 0 -65 15 -78 51 -16 45 -13 78 9 127 18
40 19 45 3 68 -14 22 -14 32 -4 79 9 39 9 59 2 72 -10 16 -11 15 -9 -7 1 -14
-2 -46 -6 -73 -5 -31 -4 -57 3 -75 9 -22 9 -35 -4 -65 -8 -20 -15 -59 -15 -87
l0 -52 -32 7 c-18 4 -41 12 -51 17 -39 20 -59 115 -42 200 4 24 3 29 -4 18
-17 -25 -23 -107 -10 -147 9 -28 9 -38 0 -41 -6 -2 -8 -9 -4 -15 10 -17 14
-77 4 -77 -16 0 -30 47 -29 97 1 28 -3 57 -9 65 -11 12 -12 46 -13 271 -1 27
6 61 13 77 8 15 12 40 10 54 -3 15 3 42 16 66 12 23 19 46 15 51 -7 12 15 69
26 69 4 0 11 17 15 38 4 20 19 53 33 72 15 19 25 43 24 53 -2 10 2 25 9 33 6
8 9 27 6 43 -3 15 -2 32 4 38 5 5 16 40 23 77 16 74 23 87 35 67 5 -8 3 -28
-6 -50 -10 -22 -13 -52 -10 -81 4 -36 0 -53 -20 -88 -21 -35 -24 -51 -20 -87
5 -36 2 -52 -21 -92 -21 -39 -27 -61 -27 -114 0 -37 -5 -72 -12 -81 -43 -51
-56 -144 -29 -196 15 -30 15 -34 0 -59 l-17 -28 27 26 27 26 -22 37 c-29 49
-23 115 16 174 21 32 26 49 21 72 -8 42 11 122 38 163 18 26 21 38 13 61 -10
30 12 105 38 126 10 8 11 17 2 40 -9 22 -8 40 2 72 7 24 12 54 11 68 -12 158
10 297 45 284 12 -5 13 -10 1 -38 -21 -50 -30 -150 -16 -176 9 -17 9 -40 -1
-101 -10 -65 -10 -83 1 -103 11 -22 10 -35 -10 -95 -17 -53 -21 -86 -18 -128
3 -37 0 -74 -10 -101 -9 -27 -12 -56 -7 -80 4 -20 7 -57 7 -82 l0 -45 12 35
c11 29 11 40 -2 67 -13 28 -14 40 -3 80 7 27 13 89 15 138 2 70 7 100 24 135
22 43 22 46 6 82 -15 33 -15 42 -1 105 14 61 14 71 0 97 -13 26 -14 40 -3 98
6 37 16 70 20 73 5 3 12 -21 15 -52 4 -32 16 -73 27 -90 19 -32 19 -35 3 -83
-12 -36 -15 -67 -11 -108 7 -64 8 -94 4 -149 -2 -27 4 -47 20 -69 19 -26 21
-35 12 -58 -6 -16 -8 -31 -6 -34 6 -6 26 43 26 63 0 8 -5 17 -11 21 -6 3 -17
22 -25 40 -12 29 -12 39 -1 66 l14 33 7 -33 c5 -19 31 -57 62 -91 l53 -58 3
-75 c3 -65 5 -73 16 -57 9 14 10 24 2 38 -25 49 -1 108 76 185 l29 28 8 -73
c4 -41 8 -100 7 -132 0 -32 6 -70 14 -85 12 -23 12 -31 0 -52 -7 -14 -13 -32
-13 -40 0 -8 9 3 21 24 19 38 20 42 4 70 -9 18 -16 56 -16 91 0 33 -1 94 -2
135 -2 58 2 82 17 109 11 18 25 42 30 53 6 10 19 21 30 24 11 3 30 21 43 40
17 27 27 33 45 29 17 -4 27 2 45 30 12 19 22 40 22 47 0 7 -10 -2 -21 -19 -12
-18 -25 -33 -30 -33 -15 0 -40 60 -50 123 -7 43 -18 70 -35 88 -31 33 -30 36
9 44 17 4 45 14 60 22 36 18 107 82 107 96 0 6 -19 -8 -43 -31 -60 -59 -126
-82 -235 -82 -66 0 -98 5 -132 21 -51 23 -180 109 -180 120 0 3 -13 12 -30 19
-34 14 -111 93 -134 137 -8 17 -24 64 -36 104 -23 86 -20 160 12 248 l20 53
24 -25 c17 -19 38 -27 79 -32 64 -8 194 8 233 30 35 18 19 19 -42 0 -28 -9
-88 -15 -141 -15 -78 0 -95 3 -109 19 -29 32 -45 91 -46 168 0 39 -4 75 -10
78 -5 3 -11 21 -11 38 -2 31 -2 31 -8 -6 l-6 -37 -35 24 c-19 13 -59 32 -88
42 -28 10 -52 21 -52 25 0 13 49 50 96 73 48 25 43 35 -7 13z m-9 -133 c59
-27 110 -69 110 -91 0 -16 -1 -16 -37 -3 -26 9 -27 9 -9 -5 11 -8 28 -15 38
-15 22 0 24 -28 3 -36 -8 -4 -45 -1 -81 6 -48 9 -72 20 -90 39 -13 14 -21 27
-17 28 5 1 21 4 37 8 l29 6 -44 45 c-41 42 -42 44 -19 44 14 0 50 -12 80 -26z
m40 -156 c36 -6 68 -14 71 -17 4 -3 10 -22 14 -41 5 -27 4 -32 -5 -24 -9 9
-23 8 -57 -2 -26 -8 -60 -14 -77 -13 l-31 0 39 16 38 16 -23 19 c-20 17 -21
19 -4 13 37 -12 105 -18 105 -9 0 5 -17 10 -38 11 -57 4 -131 25 -145 42 -10
12 -8 13 18 8 17 -4 59 -12 95 -19z m70 -94 c0 -12 -69 -32 -130 -38 -55 -6
-62 -5 -45 6 11 7 52 18 90 24 39 6 73 12 78 13 4 0 7 -1 7 -5z m-3 -38 c-3
-8 -11 -33 -17 -54 -5 -22 -17 -43 -26 -46 -8 -3 -13 -10 -10 -15 8 -12 -29
-21 -86 -21 -37 0 -50 4 -58 20 -10 19 -8 20 52 15 l63 -4 -60 10 c-57 10 -85
23 -85 39 0 4 35 10 78 12 81 5 132 22 132 45 0 7 5 13 11 13 6 0 9 -6 6 -14z
m-72 -21 c-34 -16 -151 -20 -160 -5 -5 8 36 12 160 17 l30 1 -30 -13z m1315
-228 c0 -5 -4 -7 -10 -5 -14 5 -110 120 -110 133 0 11 119 -116 120 -128z
m-1330 93 c-14 -4 -36 -8 -50 -8 -22 0 -22 1 5 8 17 4 39 8 50 8 16 0 15 -2
-5 -8z m11 -26 c-18 -8 -41 -12 -50 -8 -12 5 -9 9 14 14 53 13 73 10 36 -6z
m39 -38 c0 -22 -9 -45 -25 -64 -33 -39 -32 -52 2 -21 l27 24 -15 -24 c-21 -34
-34 -36 -58 -12 -27 27 -27 47 -1 54 16 4 19 11 15 29 -5 19 -1 27 17 36 35
16 38 15 38 -22z m1200 -81 c25 -27 25 -41 0 -22 -23 19 -43 47 -33 47 5 0 20
-11 33 -25z m-15 -25 c14 -15 15 -23 6 -33 -13 -17 -89 -52 -96 -45 -3 2 3 23
11 46 14 35 25 45 55 51 3 0 14 -8 24 -19z m-853 -303 c36 -23 74 -47 84 -52
15 -9 15 -14 4 -35 -15 -28 -111 -155 -117 -155 -2 0 -15 20 -30 45 -19 33
-27 64 -31 117 -5 71 2 123 16 123 4 0 37 -19 74 -43z m-202 -134 c-6 -37 -12
-79 -14 -93 -6 -44 -7 -45 -16 -23 -6 15 -5 36 4 60 7 21 11 52 9 69 -5 31 17
90 24 67 2 -6 -1 -42 -7 -80z m435 17 c18 -36 19 -61 2 -84 -11 -16 -14 -12
-26 33 -7 28 -17 53 -22 57 -16 9 -10 24 11 24 11 0 26 -12 35 -30z m-95 -66
c13 -40 7 -54 -20 -47 -26 7 -47 68 -30 89 17 19 35 4 50 -42z m200 -19 c7
-33 14 -71 17 -85 4 -20 -5 -35 -40 -70 -24 -25 -58 -55 -75 -68 -18 -13 -35
-34 -38 -47 -5 -22 -132 -125 -153 -125 -4 0 -16 9 -26 20 -16 18 -16 21 -2
44 19 29 151 98 172 89 21 -7 19 1 -10 43 -14 20 -25 42 -25 48 0 34 23 84 43
95 13 7 37 35 53 62 16 27 35 49 42 49 6 0 12 5 12 12 0 31 19 -13 30 -67z
m-290 -86 c-28 -39 -44 -33 -48 18 -3 35 2 47 30 79 l33 38 3 -52 c2 -41 -2
-59 -18 -83z m-90 8 c1 -21 1 -21 14 -4 12 16 14 14 18 -20 6 -48 -40 -141
-60 -121 -15 15 -15 89 -1 139 13 40 29 43 29 6z m198 -13 c-2 -15 -14 -20
-56 -22 -50 -3 -53 -2 -43 16 11 21 80 44 94 31 5 -4 7 -15 5 -25z m-28 -43
c0 -12 -20 -25 -27 -18 -7 7 6 27 18 27 5 0 9 -4 9 -9z m27 -57 c2 -7 -13 -15
-34 -19 -59 -10 -120 -41 -133 -65 -10 -18 -14 -20 -21 -9 -25 40 -7 67 66 96
36 15 117 12 122 -3z m-17 -44 c0 -5 -2 -10 -4 -10 -3 0 -8 5 -11 10 -3 6 -1
10 4 10 6 0 11 -4 11 -10z m399 -97 c10 -28 34 -72 54 -96 62 -75 117 -212
117 -287 0 -22 1 -22 19 -6 19 17 20 17 30 -3 15 -26 14 -133 -1 -166 -12 -28
-34 -35 -23 -7 14 34 26 84 22 89 -3 2 -13 -20 -22 -49 -17 -52 -40 -87 -50
-76 -3 3 2 21 10 41 8 20 15 44 14 54 0 10 -9 -6 -20 -34 -11 -29 -26 -53 -34
-53 -28 0 -74 68 -81 120 -4 28 -11 53 -17 57 -6 4 -8 -2 -4 -17 8 -29 -21
-80 -45 -80 -23 0 -34 23 -43 86 -9 70 8 130 43 148 19 11 22 15 10 16 -25 0
-58 -35 -65 -71 -7 -35 -23 -33 -36 5 -22 65 23 139 91 152 31 6 33 8 16 15
-59 21 -75 229 -18 217 9 -2 23 -26 33 -55z m399 -217 c-3 -70 -3 -71 -31 -74
-27 -3 -29 -1 -26 30 2 18 0 47 -4 64 -4 17 -3 42 2 58 10 26 11 26 36 10 23
-15 25 -21 23 -88z m-544 -158 c3 -29 2 -48 -4 -48 -6 0 -10 10 -11 23 0 12
-3 16 -6 10 -11 -28 -43 -7 -43 28 0 16 42 51 50 43 4 -5 10 -30 14 -56z m141
-188 c4 -6 15 -10 27 -10 15 0 19 4 14 18 -4 9 9 -1 29 -23 33 -36 35 -43 29
-80 -3 -22 -13 -49 -20 -60 -18 -26 -18 -61 1 -69 19 -7 19 -50 -1 -101 -16
-44 -52 -65 -107 -65 -23 0 -27 4 -27 30 0 16 9 53 19 81 19 50 19 51 0 67
-10 9 -19 28 -19 42 0 14 -9 31 -20 38 -25 15 -27 84 -4 142 l16 40 29 -21
c16 -11 31 -24 34 -29z m22 18 c-3 -8 -6 -5 -6 6 -1 11 2 17 5 13 3 -3 4 -12
1 -19z m403 -62 c0 -8 -6 -19 -14 -25 -20 -16 -30 3 -16 29 11 21 30 19 30 -4z
m-100 -14 c0 -30 -16 -52 -37 -52 -16 0 -17 21 -1 55 15 34 38 32 38 -3z
m-116 -4 c-4 -13 -8 -57 -9 -98 -2 -63 1 -77 16 -88 11 -7 19 -24 19 -38 0
-32 -25 -80 -45 -88 -18 -6 -115 -9 -115 -2 0 2 7 23 15 46 20 58 19 107 -2
119 -16 9 -16 12 5 54 12 24 22 56 22 71 0 21 5 26 24 26 14 0 28 5 31 10 3 6
15 10 26 10 17 0 19 -4 13 -22z m191 -88 c-3 -25 -6 -54 -7 -65 -1 -54 -22
-114 -45 -124 -13 -6 -23 -19 -23 -30 0 -11 -4 -22 -9 -25 -16 -10 -19 57 -4
93 9 21 13 51 10 73 -3 21 -2 40 3 43 4 2 10 24 14 47 8 49 21 61 48 45 17
-10 19 -19 13 -57z m-75 4 c0 -11 -9 -29 -20 -39 -18 -16 -19 -20 -5 -27 20
-12 19 -51 -1 -91 -38 -73 -65 -76 -57 -7 5 43 3 54 -15 73 -12 13 -19 31 -17
42 16 81 11 75 65 72 43 -2 50 -5 50 -23z m-1150 -184 c0 -10 3 -32 6 -50 7
-31 6 -32 -15 -21 -17 9 -21 21 -21 56 0 35 3 43 15 39 8 -4 15 -14 15 -24z
m30 -12 c0 -16 -3 -19 -11 -11 -6 6 -8 16 -5 22 11 17 16 13 16 -11z m70 -28
c0 -9 5 -21 12 -28 17 -17 -3 -35 -33 -30 -19 2 -25 11 -31 47 -4 24 -5 48 -2
52 7 13 53 -23 54 -41z m-145 30 c3 -5 1 -10 -4 -10 -6 0 -11 5 -11 10 0 6 2
10 4 10 3 0 8 -4 11 -10z m1220 -56 c-15 -19 -29 -33 -32 -30 -6 5 27 68 42
78 22 16 15 -15 -10 -48z m-1035 17 c0 -11 3 -26 6 -35 3 -9 1 -16 -5 -16 -6
0 -11 9 -11 19 0 11 -5 23 -10 26 -12 7 -4 25 11 25 5 0 9 -9 9 -19z m-104
-18 c-10 -10 -19 5 -10 18 6 11 8 11 12 0 2 -7 1 -15 -2 -18z m164 3 c0 -14 4
-27 9 -30 12 -8 2 -46 -13 -46 -23 0 -34 16 -36 50 -3 49 -2 50 20 50 15 0 20
-7 20 -24z m912 6 c5 -19 -33 -72 -52 -72 -13 0 -13 1 4 41 22 53 40 64 48 31z
m-882 -12 c0 -5 -5 -10 -11 -10 -5 0 -7 5 -4 10 3 6 8 10 11 10 2 0 4 -4 4
-10z m72 -25 c5 -21 3 -34 -6 -44 -18 -18 -36 -6 -36 24 0 13 -5 27 -10 30
-16 10 0 26 23 23 13 -2 23 -14 29 -33z m192 27 c3 -5 8 -28 12 -50 6 -38 5
-42 -15 -42 -23 0 -41 33 -41 76 0 17 6 24 19 24 11 0 22 -4 25 -8z m415 -2
c4 0 5 -16 3 -36 -3 -25 -11 -38 -26 -44 -29 -11 -36 -4 -36 34 0 36 17 59 38
51 8 -3 17 -5 21 -5z m101 -12 c0 -25 -27 -58 -47 -58 -15 0 -9 44 10 68 15
19 37 14 37 -10z m-680 2 c0 -5 -4 -10 -10 -10 -5 0 -10 5 -10 10 0 6 5 10 10
10 6 0 10 -4 10 -10z m76 -26 c7 -39 -5 -55 -36 -47 -11 3 -20 17 -23 36 -6
40 -2 47 28 47 20 0 25 -7 31 -36z m27 14 c2 -13 8 -31 12 -40 4 -10 3 -18 -3
-18 -5 0 -12 10 -15 23 -2 12 -8 30 -12 40 -4 9 -3 17 3 17 5 0 12 -10 15 -22z
m110 -15 c9 -52 -9 -65 -22 -17 -14 50 -14 54 3 54 8 0 16 -15 19 -37z m65
-10 c-2 -40 -6 -48 -23 -48 -15 0 -21 9 -26 40 -8 48 -5 55 27 55 24 0 25 -3
22 -47z m86 41 c16 -6 22 -50 8 -70 -11 -17 -49 -26 -57 -14 -3 6 -9 8 -13 6
-4 -2 -7 9 -7 25 0 16 3 29 8 29 4 0 7 -12 7 -27 1 -24 2 -26 11 -10 5 9 8 21
5 26 -7 11 3 41 14 41 5 0 15 -3 24 -6z m256 -12 c0 -10 -6 -26 -13 -36 -12
-16 -13 -14 -9 18 4 37 22 51 22 18z m100 6 c-1 -17 -39 -67 -40 -51 0 6 5 15
10 18 6 3 10 15 10 26 0 10 5 19 10 19 6 0 10 -6 10 -12z m-320 -55 c-11 -17
-11 -17 -6 0 3 10 7 28 7 40 2 22 2 22 6 0 2 -12 -1 -30 -7 -40z m78 15 c-3
-40 -5 -43 -33 -43 -26 0 -30 3 -27 24 3 29 29 61 49 61 10 0 13 -11 11 -42z
m32 17 c0 -8 -2 -15 -4 -15 -2 0 -6 7 -10 15 -3 8 -1 15 4 15 6 0 10 -7 10
-15z m-790 -25 c0 -4 3 -17 6 -27 4 -12 -2 -9 -20 10 -31 34 -34 52 -6 37 11
-6 20 -15 20 -20z m187 -2 c-3 -7 -5 -2 -5 12 0 14 2 19 5 13 2 -7 2 -19 0
-25z m95 -10 c-9 -9 -12 -7 -12 12 0 19 3 21 12 12 9 -9 9 -15 0 -24z m508 -2
c0 -3 -4 -8 -10 -11 -5 -3 -10 -1 -10 4 0 6 5 11 10 11 6 0 10 -2 10 -4z"/>
<path d="M4966 2775 c-3 -8 -1 -15 4 -15 6 0 10 7 10 15 0 8 -2 15 -4 15 -2 0
-6 -7 -10 -15z"/>
<path d="M5470 4863 c0 -14 -11 -41 -25 -59 -28 -37 -33 -53 -10 -34 10 9 15
9 15 1 0 -6 -3 -11 -7 -12 -31 -3 -49 -11 -72 -32 -37 -35 -114 -77 -139 -77
-12 0 -22 -5 -22 -11 0 -18 50 -4 116 34 68 38 118 43 147 14 28 -28 13 -72
-46 -134 -53 -56 -48 -64 21 -33 30 14 42 15 42 6 0 -19 -53 -97 -89 -130 -17
-17 -31 -33 -31 -38 0 -13 108 108 124 141 17 32 21 61 9 61 -5 0 -17 -7 -27
-15 -39 -29 -47 -16 -16 24 33 41 51 113 31 125 -6 4 -8 18 -5 33 7 26 7 26
-17 10 -35 -25 -43 -20 -20 12 14 19 17 31 10 33 -7 2 -4 16 10 38 22 37 28
70 11 70 -5 0 -10 -12 -10 -27z"/>
<path d="M4057 4859 c12 -12 25 -20 28 -17 3 3 -7 13 -22 23 l-28 17 22 -23z"/>
<path d="M4280 4860 c-80 -15 -172 -37 -229 -56 -8 -2 -12 -7 -9 -9 3 -3 47 6
99 19 86 23 178 38 286 50 24 2 49 -1 60 -9 31 -21 90 -28 97 -10 14 37 224
10 476 -61 17 -4 22 -3 15 4 -23 23 -222 67 -375 82 -78 7 -99 6 -117 -6 -29
-18 -67 -18 -83 1 -16 20 -96 18 -220 -5z"/>
<path d="M1320 4814 c-30 -48 -21 -51 12 -3 15 21 24 39 19 39 -5 0 -19 -16
-31 -36z"/>
<path d="M1608 4843 c-54 -5 -57 -12 -27 -54 26 -38 47 -36 83 8 24 28 27 36
15 44 -8 5 -16 8 -19 7 -3 -1 -26 -3 -52 -5z"/>
<path d="M4355 4810 c-117 -11 -293 -45 -283 -55 2 -3 51 5 109 16 106 21 279
29 357 17 23 -4 42 -3 42 1 0 5 -24 11 -52 14 -29 3 -62 7 -73 10 -11 2 -56 1
-100 -3z"/>
<path d="M4613 4813 c-32 -12 -6 -18 61 -15 62 3 245 -20 356 -45 17 -4 22 -2
15 5 -17 18 -400 66 -432 55z"/>
<path d="M1771 4761 c-8 -5 -19 -7 -25 -5 -13 5 -43 -13 -35 -20 8 -8 79 14
79 24 0 12 -1 12 -19 1z"/>
<path d="M1885 4760 c3 -5 11 -10 16 -10 6 0 7 5 4 10 -3 6 -11 10 -16 10 -6
0 -7 -4 -4 -10z"/>
<path d="M5081 4748 c-8 -13 -20 -56 -27 -97 -7 -41 -24 -96 -38 -123 -14 -26
-21 -48 -15 -48 14 0 57 103 65 157 5 40 20 85 41 126 10 18 -14 5 -26 -15z"/>
<path d="M1331 4749 c-1 -8 -17 -41 -36 -74 -20 -32 -34 -60 -32 -62 12 -11
81 121 74 139 -4 9 -6 8 -6 -3z"/>
<path d="M4667 4742 c-23 -25 -22 -52 3 -52 22 0 44 34 36 56 -7 19 -20 18
-39 -4z"/>
<path d="M1399 4737 c-15 -11 -14 -16 8 -50 13 -20 28 -37 33 -37 5 0 25 -11
45 -25 30 -20 45 -23 78 -18 58 7 80 21 71 41 -4 9 -9 29 -12 45 -2 15 -8 29
-12 32 -4 2 -3 -16 1 -42 5 -25 7 -48 5 -51 -3 -2 -25 -7 -50 -9 -35 -4 -51
-1 -74 16 -17 11 -34 21 -40 21 -18 0 -35 30 -34 60 0 17 0 30 -1 30 -1 0 -9
-6 -18 -13z"/>
<path d="M1475 4740 c3 -5 13 -10 21 -10 8 0 14 5 14 10 0 6 -9 10 -21 10 -11
0 -17 -4 -14 -10z"/>
<path d="M4165 4706 c-14 -14 -25 -29 -25 -34 0 -21 31 -20 50 0 39 42 16 74
-25 34z"/>
<path d="M5115 4720 c3 -5 16 -10 28 -9 21 0 21 1 2 9 -28 12 -37 12 -30 0z"/>
<path d="M1715 4690 c11 -5 29 -9 40 -9 17 -1 17 1 5 9 -8 5 -26 9 -40 9 -23
0 -23 -1 -5 -9z"/>
<path d="M1808 4677 c-14 -13 -27 -29 -29 -36 -6 -17 -89 -35 -103 -21 -16 16
-30 12 -15 -6 10 -12 25 -15 58 -11 36 4 52 13 83 46 35 39 44 51 34 51 -1 0
-14 -10 -28 -23z"/>
<path d="M4498 4669 c-10 -5 -18 -18 -18 -27 0 -10 -9 -35 -19 -55 -25 -50
-32 -69 -23 -63 8 5 45 84 56 119 3 9 14 17 25 17 11 0 23 5 26 10 8 13 -25
12 -47 -1z"/>
<path d="M4576 4633 c10 -55 39 -117 65 -142 40 -37 148 -64 239 -59 48 2 84
8 92 16 11 11 8 12 -17 5 -90 -23 -262 7 -310 55 -14 14 -34 55 -45 93 -23 75
-35 91 -24 32z"/>
<path d="M5421 4624 c-24 -18 -40 -34 -35 -34 13 0 84 52 84 61 0 12 1 12 -49
-27z"/>
<path d="M5155 4640 c3 -5 8 -10 11 -10 2 0 4 5 4 10 0 6 -5 10 -11 10 -5 0
-7 -4 -4 -10z"/>
<path d="M5338 4585 c-3 -3 -32 -9 -64 -14 -57 -8 -57 -9 -14 -9 41 0 136 25
99 27 -9 1 -18 -1 -21 -4z"/>
<path d="M5097 4574 c-16 -16 -5 -35 33 -54 74 -38 240 -65 240 -40 0 6 -10 8
-23 5 -29 -8 -157 19 -194 40 -15 9 -19 13 -8 10 11 -4 50 -10 86 -12 72 -6
167 15 189 42 17 21 8 19 -37 -7 -32 -19 -52 -23 -123 -22 -47 0 -96 6 -110
13 l-25 11 28 -3 c15 -3 30 0 33 4 3 5 -8 9 -25 9 -16 0 -36 2 -43 5 -8 3 -17
2 -21 -1z"/>
<path d="M945 4534 c-18 -45 -19 -41 5 -47 11 -3 20 -10 20 -16 0 -6 -9 -15
-20 -21 -11 -6 -20 -20 -20 -30 0 -16 7 -20 35 -20 40 0 47 -20 13 -35 -30
-13 -34 -47 -8 -63 17 -10 20 -10 20 3 0 8 -4 15 -10 15 -20 0 -9 27 15 38 14
6 25 18 25 26 0 19 -34 38 -53 30 -27 -10 -29 16 -3 28 14 6 26 19 26 29 0 9
5 19 11 21 12 4 -19 78 -33 78 -4 0 -15 -16 -23 -36z m35 -14 c0 -5 -4 -10
-10 -10 -5 0 -10 5 -10 10 0 6 5 10 10 10 6 0 10 -4 10 -10z"/>
<path d="M4436 4283 c61 -55 81 -63 90 -38 4 8 29 33 56 55 51 40 52 48 4 30
-14 -5 -28 -6 -30 -1 -3 4 -45 8 -93 8 l-87 -1 60 -53z"/>
<path d="M4645 4250 c-3 -5 1 -10 9 -10 8 0 18 5 21 10 3 6 -1 10 -9 10 -8 0
-18 -4 -21 -10z"/>
<path d="M4500 4205 c-1 -5 -1 -22 0 -36 2 -37 -47 -83 -115 -108 -69 -26
-103 -26 -135 -1 -27 21 -40 25 -40 12 0 -4 20 -18 45 -32 l45 -25 51 18 51
19 29 -28 c34 -33 89 -35 130 -5 21 16 37 18 86 14 66 -6 143 14 187 48 15 12
31 16 43 12 14 -6 13 -1 -7 24 -29 36 -44 42 -35 13 17 -54 -109 -104 -209
-81 -66 15 -95 43 -111 113 -8 29 -14 49 -15 43z m34 -147 c-7 -11 -72 -10
-79 2 -3 5 6 21 22 34 l28 24 17 -26 c9 -14 15 -29 12 -34z"/>
<path d="M4698 4203 c7 -3 16 -2 19 1 4 3 -2 6 -13 5 -11 0 -14 -3 -6 -6z"/>
<path d="M58 3997 c1 -95 7 -264 12 -377 6 -113 15 -306 21 -430 10 -211 8
-575 -7 -985 -7 -177 6 -325 30 -344 9 -7 46 -6 117 4 110 16 219 33 256 41
18 3 26 -4 41 -38 11 -24 32 -54 47 -68 26 -24 31 -25 152 -22 l125 2 -5 -22
c-3 -13 -39 -122 -81 -243 -42 -121 -83 -246 -90 -278 l-13 -58 30 -24 31 -24
-33 -113 c-18 -62 -40 -131 -49 -153 -11 -24 -17 -67 -17 -110 l0 -70 -85 -8
c-47 -4 -94 -8 -104 -8 -12 0 -15 -4 -10 -9 6 -6 33 -5 71 2 52 9 74 8 140 -6
43 -10 89 -19 102 -22 52 -11 11 -11 -72 -1 -61 8 -90 8 -98 0 -7 -7 4 -10 38
-11 188 -4 313 -17 313 -32 0 -4 -24 -14 -52 -21 -110 -26 -263 -81 -286 -102
-39 -36 -52 -72 -52 -141 0 -101 18 -111 196 -104 109 4 117 6 137 30 13 16
37 29 59 32 84 15 213 27 377 36 169 9 174 8 202 -13 34 -24 49 -25 239 -7 74
7 193 12 265 11 71 -1 127 1 124 4 -6 6 -90 12 -204 14 -65 2 -75 4 -55 12 15
7 63 8 124 4 64 -5 96 -4 93 3 -4 5 11 12 34 15 44 6 72 0 64 -13 -3 -5 26 -9
65 -9 39 0 76 -4 83 -8 6 -4 95 -8 197 -8 102 -1 227 -3 279 -7 67 -4 100 -2
118 7 21 11 7 12 -95 8 -119 -6 -185 2 -133 16 13 4 26 15 28 26 14 72 15 95
4 95 -6 0 -11 -15 -11 -34 0 -65 -21 -77 -154 -87 -108 -9 -121 -8 -138 8 -27
24 -140 28 -384 14 -103 -6 -191 -8 -196 -3 -4 4 -11 65 -16 137 -7 100 -9
113 -10 55 0 -41 3 -112 6 -157 l7 -83 -30 -4 c-16 -3 -74 -8 -127 -11 -76 -4
-98 -2 -98 7 0 7 -4 51 -10 98 -5 47 -17 256 -26 465 -8 209 -18 382 -20 384
-2 2 -4 -18 -4 -45 0 -35 -3 -45 -10 -34 -5 8 -9 58 -8 110 1 79 3 86 7 40 3
-30 8 67 11 215 l5 270 33 3 c37 4 34 22 32 -188 -2 -251 24 -373 73 -354 20
7 21 25 8 126 -21 161 -31 306 -24 358 l8 55 63 3 62 3 1 -243 c0 -134 2 -254
4 -268 2 -14 9 -168 16 -342 10 -266 15 -316 26 -306 17 14 214 5 363 -16 212
-31 442 -85 498 -117 17 -10 32 -14 32 -9 0 48 -426 138 -795 167 l-100 8 -7
125 c-11 193 -28 731 -28 868 0 101 3 124 15 129 9 3 157 2 330 -3 405 -12
451 -9 502 32 42 34 106 121 100 138 -17 53 -652 71 -1127 32 -253 -21 -611
-36 -692 -29 -53 4 -82 1 -130 -15 -35 -11 -90 -23 -123 -27 -33 -4 -78 -10
-100 -15 -68 -15 -374 -54 -379 -49 -2 2 4 29 15 59 12 37 17 69 13 96 l-6 41
274 1 c259 0 618 19 618 32 0 3 -73 0 -162 -8 -101 -8 -278 -12 -466 -10 -295
3 -302 3 -309 -17 -11 -34 -3 -99 14 -112 14 -11 14 -16 -4 -50 -12 -23 -27
-38 -39 -38 -39 0 -43 98 -30 795 5 289 4 485 -3 585 -6 83 -16 319 -22 525
-6 206 -14 378 -18 382 -3 4 -5 -70 -3 -165z m142 -1968 c0 -36 -4 -49 -12
-47 -14 5 -23 61 -14 84 12 31 26 11 26 -37z m1925 -8 l40 -7 -60 -13 c-77
-16 -86 -19 -54 -20 14 -1 61 8 104 19 89 23 214 28 180 8 -11 -7 -54 -25 -95
-40 -41 -16 -59 -26 -40 -22 19 3 75 22 124 41 85 34 94 35 170 29 170 -14
210 -25 154 -41 -53 -16 -188 -69 -184 -72 2 -3 35 7 73 20 101 37 178 58 167
47 -5 -5 -57 -26 -114 -46 -58 -19 -140 -51 -183 -70 -75 -33 -117 -42 -117
-26 0 4 33 18 73 31 39 14 76 28 81 33 16 13 2 10 -82 -21 -71 -26 -185 -52
-172 -38 3 3 42 19 87 37 79 30 111 50 79 50 -20 0 -69 -19 -76 -29 -3 -5 -42
-20 -88 -35 -87 -27 -147 -31 -287 -16 l-70 7 65 3 c36 1 54 5 40 8 -14 2 -88
-1 -165 -8 -77 -7 -162 -10 -190 -9 -45 4 -40 5 50 18 55 7 132 17 170 21 l70
7 -60 1 c-33 1 -109 -5 -170 -13 -60 -8 -121 -14 -135 -14 -23 1 -23 2 5 10
64 18 -114 -3 -220 -26 -90 -19 -384 -48 -445 -44 -45 3 328 77 478 94 129 15
399 19 332 5 -26 -6 -29 -8 -11 -9 38 -2 151 20 146 29 -7 11 -254 11 -390 -1
-160 -13 -280 -34 -584 -99 -52 -11 -102 -20 -110 -19 -23 1 82 49 169 76 64
20 68 23 31 19 -41 -4 -42 -4 -21 11 40 28 200 63 310 69 58 3 211 12 340 20
518 35 533 36 585 25z m-1118 -57 c-3 -3 -22 -9 -41 -14 -28 -6 -36 -5 -36 6
0 10 13 14 42 14 23 0 39 -3 35 -6z m-193 -26 c-10 -34 -35 -80 -40 -75 -7 6
29 97 39 97 5 0 5 -10 1 -22z m-45 -29 c-7 -19 -16 -38 -20 -44 -5 -5 -2 12 7
38 9 27 18 46 20 44 2 -2 -1 -19 -7 -38z m1914 5 c-33 -45 -294 -122 -293 -86
0 14 298 126 309 116 2 -2 -6 -15 -16 -30z m-1958 -41 c-14 -26 -23 -37 -19
-23 12 45 36 95 41 83 2 -6 -7 -33 -22 -60z m-61 -13 c-36 -67 -41 -58 -7 16
14 32 28 53 31 46 2 -6 -9 -34 -24 -62z m-11 45 c-3 -9 -8 -14 -10 -11 -3 3
-2 9 2 15 9 16 15 13 8 -4z m-64 -44 c-6 -18 -13 -30 -15 -28 -2 2 1 18 7 36
6 18 13 30 15 28 2 -2 -1 -18 -7 -36z m92 -24 c-10 -9 -11 -8 -5 6 3 10 9 15
12 12 3 -3 0 -11 -7 -18z m754 8 c-39 -13 -124 -20 -113 -10 8 8 88 23 123 23
28 0 28 -1 -10 -13z m1160 -5 c-3 -5 -16 -10 -28 -9 -21 0 -21 1 -2 9 28 12
37 12 30 0z m-1148 -330 c2 -370 10 -706 19 -777 l7 -53 -42 0 c-27 0 -41 -4
-41 -13 0 -8 -29 -21 -72 -32 -40 -10 -67 -20 -61 -22 6 -2 48 5 93 16 124 31
117 34 126 -60 6 -75 16 -91 27 -44 3 11 5 0 6 -25 0 -32 -2 -41 -9 -30 -7 10
-10 -7 -10 -56 l0 -72 -137 -6 c-142 -7 -298 -21 -413 -36 -48 -7 -70 -15 -83
-32 -20 -24 -78 -36 -179 -37 -69 -1 -78 10 -78 99 0 54 3 65 28 90 38 38 213
92 517 161 55 12 95 24 88 26 -6 2 -49 -5 -95 -16 -45 -11 -118 -27 -160 -36
-140 -29 -329 -94 -359 -125 -25 -24 -69 -46 -69 -34 0 23 38 68 68 81 84 35
456 138 575 159 21 3 36 8 33 11 -2 2 -42 -3 -88 -12 l-83 -16 -115 39 c-63
21 -149 49 -192 62 -69 21 -75 25 -65 41 8 13 15 15 24 8 17 -15 81 7 86 29 2
9 0 27 -5 40 -7 20 -4 22 27 22 28 0 36 -4 41 -24 7 -31 -1 -46 -27 -46 -10 0
-19 -5 -19 -10 0 -6 11 -8 27 -4 15 4 32 7 38 6 48 -5 195 -38 304 -67 73 -19
136 -35 139 -35 19 -1 -27 -20 -47 -20 -13 0 -22 -3 -18 -6 3 -3 33 -3 67 1
34 4 58 11 53 15 -10 9 -335 96 -415 111 l-58 10 0 40 0 39 -78 0 c-43 0 -81
3 -84 6 -6 6 42 201 61 244 5 14 31 90 56 170 42 133 133 376 154 409 7 11 22
11 94 1 47 -7 90 -16 96 -19 7 -5 -4 -40 -28 -96 -21 -50 -47 -114 -57 -142
-19 -53 -39 -67 -51 -37 -3 9 8 48 26 87 38 89 40 114 6 123 -36 9 -49 -6 -90
-108 -28 -69 -46 -100 -77 -127 -37 -34 -40 -40 -48 -111 -9 -81 -17 -118 -49
-225 -12 -38 -21 -73 -21 -76 0 -11 50 -28 65 -23 8 3 22 30 32 60 15 49 20
54 45 54 15 0 28 -3 28 -8 0 -4 -11 -38 -25 -76 -14 -38 -25 -78 -24 -90 0
-12 7 -2 16 24 8 25 31 88 51 140 20 52 35 102 34 110 -2 8 9 0 23 -17 30 -38
63 -43 90 -13 17 18 17 21 -4 61 -28 54 -23 72 17 58 44 -15 94 9 116 54 15
32 15 40 2 70 -19 46 -53 54 -113 27 -25 -11 -48 -19 -50 -17 -6 7 57 178 88
239 16 32 29 63 29 70 0 14 -54 60 -82 71 -21 7 -24 26 -5 32 15 6 243 23 277
21 l25 -1 2 -305z m-337 275 c0 -17 -45 -20 -115 -8 l-40 7 35 6 c81 13 120
11 120 -5z m64 -58 c16 -11 24 -23 18 -25 -21 -7 -167 28 -182 44 -25 26 125
9 164 -19z m-194 14 c0 -4 -14 -57 -31 -117 -33 -117 -56 -161 -44 -84 8 50
44 190 51 202 7 11 24 10 24 -1z m526 -57 c-4 -9 -9 -15 -11 -12 -3 3 -3 13 1
22 4 9 9 15 11 12 3 -3 3 -13 -1 -22z m-617 -41 c-6 -21 -23 -56 -37 -77 -51
-82 -113 -221 -107 -243 3 -14 -6 -39 -26 -72 -18 -28 -33 -51 -35 -51 -10 0
48 194 65 214 5 6 23 47 40 91 30 78 98 192 108 182 3 -3 -1 -23 -8 -44z m595
-22 c-4 -17 -9 -30 -11 -27 -3 2 -2 19 2 36 4 17 9 30 11 27 2 -2 1 -18 -2
-36z m-599 -108 c-9 -37 -18 -20 -9 19 4 18 9 27 11 20 3 -7 2 -24 -2 -39z
m616 -27 c-6 -25 -11 -68 -11 -95 0 -28 -4 -51 -10 -51 -6 0 -10 27 -10 61 0
75 19 154 33 140 6 -6 6 -25 -2 -55z m-441 -1 c0 -17 -31 -75 -39 -75 -16 0
-13 26 4 40 8 7 15 19 15 26 0 8 5 14 10 14 6 0 10 -2 10 -5z m599 -142 c1
-29 -3 -53 -9 -53 -9 0 -12 8 -12 30 -1 3 2 21 6 40 5 31 4 33 -8 17 -13 -17
-15 -16 -21 13 -5 22 -2 39 11 58 l18 27 8 -40 c4 -22 7 -64 7 -92z m-849 78
c-6 -12 -15 -21 -20 -21 -5 0 -1 13 8 30 19 32 30 24 12 -9z m57 -3 c-3 -7 -5
-2 -5 12 0 14 2 19 5 13 2 -7 2 -19 0 -25z m-43 -83 c-14 -58 -20 -72 -27 -59
-7 12 -4 33 8 68 9 28 19 57 21 65 3 8 7 11 10 8 3 -3 -2 -40 -12 -82z m206
54 c0 -5 -9 -9 -20 -9 -29 0 -76 -26 -94 -52 -9 -12 -16 -18 -16 -12 0 20 32
55 68 73 35 18 62 18 62 0z m222 -6 c24 -21 23 -55 -3 -84 -19 -23 -20 -23
-10 -2 17 33 14 34 -25 8 -26 -18 -44 -23 -65 -18 -21 4 -30 1 -35 -11 -4 -11
-13 -14 -28 -10 -39 9 -68 -25 -71 -82 -2 -50 -21 -101 -33 -90 -3 4 0 12 6
18 7 7 12 23 11 38 -1 25 -1 25 -14 -5 -7 -17 -22 -38 -33 -48 -17 -15 -23
-16 -40 -6 -11 7 -26 24 -32 37 -13 30 5 62 55 94 27 19 33 27 28 49 -7 37 35
69 93 69 23 0 46 5 49 10 10 17 78 49 104 50 14 0 33 -7 43 -17z m-401 -54
l-10 -24 0 26 c-1 14 2 29 6 33 12 12 14 -9 4 -35z m177 29 c-44 -12 -88 -59
-88 -94 0 -15 -6 -24 -15 -24 -19 0 -19 33 -1 69 18 33 69 61 111 60 29 -1 29
-1 -7 -11z m-258 -75 c0 -5 -14 -28 -30 -53 -35 -53 -38 -48 -8 15 20 40 38
58 38 38z m445 -13 c-3 -5 -11 -10 -16 -10 -6 0 -7 5 -4 10 3 6 11 10 16 10 6
0 7 -4 4 -10z m-418 -52 c-3 -7 -5 -2 -5 12 0 14 2 19 5 13 2 -7 2 -19 0 -25z
m307 -3 c21 -38 17 -56 -5 -31 -43 47 -50 66 -26 66 7 0 21 -16 31 -35z m375
-120 c-1 -78 -3 -84 -10 -45 -11 67 -11 169 1 150 5 -8 9 -55 9 -105z m-695
58 c-4 -27 -11 -57 -15 -68 -7 -16 -8 -13 -5 10 12 77 17 105 22 105 3 0 2
-21 -2 -47z m-27 5 c-3 -8 -6 -5 -6 6 -1 11 2 17 5 13 3 -3 4 -12 1 -19z m383
-8 c0 -5 -9 -14 -20 -20 -22 -12 -27 -1 -8 18 14 14 28 16 28 2z m-405 -138
c-21 -134 -34 -161 -35 -71 0 65 38 219 47 191 3 -6 -3 -60 -12 -120z m169 59
c3 -5 -1 -29 -10 -55 -15 -44 -30 -64 -40 -53 -5 4 8 65 21 105 5 14 21 16 29
3z m586 -188 c-19 -89 -24 -52 -9 59 13 95 14 99 17 50 2 -30 -2 -78 -8 -109z
m25 -57 c-10 -55 -21 -108 -26 -116 -14 -25 -11 25 11 150 11 63 21 120 22
125 0 6 3 -5 5 -24 3 -18 -3 -79 -12 -135z m-834 71 c-13 -13 -15 1 -4 30 7
17 8 17 11 -1 2 -10 -1 -23 -7 -29z m91 -61 c15 -33 4 -56 -27 -56 -18 0 -25
5 -25 19 0 33 -11 51 -31 51 -21 0 -24 -11 -8 -27 8 -8 8 -17 -1 -33 -15 -28
-34 -21 -38 14 -5 41 14 56 69 56 43 0 51 -3 61 -24z m755 -58 c-3 -7 -5 -2
-5 12 0 14 2 19 5 13 2 -7 2 -19 0 -25z m-10 -50 c-3 -7 -5 -2 -5 12 0 14 2
19 5 13 2 -7 2 -19 0 -25z m-822 -34 c-17 -13 -18 -16 -5 -24 13 -9 13 -10 0
-9 -8 0 -24 4 -35 9 -18 7 -17 9 15 24 44 19 50 19 25 0z m108 -41 c-13 -2
-33 -2 -45 0 -13 2 -3 4 22 4 25 0 35 -2 23 -4z m142 -13 c18 -8 18 -9 -5 -9
-14 0 -32 4 -40 9 -12 8 -12 10 5 9 11 0 29 -4 40 -9z m572 -82 c-3 -7 -5 -2
-5 12 0 14 2 19 5 13 2 -7 2 -19 0 -25z m33 -45 c0 -73 -19 -183 -32 -183 -9
0 -6 46 7 110 2 8 4 43 4 78 1 39 5 61 11 57 6 -3 10 -31 10 -62z m13 -180 c5
-25 3 -33 -8 -33 -16 0 -18 12 -9 48 8 28 9 26 17 -15z m767 27 c12 -8 11 -10
-7 -10 -13 0 -23 5 -23 10 0 13 11 13 30 0z"/>
<path d="M1710 1970 l-155 -6 165 -1 c91 0 197 3 235 7 l70 7 -80 -1 c-44 0
-150 -3 -235 -6z"/>
<path d="M1285 1950 c-3 -5 -1 -10 4 -10 6 0 11 5 11 10 0 6 -2 10 -4 10 -3 0
-8 -4 -11 -10z"/>
<path d="M1348 1953 c18 -2 45 -2 60 0 15 2 0 4 -33 4 -33 0 -45 -2 -27 -4z"/>
<path d="M1248 1943 c7 -3 16 -2 19 1 4 3 -2 6 -13 5 -11 0 -14 -3 -6 -6z"/>
<path d="M1095 1930 l-30 -8 30 0 c17 0 41 4 55 8 l25 8 -25 0 c-14 0 -38 -4
-55 -8z"/>
<path d="M2085 1925 c-22 -7 -33 -13 -25 -14 8 0 35 6 60 13 25 8 36 15 25 15
-11 0 -38 -6 -60 -14z"/>
<path d="M975 1910 l-20 -9 20 1 c11 0 34 4 50 8 l30 8 -30 0 c-16 0 -39 -3
-50 -8z"/>
<path d="M1920 1900 c-41 -6 -42 -7 -10 -8 19 0 53 3 75 7 33 7 35 9 10 8 -16
0 -50 -3 -75 -7z"/>
<path d="M2185 1890 l-50 -7 57 -1 c31 -1 60 3 63 8 3 6 0 9 -7 8 -7 0 -35 -4
-63 -8z"/>
<path d="M1568 1883 c12 -2 30 -2 40 0 9 3 -1 5 -23 4 -22 0 -30 -2 -17 -4z"/>
<path d="M2025 1870 c-34 -6 -36 -7 -10 -8 17 0 48 3 70 7 33 7 35 9 10 8 -16
0 -48 -3 -70 -7z"/>
<path d="M3037 3993 c8 -78 13 -80 13 -5 0 34 -4 62 -9 62 -6 0 -7 -25 -4 -57z"/>
<path d="M1039 4020 c-1 -5 -2 -15 -3 -20 -1 -6 10 -16 23 -23 38 -19 34 -30
-22 -62 -70 -40 -71 -58 -7 -90 28 -14 55 -23 60 -20 17 11 11 29 -17 51 l-27
21 57 38 c31 21 57 41 57 45 0 11 -31 36 -67 54 -37 18 -52 20 -54 6z m59 -30
c17 -11 32 -24 32 -30 0 -14 -7 -12 -28 8 -10 9 -27 22 -38 29 -10 6 -14 12
-9 12 6 1 25 -8 43 -19z m-59 -106 c-11 -14 -10 -19 9 -34 33 -27 26 -32 -13
-9 -39 24 -43 33 -17 48 26 16 36 13 21 -5z"/>
<path d="M3052 3875 c0 -22 3 -60 7 -85 8 -41 9 -42 9 -10 0 19 -3 58 -8 85
-7 49 -7 49 -8 10z"/>
<path d="M5127 3831 c-34 -62 -35 -81 -2 -22 14 24 33 50 43 57 15 12 15 13 1
14 -9 0 -27 -21 -42 -49z"/>
<path d="M5184 3761 c-24 -51 -44 -111 -44 -130 0 -6 -12 -23 -27 -36 l-28
-24 -22 21 c-13 12 -23 16 -23 10 0 -6 5 -14 10 -17 20 -12 10 -55 -20 -85
-35 -35 -71 -41 -63 -10 4 15 11 19 24 15 14 -5 19 -1 19 14 0 15 -5 19 -16
14 -12 -4 -15 -2 -12 8 2 8 17 15 31 17 34 4 35 22 2 22 -14 0 -28 7 -31 15
-7 18 -104 22 -104 5 0 -6 8 -10 18 -8 14 2 17 -4 15 -36 -2 -21 -7 -44 -13
-51 -8 -9 -8 -15 0 -20 10 -6 27 28 37 78 6 30 18 35 27 12 7 -19 -15 -105
-26 -105 -4 0 -8 -4 -8 -10 0 -5 19 -10 43 -10 38 0 48 5 73 35 27 33 29 34
34 13 3 -12 12 -24 19 -26 9 -3 11 2 8 14 -3 11 -8 29 -12 40 -4 16 3 29 25
50 16 16 30 36 30 44 0 21 39 132 52 147 5 7 8 18 6 26 -2 7 -13 -7 -24 -32z"/>
<path d="M4974 3718 c0 -38 5 -63 10 -58 5 5 4 33 -2 67 l-10 58 2 -67z"/>
<path d="M3072 3715 c0 -16 4 -41 8 -55 8 -24 8 -24 8 5 0 17 -4 41 -8 55 -8
24 -8 24 -8 -5z"/>
<path d="M5083 3685 c0 -22 2 -30 4 -17 2 12 2 30 0 40 -3 9 -5 -1 -4 -23z"/>
<path d="M3091 3605 c0 -16 3 -46 9 -65 8 -30 41 -304 54 -440 2 -25 2 5 0 65
-4 114 -24 280 -48 400 -8 41 -14 57 -15 40z"/>
<path d="M4051 3604 c0 -11 3 -14 6 -6 3 7 2 16 -1 19 -3 4 -6 -2 -5 -13z"/>
<path d="M511 3474 c-29 -14 -61 -22 -71 -19 -21 7 -37 -12 -23 -26 6 -6 33 3
71 21 76 37 99 38 114 5 6 -14 15 -25 21 -25 14 0 -27 65 -44 67 -7 1 -38 -9
-68 -23z"/>
<path d="M773 3442 c-24 -15 -43 -30 -43 -35 0 -4 18 4 40 18 22 14 44 25 50
25 5 0 10 5 10 10 0 15 -11 12 -57 -18z"/>
<path d="M1070 3432 c0 -5 7 -15 15 -22 8 -7 15 -8 15 -2 0 5 -7 15 -15 22 -8
7 -15 8 -15 2z"/>
<path d="M670 3411 c0 -5 5 -13 10 -16 6 -3 10 -2 10 4 0 5 -4 13 -10 16 -5 3
-10 2 -10 -4z"/>
<path d="M420 3398 c0 -45 116 -90 171 -67 26 10 55 56 44 67 -3 4 -15 0 -27
-7 -18 -11 -20 -11 -15 3 4 9 2 16 -3 16 -5 0 -12 -9 -15 -20 -9 -27 -24 -25
-18 3 4 20 3 20 -17 -6 -16 -20 -28 -26 -42 -21 -14 4 -18 2 -14 -5 15 -24
-14 -9 -38 20 -14 17 -26 24 -26 17z"/>
<path d="M4962 3380 c0 -14 2 -19 5 -12 2 6 2 18 0 25 -3 6 -5 1 -5 -13z"/>
<path d="M4654 3319 c1 -58 3 -64 14 -47 9 13 11 23 4 31 -6 7 -12 28 -15 47
-2 19 -4 5 -3 -31z"/>
<path d="M4952 3315 c0 -16 2 -22 5 -12 2 9 2 23 0 30 -3 6 -5 -1 -5 -18z"/>
<path d="M1443 3250 c0 -30 2 -43 4 -27 2 15 2 39 0 55 -2 15 -4 2 -4 -28z"/>
<path d="M3572 3228 c2 -36 7 -44 26 -46 19 -3 22 1 22 30 0 36 -15 58 -38 58
-9 0 -12 -12 -10 -42z m36 -6 c2 -15 -2 -22 -12 -22 -11 0 -16 9 -16 26 0 31
23 28 28 -4z"/>
<path d="M4647 3183 c3 -10 11 -24 16 -31 7 -9 6 -17 -1 -24 -7 -7 -12 -18
-12 -26 0 -9 9 -4 21 12 20 25 20 28 5 45 -9 10 -16 23 -16 29 0 7 -4 12 -10
12 -5 0 -7 -8 -3 -17z"/>
<path d="M1347 3172 c3 -12 9 -25 14 -28 14 -8 11 10 -6 32 -13 18 -14 18 -8
-4z"/>
<path d="M1680 3175 c0 -18 19 -40 26 -32 4 4 0 15 -9 24 -9 10 -17 13 -17 8z"/>
<path d="M4260 3124 c0 -10 5 -26 10 -34 8 -11 9 -7 4 15 -8 37 -14 45 -14 19z"/>
<path d="M4285 3037 c0 -18 -4 -43 -8 -57 -4 -14 2 -5 13 19 17 36 18 47 8 57
-11 11 -13 7 -13 -19z"/>
<path d="M3530 3054 c0 -15 33 -104 37 -100 5 5 -26 106 -33 106 -2 0 -4 -3
-4 -6z"/>
<path d="M3162 3020 c0 -14 2 -19 5 -12 2 6 2 18 0 25 -3 6 -5 1 -5 -13z"/>
<path d="M4382 3010 c0 -19 2 -27 5 -17 2 9 2 25 0 35 -3 9 -5 1 -5 -18z"/>
<path d="M4391 2970 c-1 -21 27 -100 31 -88 4 8 -2 32 -12 54 -10 21 -19 37
-19 34z"/>
<path d="M3572 2920 c0 -14 2 -19 5 -12 2 6 2 18 0 25 -3 6 -5 1 -5 -13z"/>
<path d="M4256 2925 c-3 -9 -6 -24 -5 -33 0 -9 5 -4 10 12 9 32 6 48 -5 21z"/>
<path d="M4116 2875 c-3 -9 -6 -24 -5 -33 0 -9 5 -4 10 12 9 32 6 48 -5 21z"/>
<path d="M3592 2850 c0 -14 2 -19 5 -12 2 6 2 18 0 25 -3 6 -5 1 -5 -13z"/>
<path d="M4402 2820 c0 -14 2 -19 5 -12 2 6 2 18 0 25 -3 6 -5 1 -5 -13z"/>
<path d="M3165 2800 c-3 -5 -1 -18 4 -27 9 -16 10 -14 11 10 0 28 -5 34 -15
17z"/>
<path d="M3161 2668 c0 -33 2 -38 9 -23 12 28 12 65 0 65 -5 0 -10 -19 -9 -42z"/>
<path d="M5582 2657 c-3 -40 -26 -89 -53 -112 l-23 -20 15 25 c21 34 32 80 19
80 -5 0 -10 -8 -10 -17 0 -9 -21 -57 -46 -106 -48 -93 -47 -87 -29 -197 4 -26
3 -30 -4 -15 -9 19 -10 19 -10 -3 -1 -32 42 -72 78 -72 29 0 30 -1 36 -64 12
-105 -23 -183 -77 -172 -16 3 -28 2 -28 -3 0 -5 -10 -12 -22 -15 -26 -7 -78
-71 -78 -95 0 -9 8 -2 16 16 23 47 48 65 98 70 50 6 70 23 97 81 l17 37 11
-28 c6 -16 11 -43 11 -60 l-1 -32 -15 25 -15 25 6 -31 c4 -21 0 -42 -13 -65
-16 -30 -24 -34 -65 -37 -51 -3 -42 10 -133 -190 -32 -71 -74 -114 -128 -132
-20 -6 -36 -16 -36 -21 0 -5 -16 -9 -35 -9 -19 0 -35 -5 -35 -10 0 -14 80 -1
100 15 8 7 34 22 57 34 49 24 77 67 122 185 37 96 54 116 97 116 44 0 86 20
80 37 -3 8 5 31 18 51 37 57 57 133 54 199 -3 54 -1 59 24 75 15 9 34 31 43
49 20 37 30 123 21 172 -7 38 -88 166 -94 148 -2 -5 10 -27 27 -48 34 -42 61
-111 61 -154 0 -34 -38 -139 -50 -139 -5 0 -15 9 -23 20 -12 18 -15 18 -35 4
-27 -19 -30 0 -6 34 8 12 13 28 11 35 -3 7 -8 4 -12 -8 -12 -31 -45 -75 -56
-75 -5 0 -7 11 -3 25 4 16 2 25 -6 25 -8 0 -10 8 -7 23 6 21 6 21 -13 -3 l-20
-25 10 35 c13 46 12 49 -5 26 -14 -19 -15 -17 -17 20 -3 68 2 97 22 129 47 74
61 108 57 138 -4 30 -4 30 -5 4z m-82 -171 c-5 -15 -10 -51 -10 -79 0 -73 -17
-95 -27 -37 -8 53 -8 53 20 107 24 46 33 51 17 9z m-4 -193 c-10 -10 -19 5
-10 18 6 11 8 11 12 0 2 -7 1 -15 -2 -18z m172 -51 c3 -9 -2 -13 -14 -10 -9 1
-19 9 -22 16 -3 9 2 13 14 10 9 -1 19 -9 22 -16z m-40 -26 c16 -36 25 -93 15
-99 -4 -3 -20 20 -35 51 -28 57 -28 57 -3 27 28 -34 36 -14 9 23 -8 12 -11 22
-6 22 5 0 14 -11 20 -24z m-24 -116 c27 -67 18 -93 -10 -31 -26 58 -29 71 -15
71 5 0 16 -18 25 -40z"/>
<path d="M3162 2521 c-1 -29 -9 -110 -18 -180 -8 -69 -17 -146 -20 -170 l-6
-44 -91 7 c-51 3 -153 8 -227 10 l-135 4 120 -8 c234 -17 350 -29 378 -39 56
-21 54 -90 -3 -133 -49 -36 -197 -45 -385 -23 -36 5 -37 4 -15 -6 14 -6 86
-13 160 -16 108 -5 147 -3 192 11 120 35 149 146 48 184 -25 10 -25 11 -19 88
4 44 12 124 19 179 6 55 10 121 7 145 -3 45 -4 45 -5 -9z"/>
<path d="M4131 2262 c-1 -20 39 -100 57 -114 15 -11 15 -11 5 3 -7 8 -24 40
-37 70 -14 30 -25 48 -25 41z"/>
<path d="M4210 2195 c7 -9 15 -13 17 -11 7 7 -7 26 -19 26 -6 0 -6 -6 2 -15z"/>
<path d="M4827 2164 c-16 -19 -25 -34 -20 -34 8 0 16 9 52 53 26 33 -4 15 -32
-19z"/>
<path d="M4949 2163 l-24 -28 28 24 c25 23 32 31 24 31 -2 0 -14 -12 -28 -27z"/>
<path d="M2030 2150 l-115 -6 125 -1 c69 0 152 3 185 7 l60 8 -70 -2 c-38 0
-122 -3 -185 -6z"/>
<path d="M2343 2153 c9 -2 25 -2 35 0 9 3 1 5 -18 5 -19 0 -27 -2 -17 -5z"/>
<path d="M2415 2154 c47 -7 235 -9 235 -2 0 5 -57 7 -127 7 -71 -1 -119 -3
-108 -5z"/>
<path d="M4310 2144 c0 -12 62 -54 79 -54 13 0 11 -44 -5 -130 -4 -21 -3 -22
4 -5 5 11 12 42 16 69 l8 48 51 -8 c29 -4 68 -8 87 -8 33 -1 35 -4 41 -41 7
-38 7 -38 5 10 l-1 49 -50 -2 c-56 -3 -184 35 -216 64 -10 9 -19 13 -19 8z"/>
<path d="M1370 2133 c0 -5 91 -7 202 -5 310 4 331 8 51 10 -139 1 -253 -1
-253 -5z"/>
<path d="M1268 2123 c18 -2 45 -2 60 0 15 2 0 4 -33 4 -33 0 -45 -2 -27 -4z"/>
<path d="M1138 2113 c6 -2 18 -2 25 0 6 3 1 5 -13 5 -14 0 -19 -2 -12 -5z"/>
<path d="M1193 2113 c9 -2 23 -2 30 0 6 3 -1 5 -18 5 -16 0 -22 -2 -12 -5z"/>
<path d="M4884 2106 c-10 -8 -16 -17 -13 -20 3 -3 14 3 24 14 21 23 17 26 -11
6z"/>
<path d="M4858 2013 c0 -27 -2 -59 -3 -73 -1 -14 -5 -83 -8 -155 -4 -71 -10
-200 -15 -285 -11 -191 -10 -250 3 -250 6 0 10 68 10 184 0 101 3 188 7 191 4
4 28 -11 53 -33 50 -44 110 -76 163 -87 49 -10 38 9 -14 23 -48 13 -115 54
-148 91 -16 17 -18 27 -10 48 11 33 34 42 34 14 0 -12 -5 -21 -11 -21 -8 0 -8
-5 1 -15 7 -8 9 -15 5 -15 -4 0 -2 -7 5 -15 7 -9 21 -13 31 -10 11 4 19 0 22
-12 4 -16 6 -15 12 5 4 13 15 22 27 22 14 0 18 -5 14 -15 -3 -8 -9 -21 -12
-29 -3 -7 2 -16 10 -19 10 -4 16 -1 16 9 0 8 11 19 25 24 32 12 33 22 1 14
-16 -4 -25 -1 -29 10 -5 14 4 16 66 16 118 0 170 39 217 162 28 73 18 71 -14
-4 -47 -109 -105 -150 -203 -146 -32 2 -71 -1 -87 -6 -23 -7 -28 -6 -24 5 3 8
13 13 22 13 23 -2 21 2 -19 49 -20 23 -38 52 -41 64 -4 13 -10 23 -15 23 -5 0
-9 6 -9 13 0 8 -9 43 -19 78 -10 35 -25 90 -32 122 -7 31 -16 57 -21 57 -4 0
-9 -21 -10 -47z m75 -245 c-2 -5 -8 -8 -14 -8 -11 0 -12 33 -2 44 8 8 23 -25
16 -36z m7 -38 c0 -12 -28 -25 -36 -17 -9 9 6 27 22 27 8 0 14 -5 14 -10z m45
-40 c0 -8 -8 -16 -17 -18 -13 -2 -18 3 -18 18 0 15 5 20 18 18 9 -2 17 -10 17
-18z m5 -45 c0 -12 -28 -35 -44 -35 -8 0 -7 35 1 43 12 13 43 7 43 -8z"/>
<path d="M4170 2041 c0 -5 5 -13 10 -16 6 -3 10 -2 10 4 0 5 -4 13 -10 16 -5
3 -10 2 -10 -4z"/>
<path d="M4130 1995 c0 -8 4 -15 9 -15 5 0 14 -14 22 -32 7 -17 14 -27 16 -21
6 16 -24 83 -36 83 -6 0 -11 -7 -11 -15z"/>
<path d="M4128 1949 c-3 -8 1 -32 9 -54 8 -23 11 -54 8 -73 -3 -19 -2 -39 3
-45 6 -7 12 -21 15 -32 3 -11 3 17 0 63 -6 84 -26 167 -35 141z"/>
<path d="M5536 1945 c-3 -8 -1 -15 4 -15 6 0 10 7 10 15 0 8 -2 15 -4 15 -2 0
-6 -7 -10 -15z"/>
<path d="M4602 1925 c0 -16 2 -22 5 -12 2 9 2 23 0 30 -3 6 -5 -1 -5 -18z"/>
<path d="M5485 1929 c-4 -6 -5 -12 -2 -15 2 -3 7 2 10 11 7 17 1 20 -8 4z"/>
<path d="M4330 1891 c0 -6 4 -13 10 -16 6 -3 7 1 4 9 -7 18 -14 21 -14 7z"/>
<path d="M4369 1845 c-4 -33 -5 -62 -3 -64 10 -12 15 12 12 65 l-3 59 -6 -60z"/>
<path d="M4596 1851 c-4 -7 -5 -15 -2 -18 9 -9 19 4 14 18 -4 11 -6 11 -12 0z"/>
<path d="M4312 1840 c0 -8 4 -26 8 -40 6 -20 8 -21 8 -5 0 11 -3 29 -8 40 -5
12 -8 14 -8 5z"/>
<path d="M4590 1811 c0 -5 5 -13 11 -17 8 -4 10 -75 8 -233 -2 -124 0 -236 4
-248 6 -17 1 -28 -25 -52 l-33 -31 2 -157 c0 -87 2 -180 3 -208 l2 -50 11 37
c10 37 27 48 75 48 13 0 22 -6 22 -15 0 -17 43 -19 75 -4 15 7 9 8 -22 4 -39
-5 -43 -3 -43 16 0 19 -4 20 -51 14 -46 -6 -51 -5 -47 11 2 14 12 19 37 20 24
0 37 6 42 20 7 16 8 15 8 -7 1 -34 36 -44 91 -28 38 12 40 14 40 52 0 38 -1
40 -15 21 -14 -19 -14 -19 -15 1 0 17 -6 20 -40 19 -56 -3 -47 17 15 32 44 12
50 11 79 -9 17 -12 33 -23 34 -24 2 -1 -1 -26 -8 -56 -10 -52 -13 -56 -48 -65
l-37 -10 34 -1 c30 -1 33 -4 27 -23 -17 -64 -18 -96 -2 -121 17 -24 16 -26
-21 -61 -21 -20 -42 -36 -48 -36 -113 -7 -109 -8 -142 27 -39 40 -52 41 -85 6
-32 -35 -48 -66 -48 -92 0 -24 17 -26 69 -11 49 14 26 -5 -35 -29 -55 -21 -74
-15 -74 21 0 55 88 163 127 155 28 -5 30 4 3 20 -15 10 -21 10 -27 0 -22 -34
-77 -70 -139 -92 -77 -28 -84 -29 -84 -16 0 5 30 19 68 32 37 12 70 23 74 26
4 2 -4 19 -17 39 -32 47 -41 113 -25 192 12 61 11 64 -10 87 -23 24 -23 35 -4
104 6 21 5 22 -15 11 -12 -6 -46 -18 -74 -25 -29 -7 -60 -17 -69 -20 -14 -6
-18 -2 -18 19 0 28 -20 33 -70 15 -20 -7 -16 -8 18 -5 39 4 42 2 42 -20 0 -29
4 -29 91 -3 39 12 73 19 76 15 4 -3 1 -17 -5 -31 -15 -32 -16 -79 -2 -70 12 7
40 -12 40 -26 0 -14 -52 -37 -125 -55 -63 -16 -68 -16 -77 -1 -5 10 -21 17
-37 17 -17 0 -31 7 -35 16 -4 11 -2 15 8 11 8 -3 17 -3 20 1 12 12 45 8 51 -6
3 -9 14 -13 30 -10 13 3 26 1 27 -4 2 -5 18 -4 36 3 30 10 32 14 32 57 0 35
-3 43 -10 32 -7 -11 -12 -12 -17 -4 -12 17 -90 16 -97 -2 -3 -8 -10 -14 -15
-14 -6 0 -8 6 -5 14 3 8 1 17 -4 20 -6 3 -13 -5 -16 -19 -8 -33 -26 -32 -28 3
-1 18 -3 12 -8 -18 -6 -37 -7 -39 -9 -15 -1 17 -7 39 -12 50 -6 14 -7 5 -3
-30 4 -34 2 -47 -5 -40 -5 6 -11 30 -14 55 -3 42 -4 41 -5 -13 -2 -43 2 -59
13 -63 30 -12 8 -95 -42 -162 -14 -18 -23 -35 -21 -38 8 -8 36 30 70 96 25 48
40 66 56 68 17 3 25 -2 29 -17 7 -26 5 -26 109 4 47 14 87 25 88 25 1 0 0 -28
-2 -62 -3 -57 4 -93 32 -158 7 -17 -19 -29 -113 -50 -56 -13 -158 -8 -191 10
-10 6 -34 24 -52 40 -18 17 -38 30 -45 30 -16 0 -17 15 -3 41 18 32 29 111 19
136 -15 40 -53 30 -114 -30 -62 -60 -69 -89 -35 -145 23 -37 19 -52 -13 -52
-12 0 -31 -7 -41 -15 -11 -8 -28 -15 -38 -15 -11 0 -31 -12 -45 -26 -22 -22
-33 -25 -78 -22 -29 1 -51 0 -48 -4 2 -5 31 -8 63 -8 48 0 61 -4 70 -19 23
-45 1 -139 -39 -160 -15 -8 -32 -8 -65 0 -24 6 -52 9 -62 6 -14 -3 -13 -5 6
-6 14 -1 32 -6 40 -11 12 -8 10 -10 -10 -11 -20 -1 -19 -3 10 -10 61 -15 487
-23 574 -10 44 6 81 9 84 6 3 -3 -2 -22 -12 -42 l-17 -36 -142 9 c-78 5 -267
9 -421 9 l-279 0 -9 24 c-4 13 -6 27 -2 30 3 3 47 8 97 12 51 3 88 7 82 8 -5
2 -25 2 -43 1 -20 -1 -34 4 -38 13 -4 11 -17 13 -49 9 -53 -5 -63 8 -45 62 14
42 65 90 115 106 20 7 34 14 31 17 -2 3 -29 -6 -59 -20 -72 -33 -102 -75 -102
-144 l0 -53 -50 -1 c-27 -1 -97 0 -155 1 -58 1 -102 -1 -99 -4 3 -3 69 -7 147
-8 78 -1 142 -5 142 -9 0 -11 -125 -22 -183 -16 -29 2 -92 1 -142 -3 -64 -5
-77 -8 -45 -10 l45 -3 -35 -7 c-23 -5 9 -8 91 -9 69 0 129 -5 135 -10 5 -5 32
-5 66 2 44 8 64 7 89 -3 28 -12 30 -15 13 -21 -11 -4 20 -8 71 -9 50 -1 104
-2 120 -3 17 0 59 0 95 2 50 2 59 5 40 11 -21 7 -19 8 15 8 48 1 139 -14 110
-18 -11 -1 -31 -1 -45 0 -14 1 -22 -1 -18 -5 4 -4 101 -8 215 -10 144 -1 215
-5 228 -14 17 -10 10 -11 -40 -7 -33 2 -50 2 -37 -1 12 -2 22 -8 22 -13 0 -15
-31 -20 -116 -20 -46 0 -84 -3 -84 -7 0 -8 61 -7 273 4 60 3 97 1 97 -5 0 -6
-6 -13 -12 -15 -7 -3 11 -6 40 -6 34 -1 52 -5 52 -13 1 -7 9 -23 20 -36 18
-22 22 -23 76 -13 82 16 230 13 297 -4 l56 -15 30 28 c22 20 31 38 33 67 l3
40 50 0 c28 0 81 -3 119 -7 38 -4 66 -5 63 -1 -4 3 -55 11 -114 17 -60 6 -108
16 -108 21 0 13 96 19 104 7 4 -6 23 -7 50 -2 24 4 62 6 85 4 22 -1 10 3 -29
10 l-70 13 110 5 110 4 -142 2 c-120 2 -143 4 -143 17 0 11 -11 15 -36 15 -24
0 -34 4 -31 13 3 8 27 11 88 9 65 -2 80 0 66 9 -10 6 -29 8 -42 5 -13 -3 -44
-3 -70 1 -36 5 -49 11 -55 29 -5 13 -21 33 -35 46 -14 12 -25 31 -25 43 0 11
-7 31 -16 43 -14 21 -14 25 -1 35 31 24 67 90 67 122 0 48 -22 62 -66 42 -45
-22 -47 -22 -66 11 -13 22 -15 37 -8 63 45 168 49 218 20 226 -27 7 -25 22 15
116 19 44 35 84 35 89 0 4 -10 8 -22 7 -13 0 -17 -3 -10 -6 17 -7 16 -15 -19
-97 l-31 -74 -56 -11 c-72 -14 -82 -14 -82 4 0 12 -12 15 -57 13 l-58 -3 -3
42 c-2 23 2 60 8 83 9 35 13 39 30 30 26 -14 132 -13 108 1 -16 9 -17 13 -3
44 7 19 10 35 6 35 -5 0 -17 -19 -27 -42 -25 -62 -30 -23 -5 43 19 49 19 52 2
30 -16 -21 -19 -21 -24 -6 -4 9 -2 26 4 37 8 15 8 26 -1 44 -7 12 -10 36 -7
52 5 22 2 32 -10 36 -12 5 -14 1 -10 -16 16 -67 18 -117 6 -139 l-13 -24 -7
30 c-7 32 -1 280 8 305 4 11 7 9 14 -9 5 -13 12 -21 15 -18 3 3 0 15 -6 27 -6
12 -17 49 -24 83 -7 33 -18 63 -24 65 -7 2 -12 -1 -12 -7z m64 -526 c-6 -15
-8 -15 -16 -2 -4 8 -5 23 -2 32 6 15 8 15 16 2 4 -8 5 -23 2 -32z m15 -227
c10 -26 5 -41 -10 -32 -5 3 -16 0 -24 -6 -12 -10 -15 -9 -16 6 0 12 -3 14 -6
6 -4 -10 -8 -10 -19 -1 -21 17 -17 26 14 37 42 16 52 14 61 -10z m-359 -57 c0
-6 -4 -13 -10 -16 -5 -3 -10 1 -10 9 0 9 5 16 10 16 6 0 10 -4 10 -9z m-272
-108 c2 -28 -4 -59 -19 -90 -23 -51 -38 -44 -20 9 18 52 14 89 -10 95 -21 6
-21 7 -3 20 32 23 49 12 52 -34z m-45 -7 c3 -8 3 -25 1 -38 -24 -111 -36 -130
-54 -82 -16 40 -12 79 11 108 23 29 34 33 42 12z m-67 -30 c-8 -17 -12 -44 -9
-69 4 -41 4 -42 -11 -17 -20 34 -20 49 5 89 24 39 36 37 15 -3z m104 -131 c0
-13 -37 -31 -46 -23 -2 2 3 14 12 26 16 23 34 21 34 -3z m920 10 c20 -24 3
-81 -36 -120 -39 -40 -75 -52 -113 -39 -40 14 -33 38 12 42 35 3 52 -11 25
-21 -7 -2 -9 -8 -5 -13 11 -11 65 52 74 84 9 38 -6 39 -70 4 -60 -33 -61 -33
-37 -8 22 24 116 85 131 86 4 0 12 -7 19 -15z m-861 -44 c23 -23 81 -41 134
-41 25 0 36 -4 32 -11 -9 -14 -98 -2 -142 18 -35 16 -73 53 -55 53 7 0 21 -9
31 -19z m-120 -17 c27 -35 27 -40 -9 -52 -35 -13 -38 -9 -38 41 0 45 17 49 47
11z m632 -5 c12 -17 36 -37 53 -44 26 -11 28 -15 13 -20 -9 -4 -23 -3 -30 2
-16 13 -77 34 -77 26 0 -3 8 -11 17 -18 15 -11 12 -14 -27 -22 -25 -6 -49 -7
-53 -3 -16 14 47 110 72 110 5 0 20 -14 32 -31z m-705 6 c10 -26 0 -37 -20
-22 -11 8 -16 19 -12 25 10 16 26 15 32 -3z m186 -15 c22 -16 53 -30 67 -30
40 0 56 -14 35 -31 -20 -16 -54 -92 -54 -120 0 -11 -12 -31 -26 -44 -19 -18
-22 -25 -12 -25 23 0 36 20 62 96 17 53 30 74 56 92 18 12 40 22 49 22 9 0 -2
-12 -23 -26 -54 -37 -107 -160 -76 -179 5 -3 47 -1 94 5 46 7 97 10 112 8 16
-2 -49 -11 -144 -22 -136 -14 -206 -16 -328 -11 -85 4 -153 10 -151 14 32 58
49 112 49 150 0 25 2 40 5 34 10 -27 83 -7 83 22 0 19 9 19 31 -1 15 -13 24
-14 49 -5 25 8 32 7 36 -4 11 -29 -1 -50 -28 -50 -15 -1 -30 -4 -34 -7 -4 -5
27 -69 51 -106 2 -1 14 2 27 9 21 9 26 20 31 67 7 69 0 111 -24 138 -20 21
-16 34 8 34 7 0 32 -13 55 -30z m807 -3 c-8 -18 -18 -23 -45 -23 -19 1 -34 2
-34 4 0 6 66 42 77 42 10 0 10 -6 2 -23z m-1079 -17 c0 -12 -28 -25 -36 -17
-9 9 6 27 22 27 8 0 14 -5 14 -10z m50 -21 c0 -10 -2 -19 -4 -19 -2 0 -11 -3
-20 -6 -19 -7 -22 26 -4 44 15 15 28 6 28 -19z m170 -20 c0 -16 -4 -29 -10
-29 -5 0 -10 16 -10 36 0 21 4 33 10 29 6 -3 10 -19 10 -36z m330 11 c0 -5 -2
-10 -4 -10 -3 0 -8 5 -11 10 -3 6 -1 10 4 10 6 0 11 -4 11 -10z m45 0 c3 -5 1
-10 -4 -10 -6 0 -11 5 -11 10 0 6 2 10 4 10 3 0 8 -4 11 -10z m-115 -26 c0
-10 -6 -14 -15 -11 -11 5 -13 0 -8 -25 5 -26 3 -30 -9 -25 -12 4 -14 1 -11
-14 4 -13 0 -19 -11 -19 -9 0 -16 -8 -16 -19 0 -23 -25 -45 -44 -38 -30 12 18
118 67 147 39 24 47 25 47 4z m54 0 c4 -9 4 -19 2 -21 -8 -8 -26 8 -26 23 0
19 16 18 24 -2z m46 -10 c0 -8 -4 -12 -10 -9 -5 3 -10 10 -10 16 0 5 5 9 10 9
6 0 10 -7 10 -16z m265 -11 c-32 -23 -55 -34 -55 -26 0 10 64 52 70 46 3 -3
-4 -11 -15 -20z m101 3 c18 -14 18 -15 1 -22 -10 -3 -30 -1 -45 5 -21 10 -23
14 -11 22 20 12 32 11 55 -5z m-431 -24 c0 -18 -20 -15 -23 4 -3 10 1 15 10
12 7 -3 13 -10 13 -16z m95 -3 c0 -5 -4 -9 -10 -9 -5 0 -10 7 -10 16 0 8 5 12
10 9 6 -3 10 -10 10 -16z m161 4 c-6 -11 -6 -24 0 -35 8 -15 2 -21 -36 -39
-25 -12 -49 -19 -52 -15 -3 3 -1 23 5 44 8 27 20 41 39 49 43 17 56 16 44 -4z
m315 -9 c7 -10 10 -24 6 -31 -11 -17 -100 4 -112 27 -13 24 -6 28 47 25 33 -1
50 -7 59 -21z m-526 6 c0 -5 -4 -10 -10 -10 -5 0 -10 5 -10 10 0 6 5 10 10 10
6 0 10 -4 10 -10z m-70 -44 c-13 -13 -35 7 -25 24 5 8 11 8 21 -1 10 -8 12
-15 4 -23z m50 9 c0 -8 -4 -15 -10 -15 -5 0 -10 7 -10 15 0 8 5 15 10 15 6 0
10 -7 10 -15z m50 0 c0 -8 -4 -15 -10 -15 -5 0 -10 7 -10 15 0 8 5 15 10 15 6
0 10 -7 10 -15z m50 -11 c0 -8 -4 -12 -10 -9 -5 3 -10 13 -10 21 0 8 5 12 10
9 6 -3 10 -13 10 -21z m-172 -37 c3 -23 0 -27 -23 -27 -18 0 -25 4 -21 13 3 6
9 20 12 30 9 25 28 15 32 -16z m102 7 c0 -8 -4 -14 -10 -14 -5 0 -10 9 -10 21
0 11 5 17 10 14 6 -3 10 -13 10 -21z m511 12 c61 -26 82 -57 81 -125 0 -32 -8
-76 -16 -96 -12 -28 -13 -42 -5 -58 10 -17 8 -24 -12 -39 -15 -13 -30 -17 -43
-12 -12 3 -107 8 -213 9 -105 2 -196 6 -202 9 -6 4 -11 22 -11 40 l0 33 83 12
c45 7 105 17 132 21 47 9 46 9 -17 5 -38 -3 -97 -8 -132 -11 -64 -7 -65 -6
-72 20 -21 85 45 170 153 195 63 15 236 13 274 -3z m-561 -12 c0 -8 -4 -12
-10 -9 -5 3 -10 10 -10 16 0 5 5 9 10 9 6 0 10 -7 10 -16z m100 1 c0 -8 -4
-15 -10 -15 -5 0 -10 7 -10 15 0 8 5 15 10 15 6 0 10 -7 10 -15z m50 5 c0 -5
-4 -10 -10 -10 -5 0 -10 5 -10 10 0 6 5 10 10 10 6 0 10 -4 10 -10z m-10 -35
c0 -12 -43 -96 -52 -101 -21 -13 -18 8 9 55 24 44 43 64 43 46z m-69 -64 c-23
-44 -57 -66 -45 -28 11 35 35 67 50 67 11 0 10 -8 -5 -39z m-41 24 c0 -17 -36
-75 -47 -75 -17 0 -16 2 4 45 9 19 23 35 30 35 7 0 13 -2 13 -5z m-965 -45 c4
-6 -7 -10 -27 -10 -18 0 -48 -4 -65 -9 -20 -6 -35 -6 -38 0 -4 5 -34 10 -68
11 -41 1 -22 4 53 8 63 3 120 7 127 8 6 1 15 -2 18 -8z m333 -26 c-10 -9 -98
-13 -98 -3 0 5 23 9 52 9 28 0 49 -2 46 -6z m69 0 c-3 -3 -12 -4 -19 -1 -8 3
-5 6 6 6 11 1 17 -2 13 -5z m83 -4 c0 -5 -6 -10 -14 -10 -8 0 -18 5 -21 10 -3
6 3 10 14 10 12 0 21 -4 21 -10z m129 -6 c10 -9 -8 -11 -56 -7 -29 3 -53 9
-53 13 0 7 101 1 109 -6z m1056 -4 c15 -6 8 -9 -27 -9 -27 -1 -48 4 -48 9 0
12 47 12 75 0z m-988 -6 c-3 -3 -12 -4 -19 -1 -8 3 -5 6 6 6 11 1 17 -2 13 -5z
m70 -5 c-14 -8 -22 -8 -30 0 -8 8 -3 11 19 11 25 -1 27 -2 11 -11z m243 7 c0
-2 -9 -6 -20 -9 -11 -3 -20 -1 -20 4 0 5 9 9 20 9 11 0 20 -2 20 -4z m60 -26
l0 -29 -30 17 c-26 15 -27 17 -10 20 11 2 20 8 20 13 0 5 5 9 10 9 6 0 10 -13
10 -30z m0 -57 c0 -8 -13 -13 -31 -13 -16 0 -28 4 -24 9 3 6 -17 12 -47 14
-32 2 -23 3 24 3 55 -1 78 -5 78 -13z"/>
<path d="M3855 540 c-8 -13 32 -97 48 -103 24 -9 48 13 41 36 -18 57 -71 96
-89 67z m43 -29 c3 -8 -1 -12 -9 -9 -7 2 -15 10 -17 17 -3 8 1 12 9 9 7 -2 15
-10 17 -17z"/>
<path d="M4617 310 c-27 -5 -52 -12 -55 -16 -4 -4 8 -4 27 0 18 3 53 6 77 6
24 0 44 5 44 10 0 11 -24 11 -93 0z"/>
<path d="M4871 291 c31 -10 61 -21 68 -25 6 -4 11 -3 11 3 0 11 -92 42 -119
40 -9 0 9 -9 40 -18z"/>
<path d="M4800 269 c36 -5 75 -14 87 -20 13 -7 26 -9 30 -6 13 14 -68 37 -124
36 l-58 -2 65 -8z"/>
<path d="M4361 1750 c-2 -25 -2 -25 -18 -5 -15 20 -15 19 -9 -5 15 -59 27
-174 21 -201 -4 -16 -2 -35 3 -42 6 -7 12 -54 14 -104 3 -92 3 -93 28 -93 17
0 21 3 12 8 -18 12 -33 115 -41 302 -4 91 -9 154 -10 140z"/>
<path d="M4151 1528 c-1 -101 3 -158 9 -160 7 -2 5 -18 -6 -43 -18 -43 -44
-174 -43 -215 1 -14 9 18 20 70 10 52 18 96 18 98 1 1 31 2 69 3 37 0 85 4
107 8 l40 9 -37 1 c-36 1 -37 2 -33 34 l5 32 -13 -35 c-14 -36 -57 -56 -57
-27 0 9 4 17 8 19 5 2 12 23 15 48 7 43 6 44 -8 20 -20 -35 -20 -2 0 46 13 32
13 37 -1 52 -11 10 -14 25 -10 45 3 17 3 27 -1 23 -4 -3 -13 4 -19 16 -11 21
-12 19 -7 -18 3 -23 1 -50 -5 -59 -8 -15 -11 -13 -22 19 -6 20 -15 67 -20 104
-6 56 -8 41 -9 -90z m35 -86 c-9 -8 -13 0 -20 38 l-6 35 16 -34 c8 -18 13 -36
10 -39z m48 34 c7 -27 -1 -56 -15 -56 -5 0 -9 -11 -9 -24 0 -14 -4 -28 -10
-31 -6 -4 -10 7 -10 24 0 17 5 31 10 31 6 0 10 10 9 23 -5 57 13 81 25 33z
m-4 -128 c-1 -7 -8 -24 -16 -38 l-15 -25 5 25 c3 14 6 31 6 38 0 6 5 12 10 12
6 0 10 -6 10 -12z m-48 -40 c-6 -6 -7 0 -4 19 5 21 7 23 10 9 2 -10 0 -22 -6
-28z"/>
<path d="M4807 1653 c-4 -3 -7 -13 -7 -22 1 -13 3 -13 11 2 11 19 8 33 -4 20z"/>
<path d="M4241 1635 c0 -5 6 -21 14 -35 8 -14 14 -20 14 -15 0 6 -6 21 -14 35
-8 14 -14 21 -14 15z"/>
<path d="M4782 1585 c-17 -37 -14 -45 4 -12 9 16 14 31 11 33 -2 2 -9 -7 -15
-21z"/>
<path d="M5150 1579 c0 -5 5 -7 10 -4 6 3 10 8 10 11 0 2 -4 4 -10 4 -5 0 -10
-5 -10 -11z"/>
<path d="M4801 1549 c-14 -42 -7 -49 9 -9 7 17 10 33 8 36 -3 3 -11 -9 -17
-27z"/>
<path d="M4756 1531 c-11 -17 -27 -66 -19 -56 12 13 34 65 28 65 -2 0 -6 -4
-9 -9z"/>
<path d="M4767 1465 c-9 -20 -17 -41 -16 -48 0 -7 9 8 20 32 23 53 20 66 -4
16z"/>
<path d="M4670 1464 c0 -10 5 -26 10 -34 8 -11 9 -7 4 15 -8 37 -14 45 -14 19z"/>
<path d="M4791 1413 c-1 -6 -4 -20 -7 -30 -5 -17 -5 -17 6 0 6 10 9 23 6 30
-3 9 -5 9 -5 0z"/>
<path d="M4436 1296 c3 -8 -2 -38 -10 -67 -9 -29 -16 -60 -15 -68 1 -20 39
108 39 132 0 9 -4 17 -10 17 -5 0 -7 -6 -4 -14z"/>
<path d="M4748 1262 l-17 -33 37 7 c43 8 54 14 24 14 -14 0 -22 7 -24 23 -3
20 -5 19 -20 -11z"/>
<path d="M4341 1230 c-5 -16 -7 -30 -3 -30 4 0 13 14 19 30 6 17 8 30 3 30 -4
0 -13 -13 -19 -30z"/>
<path d="M4164 1215 c-9 -50 0 -53 13 -5 5 22 7 40 2 40 -4 0 -11 -16 -15 -35z"/>
<path d="M4220 1215 c-7 -20 -10 -39 -7 -41 3 -3 10 11 17 31 7 20 10 39 7 41
-3 3 -10 -11 -17 -31z"/>
<path d="M4277 1243 c-2 -4 -7 -24 -11 -43 l-6 -35 15 39 c13 35 15 61 2 39z"/>
<path d="M4606 1188 c-3 -13 -5 -34 -5 -48 1 -15 5 -7 10 19 9 47 6 68 -5 29z"/>
<path d="M4664 1166 c-3 -21 -4 -39 -1 -42 2 -3 8 11 11 32 4 20 5 38 2 41 -2
3 -8 -11 -12 -31z"/>
<path d="M4735 1170 c-3 -5 -1 -10 4 -10 6 0 11 5 11 10 0 6 -2 10 -4 10 -3 0
-8 -4 -11 -10z"/>
<path d="M4818 1004 c-5 -4 -8 -19 -8 -33 1 -23 2 -24 11 -8 11 19 9 53 -3 41z"/>
<path d="M4562 790 c0 -14 2 -19 5 -12 2 6 2 18 0 25 -3 6 -5 1 -5 -13z"/>
<path d="M358 673 c7 -3 16 -2 19 1 4 3 -2 6 -13 5 -11 0 -14 -3 -6 -6z"/>
<path d="M1667 653 c-29 -7 -41 -51 -22 -79 31 -48 105 -20 105 39 0 38 -32
53 -83 40z m8 -32 c-3 -6 -11 -11 -17 -11 -6 0 -6 6 2 15 14 17 26 13 15 -4z
m21 -17 c-10 -14 -20 -23 -23 -21 -6 6 30 57 36 51 2 -2 -4 -15 -13 -30z m34
-15 c-6 -10 -18 -19 -26 -19 -15 0 -13 10 9 37 14 19 29 5 17 -18z"/>
<path d="M208 633 c7 -3 16 -2 19 1 4 3 -2 6 -13 5 -11 0 -14 -3 -6 -6z"/>
<path d="M630 592 c0 -4 17 -6 38 -4 58 5 62 10 10 11 -27 1 -48 -3 -48 -7z"/>
<path d="M790 590 c0 -13 30 -13 50 0 11 7 7 10 -17 10 -18 0 -33 -4 -33 -10z"/>
<path d="M1657 452 c-56 -61 27 -127 84 -66 22 23 23 27 8 52 -19 34 -67 42
-92 14z m83 -22 c0 -14 -14 -12 -28 2 -19 19 -14 30 8 18 11 -6 20 -15 20 -20z
m-30 -15 c20 -24 6 -28 -15 -5 -10 11 -13 20 -8 20 6 0 16 -7 23 -15z m-32 -7
c14 -14 16 -28 2 -28 -5 0 -14 9 -20 20 -12 22 -1 27 18 8z"/>
<path d="M3313 423 c9 -2 25 -2 35 0 9 3 1 5 -18 5 -19 0 -27 -2 -17 -5z"/>
<path d="M2770 410 c-11 -7 -1 -9 32 -8 25 1 44 6 42 10 -7 11 -56 10 -74 -2z"/>
<path d="M3010 400 c0 -5 11 -10 25 -10 14 0 25 5 25 10 0 6 -11 10 -25 10
-14 0 -25 -4 -25 -10z"/>
<path d="M4247 374 c-4 -4 -7 -14 -7 -23 0 -11 3 -12 11 -4 6 6 10 16 7 23 -2
6 -7 8 -11 4z"/>
<path d="M5278 373 c7 -3 16 -2 19 1 4 3 -2 6 -13 5 -11 0 -14 -3 -6 -6z"/>
<path d="M2820 359 c-27 -4 -5 -5 55 -2 55 3 102 7 104 9 7 7 -111 2 -159 -7z"/>
<path d="M5153 343 c9 -2 23 -2 30 0 6 3 -1 5 -18 5 -16 0 -22 -2 -12 -5z"/>
<path d="M5388 323 c12 -2 32 -2 45 0 12 2 2 4 -23 4 -25 0 -35 -2 -22 -4z"/>
<path d="M2263 313 c9 -2 23 -2 30 0 6 3 -1 5 -18 5 -16 0 -22 -2 -12 -5z"/>
<path d="M3368 293 c-41 -6 -34 -20 7 -15 19 2 35 8 35 13 0 5 -3 8 -7 8 -5
-1 -20 -4 -35 -6z"/>
<path d="M1883 283 c15 -2 37 -2 50 0 12 2 0 4 -28 4 -27 0 -38 -2 -22 -4z"/>
<path d="M2833 283 c15 -2 37 -2 50 0 12 2 0 4 -28 4 -27 0 -38 -2 -22 -4z"/>
<path d="M5288 273 c12 -2 30 -2 40 0 9 3 -1 5 -23 4 -22 0 -30 -2 -17 -4z"/>
<path d="M3965 251 c-3 -6 10 -7 32 -4 50 8 55 13 10 13 -20 0 -38 -4 -42 -9z"/>
<path d="M3693 243 c9 -2 25 -2 35 0 9 3 1 5 -18 5 -19 0 -27 -2 -17 -5z"/>
<path d="M3853 243 c9 -2 25 -2 35 0 9 3 1 5 -18 5 -19 0 -27 -2 -17 -5z"/>
<path d="M5323 223 c9 -2 23 -2 30 0 6 3 -1 5 -18 5 -16 0 -22 -2 -12 -5z"/>
<path d="M5033 203 c9 -2 25 -2 35 0 9 3 1 5 -18 5 -19 0 -27 -2 -17 -5z"/>
</g>
</svg>
